<?xml version="1.0" encoding="UTF-8" standalone="no"?>
<!DOCTYPE svg PUBLIC "-//W3C//DTD SVG 1.1//EN" "http://www.w3.org/Graphics/SVG/1.1/DTD/svg11.dtd">
<svg width="100%" height="100%" viewBox="0 0 1063 713" version="1.1" xmlns="http://www.w3.org/2000/svg" xmlns:xlink="http://www.w3.org/1999/xlink" xml:space="preserve" xmlns:serif="http://www.serif.com/" style="fill-rule:evenodd;clip-rule:evenodd;stroke-linejoin:round;stroke-miterlimit:2;">
    <g transform="matrix(4.16667,0,0,4.16667,0,0)">
        <path d="M59.632,0.107L59.632,30.206L67.242,30.206L67.242,7.716L247.387,7.716L247.387,126.961L103.054,126.961L67.242,155.279L67.242,106.819L59.632,106.819L59.632,171L105.7,134.572L254.999,134.572L254.999,0.107L59.632,0.107Z" style="fill:rgb(33,47,93);fill-rule:nonzero;"/>
        <path d="M12.744,48.2L12.744,89.491L18.903,89.491C23.888,89.491 27.697,87.863 30.331,84.606C32.964,81.351 34.309,76.69 34.366,70.63L34.366,67.359C34.366,61.072 33.064,56.308 30.458,53.064C27.852,49.822 24.043,48.2 19.031,48.2L12.744,48.2ZM0,99.73L0,37.878L19.031,37.878C24.468,37.878 29.333,39.103 33.623,41.553C37.914,44.003 41.262,47.485 43.669,52.003C46.076,56.521 47.28,61.653 47.28,67.401L47.28,70.248C47.28,75.997 46.098,81.108 43.733,85.583C41.368,90.059 38.034,93.527 33.729,95.991C29.424,98.455 24.567,99.702 19.158,99.73L0,99.73Z" style="fill:rgb(33,47,93);fill-rule:nonzero;"/>
        <rect x="57.348" y="37.878" width="12.744" height="61.852" style="fill:rgb(33,47,93);fill-rule:nonzero;"/>
        <path d="M94.646,67.614L106.031,67.614C109.401,67.614 111.971,66.821 113.741,65.235C115.511,63.649 116.396,61.384 116.396,58.439C116.396,55.408 115.504,52.958 113.72,51.089C111.936,49.22 109.472,48.258 106.329,48.2L94.646,48.2L94.646,67.614ZM94.646,77.937L94.646,99.73L81.902,99.73L81.902,37.878L106.031,37.878C110.676,37.878 114.761,38.728 118.287,40.427C121.813,42.126 124.524,44.54 126.422,47.67C128.319,50.8 129.268,54.36 129.268,58.354C129.268,64.414 127.193,69.193 123.045,72.69C118.896,76.189 113.153,77.937 105.819,77.937L94.646,77.937Z" style="fill:rgb(49,137,201);fill-rule:nonzero;"/>
        <path d="M145.334,76.663L160.797,76.663L153.023,53.511L145.334,76.663ZM164.237,86.985L141.893,86.985L137.645,99.73L124.094,99.73L147.118,37.878L158.928,37.878L182.079,99.73L168.528,99.73L164.237,86.985Z" style="fill:rgb(49,137,201);fill-rule:nonzero;"/>
        <path d="M219.93,83.502C219.93,81.095 219.081,79.247 217.381,77.958C215.682,76.67 212.624,75.311 208.206,73.88C203.788,72.45 200.29,71.041 197.711,69.653C190.688,65.858 187.176,60.747 187.176,54.317C187.176,50.977 188.118,47.995 190.002,45.376C191.885,42.757 194.59,40.71 198.116,39.237C201.641,37.765 205.598,37.028 209.989,37.028C214.407,37.028 218.342,37.829 221.799,39.429C225.254,41.028 227.936,43.288 229.848,46.204C231.76,49.121 232.715,52.435 232.715,56.145L219.971,56.145C219.971,53.314 219.081,51.11 217.295,49.539C215.512,47.967 213.004,47.181 209.776,47.181C206.661,47.181 204.239,47.84 202.512,49.156C200.786,50.474 199.92,52.208 199.92,54.36C199.92,56.372 200.934,58.056 202.958,59.415C204.983,60.774 207.963,62.05 211.901,63.239C219.151,65.42 224.432,68.124 227.747,71.353C231.059,74.581 232.715,78.603 232.715,83.417C232.715,88.77 230.692,92.968 226.641,96.013C222.59,99.058 217.139,100.579 210.286,100.579C205.528,100.579 201.196,99.708 197.288,97.967C193.379,96.225 190.399,93.839 188.344,90.809C186.292,87.778 185.266,84.267 185.266,80.273L198.051,80.273C198.051,87.099 202.129,90.511 210.286,90.511C213.317,90.511 215.682,89.896 217.381,88.663C219.081,87.432 219.93,85.711 219.93,83.502Z" style="fill:rgb(49,137,201);fill-rule:nonzero;"/>
    </g>
</svg>
