<svg xmlns="http://www.w3.org/2000/svg" width="58" height="58" viewBox="0 0 58 58"><defs><style>.a{fill:#fff;}.b{fill:none;}</style></defs><path class="a" d="M46.958,15.737v8.215s-5.467.027-5.495,0V15.737H33.221s.027-5.467,0-5.495h8.242V2h5.495v8.242H55.2v5.495ZM38.716,26.726V18.484H30.474V10.242H8.495A5.511,5.511,0,0,0,3,15.737V48.705A5.511,5.511,0,0,0,8.495,54.2H41.463a5.511,5.511,0,0,0,5.495-5.495V26.726ZM8.495,48.705l8.242-10.989,5.495,8.242,8.242-10.989L41.463,48.705Z" transform="translate(0.48 0.32)"/><path class="b" d="M0,0H58V58H0Z"/></svg>