<svg xmlns="http://www.w3.org/2000/svg" width="70.081" height="70.081" viewBox="0 0 70.081 70.081"><defs><style>.a{fill:#fff;}.b{fill:none;}</style></defs><path class="a" d="M2,23.06A16.051,16.051,0,0,1,18.06,7H48.721a11.68,11.68,0,1,1,0,23.36H23.9a7.3,7.3,0,0,1,0-14.6H45.8V21.6H23.638c-1.606,0-1.606,2.92,0,2.92H48.721a5.84,5.84,0,1,0,0-11.68H18.06a10.22,10.22,0,0,0,0,20.44H45.8v5.84H18.06A16.051,16.051,0,0,1,2,23.06Z" transform="translate(3.84 13.44)"/><path class="b" d="M0,0H70.081V70.081H0Z"/></svg>