<svg xmlns="http://www.w3.org/2000/svg" width="55.76" height="55.76" viewBox="0 0 55.76 55.76"><defs><style>.a{fill:none;}.b{fill:#fff;}</style></defs><path class="a" d="M0,0H55.76V55.76H0Z"/><path class="b" d="M51.475,42.688,30.333,21.545A14.911,14.911,0,0,0,26.848,5.515,15.359,15.359,0,0,0,9.655,2.494l9.99,9.99-6.97,6.97L2.453,9.464a14.973,14.973,0,0,0,3.02,17.193A14.911,14.911,0,0,0,21.5,30.142L42.646,51.284a2.246,2.246,0,0,0,3.253,0l5.344-5.344a2.093,2.093,0,0,0,.232-3.253Z" transform="translate(1.265 1.455)"/></svg>