<svg xmlns="http://www.w3.org/2000/svg" width="58.678" height="58.678" viewBox="0 0 58.678 58.678"><defs><style>.a{fill:none;}.b{fill:#fff;}</style></defs><path class="a" d="M0,0H58.678V58.678H0Z"/><path class="b" d="M23.559,45.008a4.89,4.89,0,1,0,4.89,4.89A4.9,4.9,0,0,0,23.559,45.008ZM8.89,1a4.89,4.89,0,1,0,4.89,4.89A4.9,4.9,0,0,0,8.89,1Zm0,14.669a4.89,4.89,0,1,0,4.89,4.89A4.9,4.9,0,0,0,8.89,15.669Zm0,14.669a4.89,4.89,0,1,0,4.89,4.89A4.9,4.9,0,0,0,8.89,30.339ZM38.229,10.78a4.89,4.89,0,1,0-4.89-4.89A4.9,4.9,0,0,0,38.229,10.78ZM23.559,30.339a4.89,4.89,0,1,0,4.89,4.89A4.9,4.9,0,0,0,23.559,30.339Zm14.669,0a4.89,4.89,0,1,0,4.89,4.89A4.9,4.9,0,0,0,38.229,30.339Zm0-14.669a4.89,4.89,0,1,0,4.89,4.89A4.9,4.9,0,0,0,38.229,15.669Zm-14.669,0a4.89,4.89,0,1,0,4.89,4.89A4.9,4.9,0,0,0,23.559,15.669ZM23.559,1a4.89,4.89,0,1,0,4.89,4.89A4.9,4.9,0,0,0,23.559,1Z" transform="translate(5.78 1.445)"/></svg>