<svg xmlns="http://www.w3.org/2000/svg" width="61.487" height="61.487" viewBox="0 0 61.487 61.487"><defs><style>.a{fill:#fff;}.b{fill:none;}</style></defs><path class="a" d="M38.867,29.181H26.058v12.81h12.81ZM36.305,1V6.124H15.81V1H10.686V6.124H8.124a5.1,5.1,0,0,0-5.1,5.124L3,47.115a5.122,5.122,0,0,0,5.124,5.124H43.991a5.139,5.139,0,0,0,5.124-5.124V11.248a5.139,5.139,0,0,0-5.124-5.124H41.429V1Zm7.686,46.115H8.124V18.934H43.991Z" transform="translate(4.686 1.562)"/><path class="b" d="M0,0H61.487V61.487H0Z"/></svg>