<svg xmlns="http://www.w3.org/2000/svg" width="68" height="68" viewBox="0 0 68 68"><defs><style>.a{fill:none;}.b{fill:#fff;}</style></defs><g transform="translate(0 -0.149)"><g transform="translate(0 0.149)"><rect class="a" width="68" height="68"/></g><g transform="translate(8.185 5.403)"><path class="b" d="M41.2,43.8H8.457V10.457h19.1V5H8.457A5.473,5.473,0,0,0,3,10.457V43.2a5.473,5.473,0,0,0,5.457,5.457H41.2A5.473,5.473,0,0,0,46.655,43.2V24.1H41.2Z" transform="translate(-3 5.905)"/><path class="b" d="M27.642,2H22.185v8.185H14c.027.027,0,5.457,0,5.457h8.185V23.8c.027.027,5.457,0,5.457,0V15.642h8.185V10.185H27.642Z" transform="translate(18.733 -2)"/><rect class="b" width="21.76" height="5.44" transform="translate(11.836 20.352)"/><path class="b" d="M7,12v5.457H28.827V12H7Z" transform="translate(4.903 16.884)"/><rect class="b" width="21.76" height="5.44" transform="translate(11.836 37.629)"/></g></g></svg>