<?xml version="1.0" standalone="no"?>
<!DOCTYPE svg PUBLIC "-//W3C//DTD SVG 1.1//EN" "http://www.w3.org/Graphics/SVG/1.1/DTD/svg11.dtd" >
<svg xmlns="http://www.w3.org/2000/svg">
<metadata>Generated by IcoMoon</metadata>
<defs>
<font id="master_touchtable_big" horiz-adv-x="1024">
<font-face units-per-em="1024" ascent="960" descent="-64" />
<missing-glyph horiz-adv-x="1024" />
<glyph unicode="&#x20;" horiz-adv-x="512" d="" />
<glyph unicode="&#xe900;" glyph-name="drag" d="M476.386 666.149c0-41.803-31.906-75.678-71.236-75.678s-71.236 33.89-71.236 75.678c0 41.803 31.906 75.678 71.236 75.678s71.236-33.89 71.236-75.678zM690.078 666.149c0-41.803-31.902-75.678-71.236-75.678s-71.236 33.89-71.236 75.678c0 41.803 31.902 75.678 71.236 75.678s71.236-33.89 71.236-75.678zM476.386 884.322c0-41.803-31.906-75.682-71.236-75.682s-71.236 33.89-71.236 75.682c0 41.803 31.906 75.678 71.236 75.678s71.236-33.89 71.236-75.678zM690.078 884.322c0-41.803-31.902-75.682-71.236-75.682s-71.236 33.89-71.236 75.682c0 41.803 31.902 75.678 71.236 75.678s71.236-33.89 71.236-75.678zM476.386 448c0-41.803-31.906-75.678-71.236-75.678s-71.236 33.89-71.236 75.678c0 41.803 31.906 75.678 71.236 75.678s71.236-33.89 71.236-75.678zM690.078 448c0-41.803-31.902-75.678-71.236-75.678s-71.236 33.89-71.236 75.678c0 41.803 31.902 75.678 71.236 75.678s71.236-33.89 71.236-75.678zM476.386 229.851c0-41.803-31.906-75.678-71.236-75.678s-71.236 33.89-71.236 75.678c0 41.803 31.906 75.678 71.236 75.678s71.236-33.89 71.236-75.678zM690.078 229.851c0-41.803-31.902-75.678-71.236-75.678s-71.236 33.89-71.236 75.678c0 41.803 31.902 75.678 71.236 75.678s71.236-33.89 71.236-75.678zM476.386 11.678c0-41.803-31.906-75.678-71.236-75.678s-71.236 33.89-71.236 75.678c0 41.803 31.906 75.678 71.236 75.678s71.236-33.89 71.236-75.678zM690.078 11.678c0-41.803-31.902-75.678-71.236-75.678s-71.236 33.89-71.236 75.678c0 41.803 31.902 75.678 71.236 75.678s71.236-33.89 71.236-75.678z" />
<glyph unicode="&#xe901;" glyph-name="info" d="M711.115-64v51.2c-91.029 11.371-102.4 22.752-102.4 125.152v529.056c-85.344-22.752-187.744-45.515-284.448-56.885v-45.515c73.952-11.371 85.344-17.056 85.344-119.456v-307.2c0-108.085-11.371-119.456-102.4-125.152v-51.2h403.915zM500.629 743.829c62.571 0 113.771 51.2 113.771 108.085 0 62.571-45.515 108.085-108.085 108.085-56.885 0-108.085-45.515-108.085-108.085-11.371-62.571 39.829-108.085 102.4-108.085z" />
<glyph unicode="&#xe902;" glyph-name="turnarticle" d="M512-80.23c-248.579 0-450.549 201.97-450.549 450.549 0 7.768 0 15.536 0 23.304l85.449-7.768c0-7.768 0-15.536 0-23.304 0-194.202 163.13-357.332 357.332-357.332s357.332 163.13 357.332 357.332-163.13 357.332-357.332 357.332v85.449c248.579 0 450.549-201.97 450.549-450.549s-194.202-435.013-442.781-435.013zM278.957 712.115c-46.609 31.072-46.609 77.681 0 108.753l155.362 108.753c46.609 31.072 77.681 7.768 77.681-38.84v-233.043c0-54.377-38.84-69.913-77.681-38.84l-155.362 93.217z" />
<glyph unicode="&#xe903;" d="M45.624 402.376h932.752c25.347 0 45.624 20.277 45.624 45.624s-20.277 45.624-45.624 45.624h-932.752c-25.347 0-45.624-20.277-45.624-45.624s20.277-45.624 45.624-45.624zM978.376 204.673h-932.752c-25.347 0-45.624-20.277-45.624-45.624s20.277-45.624 45.624-45.624h932.752c25.347 0 45.624 20.277 45.624 45.624s-20.277 45.624-45.624 45.624z" />
<glyph unicode="&#xe904;" d="M978.376 691.327h-932.752c-25.347 0-45.624 20.277-45.624 45.624s20.277 45.624 45.624 45.624h932.752c25.347 0 45.624-20.277 45.624-45.624s-20.277-45.624-45.624-45.624z" />
<glyph unicode="&#xe905;" glyph-name="burgermenu_alt" d="M978.376 691.325h-932.749c-25.346 0-45.624 20.278-45.624 45.624s20.278 45.624 45.624 45.624h932.749c25.346 0 45.624-20.278 45.624-45.624s-20.278-45.624-45.624-45.624zM45.624 402.376h932.749c25.346 0 45.624 20.278 45.624 45.624s-20.278 45.624-45.624 45.624h-932.749c-25.346 0-45.624-20.278-45.624-45.624s20.278-45.624 45.624-45.624zM978.376 204.675h-932.749c-25.346 0-45.624-20.278-45.624-45.624s20.278-45.624 45.624-45.624h932.749c25.346 0 45.624 20.278 45.624 45.624s-20.278 45.624-45.624 45.624z" />
<glyph unicode="&#xe906;" glyph-name="cross1" d="M996.693 850.773l-887.467-887.467c-27.307-27.307-61.44-27.307-88.747 0s-27.307 61.44 0 88.747l887.467 887.467c27.307 27.307 61.44 27.307 88.747 0s27.307-68.267 0-88.747zM914.773-36.693l-887.467 887.467c-27.307 27.307-27.307 61.44 0 88.747s61.44 27.307 88.747 0l887.467-887.467c27.307-27.307 27.307-61.44 0-88.747s-68.267-27.307-88.747 0z" />
<glyph unicode="&#xe907;" glyph-name="cross2" d="M917.476-33.074l-893.423 893.423c-27.49 27.49-27.49 61.852 0 89.342s61.852 27.49 89.342 0l893.423-893.423c27.49-27.49 27.49-61.852 0-89.342-27.49-20.617-68.725-20.617-89.342 0zM24.054 56.268l893.423 893.423c27.49 27.49 61.852 27.49 89.342 0s27.49-61.852 0-89.342l-893.423-893.423c-27.49-27.49-61.852-27.49-89.342 0s-27.49 68.725 0 89.342z" />
<glyph unicode="&#xe908;" d="M353.24 888.558c146.853 0 265.923-119.070 265.923-265.923s-119.070-265.923-265.923-265.923-265.923 119.070-265.923 265.923 119.070 265.923 265.923 265.923zM353.24 960c-186.543 0-337.364-150.822-337.364-337.364s150.822-333.395 337.364-333.395 337.364 150.822 337.364 337.364-154.791 333.395-337.364 333.395v0z" />
<glyph unicode="&#xe909;" d="M1008.124 98.729l-158.76-162.729-277.829 365.147 71.442 71.442z" />
<glyph unicode="&#xe90a;" glyph-name="resize" d="M-1.174 77.946l875.123 875.123 77.447-77.447-875.123-875.123-77.447 77.447zM398.266 15.983l542.109 542.109 77.447-77.447-542.109-542.109-77.447 77.447zM790.492 15.977l154.887 154.887 77.447-77.447-154.887-154.887-77.447 77.447z" />
<glyph unicode="&#xe90b;" d="M735.179 10.393c-4.376 13.128-13.128 21.88-13.128 35.009-4.376 13.128-8.752 21.88-26.256 21.88-13.128 0-26.256 4.376-43.761 4.376-8.752 0-17.504 0-21.88-8.752s-8.752-17.504-13.128-21.88c-4.376-8.752-13.128-13.128-21.88-8.752-21.88 13.128-43.761 21.88-61.265 35.009-8.752 4.376-8.752 13.128-4.376 26.256 4.376 8.752 8.752 17.504 13.128 26.256s4.376 13.128 0 21.88c-8.752 13.128-21.88 26.256-30.632 39.385-4.376 8.752-13.128 8.752-21.88 8.752-8.752-4.376-17.504-4.376-26.256-8.752s-17.504 0-21.88 13.128c-8.752 21.88-13.128 48.137-17.504 70.017-4.376 8.752 4.376 17.504 13.128 17.504 8.752 4.376 17.504 4.376 26.256 8.752 8.752 0 13.128 8.752 13.128 17.504 0 17.504 4.376 30.632 4.376 48.137 0 8.752 0 17.504-8.752 21.88s-17.504 8.752-26.256 13.128c-8.752 4.376-13.128 13.128-8.752 21.88 13.128 21.88 21.88 43.761 35.009 61.265 4.376 8.752 13.128 8.752 21.88 4.376s17.504-8.752 26.256-13.128c8.752-4.376 13.128-4.376 21.88 0 13.128 8.752 26.256 21.88 39.385 30.632 4.376 4.376 8.752 8.752 8.752 17.504-4.376 8.752-4.376 17.504-8.752 26.256s0 17.504 8.752 21.88c21.88 8.752 48.137 13.128 74.393 21.88 8.752 0 17.504-4.376 17.504-13.128 4.376-8.752 4.376-17.504 8.752-26.256 0-8.752 8.752-13.128 17.504-13.128 17.504 0 30.632-4.376 48.137-4.376 8.752 0 17.504 0 21.88 8.752s8.752 17.504 13.128 26.256c4.376 8.752 13.128 13.128 21.88 8.752 21.88-13.128 43.761-26.256 65.641-39.385 8.752-4.376 8.752-13.128 4.376-21.88s-8.752-17.504-13.128-26.256c-4.376-8.752-4.376-13.128 0-21.88 8.752-13.128 21.88-26.256 30.632-39.385 4.376-8.752 13.128-8.752 21.88-8.752 8.752 4.376 17.504 4.376 26.256 8.752s17.504 0 21.88-8.752c8.752-21.88 13.128-48.137 21.88-74.393 4.376-8.752-4.376-17.504-13.128-17.504-8.752-4.376-17.504-4.376-26.256-8.752-8.752 0-13.128-8.752-13.128-13.128 0-17.504-4.376-35.009-8.752-52.513 0-8.752 0-13.128 8.752-17.504s17.504-8.752 26.256-13.128c8.752-4.376 13.128-13.128 8.752-21.88-13.128-21.88-21.88-43.761-35.009-61.265-4.376-8.752-13.128-8.752-21.88-4.376s-17.504 8.752-26.256 13.128c-8.752 4.376-13.128 4.376-21.88 0-13.128-8.752-26.256-21.88-39.385-30.632-8.752-4.376-8.752-13.128-8.752-21.88 4.376-8.752 4.376-17.504 8.752-26.256 4.376-13.128 0-21.88-13.128-26.256-17.504-4.376-35.009-8.752-52.513-17.504-4.376 0-4.376 0-8.752-4.376-8.752-4.376-13.128-4.376-21.88-4.376zM708.923 456.752c-87.521 0-161.915-74.393-161.915-161.915s74.393-157.538 161.915-157.538c87.521 0 157.538 74.393 157.538 157.538 0 87.521-70.017 161.915-157.538 161.915z" />
<glyph unicode="&#xe90c;" d="M498.872 106.667c4.376 4.376 4.376 8.752 8.752 13.128-4.376 8.752-8.752 13.128-17.504 21.88-4.376 0-8.752-4.376-13.128-4.376h-4.376c-30.632-8.752-56.889 8.752-65.641 35.009s-13.128 48.137-17.504 70.017c-8.752 26.256 8.752 56.889 39.385 65.641 4.376 0 13.128 4.376 17.504 4.376 0 8.752 0 17.504 4.376 26.256-4.376 4.376-8.752 4.376-17.504 8.752-26.256 17.504-35.009 48.137-21.88 70.017 13.128 26.256 26.256 43.761 35.009 65.641 17.504 26.256 43.761 35.009 74.393 17.504l4.376-4.376c4.376 0 8.752-4.376 8.752-4.376 8.752 4.376 13.128 8.752 21.88 17.504 0 0 0 4.376 0 4.376 0 4.376 0 8.752-4.376 8.752-8.752 30.632 4.376 56.889 35.009 65.641 26.256 8.752 48.137 13.128 74.393 21.88 21.88 4.376 48.137-4.376 56.889-26.256v301.949c0 39.385-30.632 70.017-70.017 70.017h-547.009c-39.385 0-70.017-30.632-70.017-70.017v-551.385c0-17.504 4.376-35.009 17.504-43.761v0 0c0 0 0 0 0 0l323.829-358.838 118.154 126.906c-4.376 21.88 0 35.009 8.752 48.137z" />
<glyph unicode="&#xe90d;" d="M735.179 10.393c-4.376 13.128-13.128 21.88-13.128 35.009-4.376 13.128-8.752 21.88-26.256 21.88-13.128 0-26.256 4.376-43.761 4.376-8.752 0-17.504 0-21.88-8.752s-8.752-17.504-13.128-21.88c-4.376-8.752-13.128-13.128-21.88-8.752-21.88 13.128-43.761 21.88-61.265 35.009-8.752 4.376-8.752 13.128-4.376 26.256 4.376 8.752 8.752 17.504 13.128 26.256s4.376 13.128 0 21.88c-8.752 13.128-21.88 26.256-30.632 39.385-4.376 8.752-13.128 8.752-21.88 8.752-8.752-4.376-17.504-4.376-26.256-8.752s-17.504 0-21.88 13.128c-8.752 21.88-13.128 48.137-17.504 70.017-4.376 8.752 4.376 17.504 13.128 17.504 8.752 4.376 17.504 4.376 26.256 8.752 8.752 0 13.128 8.752 13.128 17.504 0 17.504 4.376 30.632 4.376 48.137 0 8.752 0 17.504-8.752 21.88s-17.504 8.752-26.256 13.128c-8.752 4.376-13.128 13.128-8.752 21.88 13.128 21.88 21.88 43.761 35.009 61.265 4.376 8.752 13.128 8.752 21.88 4.376s17.504-8.752 26.256-13.128c8.752-4.376 13.128-4.376 21.88 0 13.128 8.752 26.256 21.88 39.385 30.632 4.376 4.376 8.752 8.752 8.752 17.504-4.376 8.752-4.376 17.504-8.752 26.256s0 17.504 8.752 21.88c21.88 8.752 48.137 13.128 74.393 21.88 8.752 0 17.504-4.376 17.504-13.128 4.376-8.752 4.376-17.504 8.752-26.256 0-8.752 8.752-13.128 17.504-13.128 17.504 0 30.632-4.376 48.137-4.376 8.752 0 17.504 0 21.88 8.752s8.752 17.504 13.128 26.256c4.376 8.752 13.128 13.128 21.88 8.752 21.88-13.128 43.761-26.256 65.641-39.385 8.752-4.376 8.752-13.128 4.376-21.88s-8.752-17.504-13.128-26.256c-4.376-8.752-4.376-13.128 0-21.88 8.752-13.128 21.88-26.256 30.632-39.385 4.376-8.752 13.128-8.752 21.88-8.752 8.752 4.376 17.504 4.376 26.256 8.752s17.504 0 21.88-8.752c8.752-21.88 13.128-48.137 21.88-74.393 4.376-8.752-4.376-17.504-13.128-17.504-8.752-4.376-17.504-4.376-26.256-8.752-8.752 0-13.128-8.752-13.128-13.128 0-17.504-4.376-35.009-8.752-52.513 0-8.752 0-13.128 8.752-17.504s17.504-8.752 26.256-13.128c8.752-4.376 13.128-13.128 8.752-21.88-13.128-21.88-21.88-43.761-35.009-61.265-4.376-8.752-13.128-8.752-21.88-4.376s-17.504 8.752-26.256 13.128c-8.752 4.376-13.128 4.376-21.88 0-13.128-8.752-26.256-21.88-39.385-30.632-8.752-4.376-8.752-13.128-8.752-21.88 4.376-8.752 4.376-17.504 8.752-26.256 4.376-13.128 0-21.88-13.128-26.256-17.504-4.376-35.009-8.752-52.513-17.504-4.376 0-4.376 0-8.752-4.376-8.752-4.376-13.128-4.376-21.88-4.376zM708.923 456.752c-87.521 0-161.915-74.393-161.915-161.915s74.393-157.538 161.915-157.538c87.521 0 157.538 74.393 157.538 157.538 0 87.521-70.017 161.915-157.538 161.915z" />
<glyph unicode="&#xe90e;" d="M498.872 106.667c4.376 4.376 4.376 8.752 8.752 13.128-4.376 8.752-8.752 13.128-17.504 21.88-4.376 0-8.752-4.376-13.128-4.376h-4.376c-30.632-8.752-56.889 8.752-65.641 35.009s-13.128 48.137-17.504 70.017c-8.752 26.256 8.752 56.889 39.385 65.641 4.376 0 13.128 4.376 17.504 4.376 0 8.752 0 17.504 4.376 26.256-4.376 4.376-8.752 4.376-17.504 8.752-26.256 17.504-35.009 48.137-21.88 70.017 13.128 26.256 26.256 43.761 35.009 65.641 17.504 26.256 43.761 35.009 74.393 17.504l4.376-4.376c4.376 0 8.752-4.376 8.752-4.376 8.752 4.376 13.128 8.752 21.88 17.504 0 0 0 4.376 0 4.376 0 4.376 0 8.752-4.376 8.752-8.752 30.632 4.376 56.889 35.009 65.641 26.256 8.752 48.137 13.128 74.393 21.88 21.88 4.376 48.137-4.376 56.889-26.256v301.949c0 39.385-30.632 70.017-70.017 70.017h-547.009c-39.385 0-70.017-30.632-70.017-70.017v-551.385c0-17.504 4.376-35.009 17.504-43.761v0 0c0 0 0 0 0 0l323.829-358.838 118.154 126.906c-4.376 21.88 0 35.009 8.752 48.137z" />
<glyph unicode="&#xe90f;" d="M564.573-63.391c-9.559 19.117-23.897 43.014-28.676 62.132-4.779 23.897-19.117 33.455-43.014 38.235-23.897 0-47.794 4.779-76.47 9.559-19.117 4.779-28.676 0-38.235-19.117-4.779-14.338-14.338-28.676-23.897-43.014-9.559-19.117-23.897-23.897-43.014-14.338-38.235 19.117-76.47 43.014-109.925 62.132-19.117 9.559-19.117 28.676-9.559 43.014s14.338 28.676 23.897 43.014c9.559 14.338 4.779 23.897-4.779 38.235-19.117 23.897-38.235 47.794-52.573 71.69-9.559 14.338-19.117 19.117-38.235 14.338-14.338-4.779-33.455-9.559-47.794-14.338-19.117-4.779-33.455 0-38.235 19.117-14.338 43.014-23.897 81.249-33.455 124.263-4.779 19.117 4.779 28.676 23.897 33.455s33.455 9.559 52.573 14.338c19.117 4.779 23.897 14.338 23.897 28.676 4.779 28.676 4.779 57.352 9.559 86.028 4.779 14.338 0 28.676-19.117 38.235-14.338 9.559-28.676 14.338-43.014 23.897s-23.897 23.897-14.338 43.014c19.117 38.235 43.014 76.47 66.911 114.704 9.559 14.338 23.897 19.117 43.014 9.559 14.338-9.559 28.676-14.338 43.014-23.897s23.897-9.559 38.235 4.779c23.897 19.117 47.794 38.235 71.69 57.352 9.559 9.559 19.117 19.117 14.338 33.455-4.779 19.117-9.559 33.455-14.338 52.573s0 33.455 19.117 38.235c43.014 14.338 86.028 23.897 129.043 33.455 14.338 4.779 28.676-4.779 33.455-23.897s9.559-33.455 14.338-52.573c4.779-14.338 14.338-23.897 28.676-23.897 28.676-4.779 57.352-4.779 86.028-9.559 19.117-4.779 28.676 0 38.235 19.117 9.559 14.338 14.338 28.676 23.897 43.014s23.897 19.117 38.235 14.338c38.235-19.117 81.249-43.014 119.484-66.911 14.338-9.559 14.338-23.897 4.779-43.014-9.559-14.338-19.117-28.676-23.897-47.794-9.559-9.559-9.559-19.117 0-33.455 19.117-23.897 38.235-47.794 57.352-71.69 9.559-14.338 19.117-19.117 33.455-14.338s33.455 9.559 47.794 14.338c19.117 4.779 33.455 0 38.235-19.117 14.338-43.014 23.897-86.028 33.455-129.043 4.779-19.117-4.779-28.676-23.897-33.455s-33.455-9.559-52.573-14.338c-14.338-4.779-19.117-14.338-23.897-28.676-4.779-28.676-9.559-62.132-9.559-90.808 0-14.338 0-28.676 14.338-33.455 14.338-9.559 28.676-14.338 43.014-23.897s23.897-23.897 14.338-43.014c-19.117-38.235-43.014-76.47-66.911-114.704-9.559-14.338-23.897-19.117-43.014-9.559-14.338 9.559-28.676 19.117-47.794 23.897 0 14.338-9.559 14.338-23.897 4.779-23.897-19.117-47.794-38.235-71.69-57.352-14.338-9.559-19.117-19.117-14.338-33.455s9.559-28.676 9.559-43.014 4.779-38.235-23.897-47.794c-28.676-9.559-62.132-19.117-95.587-28.676-4.779 0-9.559-4.779-14.338-4.779s-14.338 0-23.897 0zM512 734.761c-157.719 0-286.761-129.043-286.761-286.761s129.043-286.761 286.761-286.761c157.719 0 286.761 129.043 286.761 286.761s-129.043 286.761-286.761 286.761z" />
<glyph unicode="&#xe910;" d="M512 663.071c-119.484 0-215.071-95.587-215.071-215.071s95.587-215.071 215.071-215.071 215.071 95.587 215.071 215.071-95.587 215.071-215.071 215.071zM512 290.281c-86.028 0-157.719 71.69-157.719 157.719s71.69 157.719 157.719 157.719 157.719-71.69 157.719-157.719-71.69-157.719-157.719-157.719z" />
<glyph unicode="&#xe911;" d="M564.573-63.391c-9.559 19.117-23.897 43.014-28.676 62.132-4.779 23.897-19.117 33.455-43.014 38.235-23.897 0-47.794 4.779-76.47 9.559-19.117 4.779-28.676 0-38.235-19.117-4.779-14.338-14.338-28.676-23.897-43.014-9.559-19.117-23.897-23.897-43.014-14.338-38.235 19.117-76.47 43.014-109.925 62.132-19.117 9.559-19.117 28.676-9.559 43.014s14.338 28.676 23.897 43.014c9.559 14.338 4.779 23.897-4.779 38.235-19.117 23.897-38.235 47.794-52.573 71.69-9.559 14.338-19.117 19.117-38.235 14.338-14.338-4.779-33.455-9.559-47.794-14.338-19.117-4.779-33.455 0-38.235 19.117-14.338 43.014-23.897 81.249-33.455 124.263-4.779 19.117 4.779 28.676 23.897 33.455s33.455 9.559 52.573 14.338c19.117 4.779 23.897 14.338 23.897 28.676 4.779 28.676 4.779 57.352 9.559 86.028 4.779 14.338 0 28.676-19.117 38.235-14.338 9.559-28.676 14.338-43.014 23.897s-23.897 23.897-14.338 43.014c19.117 38.235 43.014 76.47 66.911 114.704 9.559 14.338 23.897 19.117 43.014 9.559 14.338-9.559 28.676-14.338 43.014-23.897s23.897-9.559 38.235 4.779c23.897 19.117 47.794 38.235 71.69 57.352 9.559 9.559 19.117 19.117 14.338 33.455-4.779 19.117-9.559 33.455-14.338 52.573s0 33.455 19.117 38.235c43.014 14.338 86.028 23.897 129.043 33.455 14.338 4.779 28.676-4.779 33.455-23.897s9.559-33.455 14.338-52.573c4.779-14.338 14.338-23.897 28.676-23.897 28.676-4.779 57.352-4.779 86.028-9.559 19.117-4.779 28.676 0 38.235 19.117 9.559 14.338 14.338 28.676 23.897 43.014s23.897 19.117 38.235 14.338c38.235-19.117 81.249-43.014 119.484-66.911 14.338-9.559 14.338-23.897 4.779-43.014-9.559-14.338-19.117-28.676-23.897-47.794-9.559-9.559-9.559-19.117 0-33.455 19.117-23.897 38.235-47.794 57.352-71.69 9.559-14.338 19.117-19.117 33.455-14.338s33.455 9.559 47.794 14.338c19.117 4.779 33.455 0 38.235-19.117 14.338-43.014 23.897-86.028 33.455-129.043 4.779-19.117-4.779-28.676-23.897-33.455s-33.455-9.559-52.573-14.338c-14.338-4.779-19.117-14.338-23.897-28.676-4.779-28.676-9.559-62.132-9.559-90.808 0-14.338 0-28.676 14.338-33.455 14.338-9.559 28.676-14.338 43.014-23.897s23.897-23.897 14.338-43.014c-19.117-38.235-43.014-76.47-66.911-114.704-9.559-14.338-23.897-19.117-43.014-9.559-14.338 9.559-28.676 19.117-47.794 23.897 0 14.338-9.559 14.338-23.897 4.779-23.897-19.117-47.794-38.235-71.69-57.352-14.338-9.559-19.117-19.117-14.338-33.455s9.559-28.676 9.559-43.014 4.779-38.235-23.897-47.794c-28.676-9.559-62.132-19.117-95.587-28.676-4.779 0-9.559-4.779-14.338-4.779s-14.338 0-23.897 0zM512 734.761c-157.719 0-286.761-129.043-286.761-286.761s129.043-286.761 286.761-286.761c157.719 0 286.761 129.043 286.761 286.761s-129.043 286.761-286.761 286.761z" />
<glyph unicode="&#xe912;" d="M512 663.071c-119.484 0-215.071-95.587-215.071-215.071s95.587-215.071 215.071-215.071 215.071 95.587 215.071 215.071-95.587 215.071-215.071 215.071zM512 290.281c-86.028 0-157.719 71.69-157.719 157.719s71.69 157.719 157.719 157.719 157.719-71.69 157.719-157.719-71.69-157.719-157.719-157.719z" />
<glyph unicode="&#xe913;" d="M702.413 904.992h-702.413v-512h122.711l-33.851-215.802 279.273 215.802h334.281z" />
<glyph unicode="&#xe914;" d="M1024 613.025h-262.347v-279.273h-334.281v-160.793h283.504l236.959-181.95-29.62 181.95h105.785z" />
<glyph unicode="&#xe915;" d="M21.157 232.198c21.157-16.926 76.165-38.083 135.405-38.083 105.785 0 139.636 67.702 135.405 118.479 0 84.628-76.165 122.711-156.562 122.711h-46.545v63.471h46.545c59.24 0 135.405 29.62 135.405 101.554 0 46.545-29.62 93.091-105.785 93.091-46.545 0-93.091-21.157-122.711-38.083l-21.157 59.24c29.62 21.157 93.091 46.545 156.562 46.545 118.479 0 173.488-71.934 173.488-143.868 0-63.471-38.083-114.248-110.017-143.868v0c76.165-16.926 135.405-71.934 135.405-156.562 0-97.322-76.165-181.95-220.033-181.95-67.702 0-126.942 21.157-156.562 42.314l21.157 55.008z" />
<glyph unicode="&#xe916;" d="M507.769 756.893c50.777 8.463 110.017 12.694 173.488 12.694 118.479 0 198.876-25.388 253.884-76.165s88.86-122.711 88.86-224.264c0-101.554-29.62-186.182-88.86-245.422s-156.562-88.86-279.273-88.86c-59.24 0-105.785 4.231-148.099 8.463v613.554zM588.165 202.578c21.157-4.231 50.777-4.231 80.397-4.231 173.488 0 266.579 97.322 266.579 266.579 0 148.099-84.628 241.19-253.884 241.19-42.314 0-71.934-4.231-93.091-8.463v-495.074z" />
<glyph unicode="&#xe917;" d="M21.157 232.198c21.157-16.926 76.165-38.083 135.405-38.083 105.785 0 139.636 67.702 135.405 118.479 0 84.628-76.165 122.711-156.562 122.711h-46.545v63.471h46.545c59.24 0 135.405 29.62 135.405 101.554 0 46.545-29.62 93.091-105.785 93.091-46.545 0-93.091-21.157-122.711-38.083l-21.157 59.24c29.62 21.157 93.091 46.545 156.562 46.545 118.479 0 173.488-71.934 173.488-143.868 0-63.471-38.083-114.248-110.017-143.868v0c76.165-16.926 135.405-71.934 135.405-156.562 0-97.322-76.165-181.95-220.033-181.95-67.702 0-126.942 21.157-156.562 42.314l21.157 55.008z" />
<glyph unicode="&#xe918;" d="M507.769 756.893c50.777 8.463 110.017 12.694 173.488 12.694 118.479 0 198.876-25.388 253.884-76.165s88.86-122.711 88.86-224.264c0-101.554-29.62-186.182-88.86-245.422s-156.562-88.86-279.273-88.86c-59.24 0-105.785 4.231-148.099 8.463v613.554zM588.165 202.578c21.157-4.231 50.777-4.231 80.397-4.231 173.488 0 266.579 97.322 266.579 266.579 0 148.099-84.628 241.19-253.884 241.19-42.314 0-71.934-4.231-93.091-8.463v-495.074z" />
<glyph unicode="&#xe919;" d="M702.413 904.992h-702.413v-512h122.711l-33.851-215.802 279.273 215.802h334.281z" />
<glyph unicode="&#xe91a;" d="M1024 613.025h-262.347v-279.273h-334.281v-160.793h283.504l236.959-181.95-29.62 181.95h105.785z" />
<glyph unicode="&#xe91b;" glyph-name="checkbox" d="M503.675 194.081l45.789 29.138c54.114 116.553 137.366 241.431 241.431 374.634s199.805 233.106 287.22 299.707l-24.976 29.138c-99.902-58.276-203.967-141.528-312.195-249.756-104.065-108.228-191.48-220.618-262.244-333.008l-16.65 41.626c-37.463 83.252-70.764 124.878-104.065 124.878-37.463 0-74.927-20.813-120.715-66.602 24.976-8.325 49.951-24.976 70.764-54.114 20.813-24.976 41.626-66.602 66.602-124.878l16.65-37.463c16.65-41.626 29.138-74.927 33.301-91.577 16.65 12.488 41.626 33.301 79.089 58.276zM886.634 651.967v-578.602h-749.268v749.268h699.317c37.463 29.138 70.764 58.276 108.228 83.252h-890.797v-915.772h915.772v757.593c-24.976-29.138-54.114-58.276-83.252-95.74z" />
<glyph unicode="&#xe91c;" glyph-name="checkbox2" d="M1024-64h-1024v1024h1024v-1024zM93.091 29.091h837.818v837.818h-837.818v-837.818z" />
<glyph unicode="&#xe91d;" glyph-name="checkbox3" d="M186.182 960h93.091v-93.091h-93.091v93.091zM372.364 960h93.091v-93.091h-93.091v93.091zM558.545 960h93.091v-93.091h-93.091v93.091zM744.727 960h93.091v-93.091h-93.091v93.091zM930.909 960h93.091v-93.091h-93.091v93.091zM930.909 215.273h93.091v-93.091h-93.091v93.091zM930.909 587.636h93.091v-93.091h-93.091v93.091zM930.909 773.818h93.091v-93.091h-93.091v93.091zM930.909 401.455h93.091v-93.091h-93.091v93.091zM930.909 29.091h-837.818v930.909h-93.091v-1024h1024v93.091h-46.545z" />
<glyph unicode="&#xe91e;" glyph-name="left" d="M1024 485.236h-544.582v288.582l-479.418-330.473 479.418-321.164v269.964h544.582z" />
<glyph unicode="&#xe91f;" glyph-name="left2" d="M1024 485.236h-544.582v288.582l-479.418-330.473 479.418-321.164v269.964h544.582z" />
<glyph unicode="&#xe920;" glyph-name="right" d="M1024 452.655l-479.418 321.164v-269.964h-544.582v-93.091h544.582v-288.582z" />
<glyph unicode="&#xe921;" glyph-name="right2" d="M1024 452.655l-479.418 321.164v-269.964h-544.582v-93.091h544.582v-288.582z" />
<glyph unicode="&#xe922;" glyph-name="home" d="M512 960l-409.6-460.8v-563.2h307.2v237.568c0 32.8 26.592 59.392 59.392 59.392h86.016c32.8 0 59.392-26.592 59.392-59.392v0-237.568h307.2v563.2z" />
<glyph unicode="&#xe923;" glyph-name="fullscreen" d="M409.6 862.989l-398.821 75.453 75.453-404.211 140.126 140.126 188.632-188.632 59.284 59.284-188.632 188.632zM808.421 210.863l-188.632 188.632-59.284-59.284 188.632-188.632-140.126-140.126 404.211-75.453-75.453 398.821zM619.789 496.505l188.632 188.632 129.347-123.958 75.453 398.821-404.211-75.453 140.126-140.126-188.632-188.632zM414.989 410.274l-188.632-188.632-140.126 140.126-75.453-404.211 398.821 75.453-123.958 129.347 188.632 188.632z" />
<glyph unicode="&#xe924;" glyph-name="fullscreen2" d="M76.255 578.723l375.83-76.255-70.809 375.83-130.723-130.723-179.745 179.745-54.468-54.468 179.745-179.745zM762.553 126.638l185.191-190.638 59.915 59.915-185.191 185.191 136.17 141.617-397.617 70.809 76.255-392.17zM947.745 960l-185.191-190.638-125.277 125.277-76.255-392.17 397.617 70.809-136.17 141.617 185.191 185.191zM70.809-31.319l179.745 179.745 130.723-130.723 70.809 375.83-375.83-76.255 119.83-114.383-179.745-179.745z" />
<glyph unicode="&#xe925;" glyph-name="lock" d="M489.345 946.407c-280.92 0-512-226.549-512-512s226.549-512 512-512 512 226.549 512 512-231.080 512-512 512zM72.496 434.407c0 231.080 185.77 421.381 421.381 421.381 99.681 0 194.832-36.248 267.327-95.15l-589.027-589.027c-67.965 72.496-99.681 163.115-99.681 262.796zM489.345 17.557c-99.681 0-194.832 36.248-267.327 95.15l589.027 589.027c58.903-72.496 95.15-163.115 95.15-267.327 4.531-231.080-185.77-416.85-416.85-416.85z" />
<glyph unicode="&#xe926;" glyph-name="measureaera" d="M1016.8 163.606l-465.696 622.113-53.324-39.104 430.146-572.344h-828.299l145.752 195.521 99.538 131.532 99.538-74.654 10.665 270.175-252.4-88.873 88.873-63.989-95.983-131.532-188.411-248.845c-7.11-10.665-7.11-21.33-3.555-35.549 7.11-10.665 17.775-17.775 28.439-17.775h959.831c10.665 0 24.885 7.11 28.439 17.775 7.11 10.665 7.11 24.885-3.555 35.549z" />
<glyph unicode="&#xe927;" glyph-name="measuredistance" d="M1024 448l-190.676 130.648v-109.462h-642.648v109.462l-190.676-130.648 190.676-130.648v95.338h642.648v-95.338z" />
<glyph unicode="&#xe928;" glyph-name="turnmap" d="M151.637 808.363c-196.080-196.080-201.379-514.047-10.599-715.426l-111.289-111.289h296.769v296.769l-111.289-111.289c-148.385 158.984-148.385 408.058 10.599 567.042 90.091 90.091 211.978 127.187 328.566 116.588l5.299 105.989c-148.385 15.898-296.769-37.096-408.058-148.385zM909.459 771.267l111.289 111.289h-296.769v-296.769l111.289 111.289c121.887-158.984 111.289-386.86-37.096-535.245-79.492-79.492-190.78-121.887-296.769-116.588l-5.299-105.989c137.786-5.299 275.572 42.396 381.561 148.385 185.481 185.481 196.080 482.25 31.797 683.63z" />
</font>
</defs>
</svg>
