<?xml version="1.0" encoding="UTF-8"?>
<svg width="1486px" height="884px" viewBox="0 0 1486 884" version="1.1" xmlns="http://www.w3.org/2000/svg" xmlns:xlink="http://www.w3.org/1999/xlink">
    <!-- Generator: Sketch 58 (84663) - https://sketch.com -->
    <title>without-release</title>
    <desc>Created with Sketch.</desc>
    <g id="without-release" stroke="none" stroke-width="1" fill="none" fill-rule="evenodd">
        <g id="Commit" transform="translate(110.000000, 208.000000)" fill="#4175EC" stroke="#072873" stroke-width="4">
            <circle id="Oval" cx="20" cy="20" r="20"></circle>
        </g>
        <g id="Group-7" transform="translate(450.000000, 651.000000)">
            <g id="Commit" fill="#4175EC" stroke="#072873" stroke-width="4">
                <circle id="Oval" cx="20" cy="20" r="20"></circle>
            </g>
            <text id="master" font-family="HelveticaNeue, Helvetica Neue" font-size="24" font-weight="normal" fill="#000000" fill-opacity="0.799852491">
                <tspan x="55" y="29">master</tspan>
            </text>
        </g>
        <g id="Group-8" transform="translate(451.000000, 698.000000)">
            <g id="Commit" fill="#FADF4E" stroke="#DAB803" stroke-width="4">
                <circle id="Oval" cx="20" cy="20" r="20"></circle>
            </g>
            <text id="dev" font-family="HelveticaNeue, Helvetica Neue" font-size="24" font-weight="normal" fill="#000000" fill-opacity="0.799852491">
                <tspan x="55" y="29">dev</tspan>
            </text>
        </g>
        <g id="Group-9" transform="translate(451.000000, 748.000000)">
            <g id="Commit" fill="#E531DC" stroke="#B914B1" stroke-width="4">
                <circle id="Oval" cx="20" cy="20" r="20"></circle>
            </g>
            <text id="feature/*" font-family="HelveticaNeue, Helvetica Neue" font-size="24" font-weight="normal" fill="#000000" fill-opacity="0.799852491">
                <tspan x="53" y="29">feature/*</tspan>
            </text>
        </g>
        <g id="Group-10" transform="translate(450.000000, 798.000000)">
            <g id="Commit" fill="#FB983E" stroke="#D16C11" stroke-width="4">
                <circle id="Oval" cx="20" cy="20" r="20"></circle>
            </g>
            <text id="bugfix/*" font-family="HelveticaNeue, Helvetica Neue" font-size="24" font-weight="normal" fill="#000000" fill-opacity="0.799852491">
                <tspan x="51" y="29">bugfix/*</tspan>
            </text>
        </g>
        <g id="Group-8" transform="translate(625.000000, 698.000000)">
            <g id="Commit" fill="#95E531" stroke="#6DC401" stroke-width="4">
                <circle id="Oval" cx="20" cy="20" r="20"></circle>
            </g>
            <text id="release/*" font-family="HelveticaNeue, Helvetica Neue" font-size="24" font-weight="normal" fill="#000000" fill-opacity="0.799852491">
                <tspan x="55" y="29">release/*</tspan>
            </text>
        </g>
        <g id="Group-9" transform="translate(625.000000, 748.000000)">
            <g id="Commit" fill="#FA634E" stroke="#F03B22" stroke-width="4">
                <circle id="Oval" cx="20" cy="20" r="20"></circle>
            </g>
            <text id="hotfix/*" font-family="HelveticaNeue, Helvetica Neue" font-size="24" font-weight="normal" fill="#000000" fill-opacity="0.799852491">
                <tspan x="53" y="29">hotfix/*</tspan>
            </text>
        </g>
        <g id="Commit" transform="translate(657.000000, 208.000000)" fill="#4175EC" stroke="#072873" stroke-width="4">
            <circle id="Oval" cx="20" cy="20" r="20"></circle>
        </g>
        <g id="Commit" transform="translate(657.000000, 208.000000)" fill="#4175EC" stroke="#072873" stroke-width="4">
            <circle id="Oval" cx="20" cy="20" r="20"></circle>
        </g>
        <g id="Commit" transform="translate(726.000000, 208.000000)" fill="#4175EC" stroke="#072873" stroke-width="4">
            <circle id="Oval" cx="20" cy="20" r="20"></circle>
        </g>
        <g id="Commit" transform="translate(841.000000, 207.000000)" fill="#4175EC" stroke="#072873" stroke-width="4">
            <circle id="Oval" cx="20" cy="20" r="20"></circle>
        </g>
        <g id="Commit" transform="translate(1004.000000, 207.000000)" fill="#4175EC" stroke="#072873" stroke-width="4">
            <circle id="Oval" cx="20" cy="20" r="20"></circle>
        </g>
        <g id="Commit" transform="translate(1237.500000, 207.000000)" fill="#4175EC" stroke="#072873" stroke-width="4">
            <circle id="Oval" cx="20" cy="20" r="20"></circle>
        </g>
        <g id="Commit" transform="translate(110.000000, 358.000000)" fill="#FADF4E" stroke="#DAB803" stroke-width="4">
            <circle id="Oval" cx="20" cy="20" r="20"></circle>
        </g>
        <g id="Commit" transform="translate(345.000000, 358.000000)" fill="#FADF4E" stroke="#DAB803" stroke-width="4">
            <circle id="Oval" cx="20" cy="20" r="20"></circle>
        </g>
        <g id="Commit" transform="translate(430.000000, 358.000000)" fill="#FADF4E" stroke="#DAB803" stroke-width="4">
            <circle id="Oval" cx="20" cy="20" r="20"></circle>
        </g>
        <g id="Commit" transform="translate(547.000000, 358.000000)" fill="#FADF4E" stroke="#DAB803" stroke-width="4">
            <circle id="Oval" cx="20" cy="20" r="20"></circle>
        </g>
        <g id="Commit" transform="translate(657.000000, 358.000000)" fill="#FADF4E" stroke="#DAB803" stroke-width="4">
            <circle id="Oval" cx="20" cy="20" r="20"></circle>
        </g>
        <g id="Commit" transform="translate(886.500000, 354.000000)" fill="#FADF4E" stroke="#DAB803" stroke-width="4">
            <circle id="Oval" cx="20" cy="20" r="20"></circle>
        </g>
        <g id="Commit" transform="translate(770.500000, 356.000000)" fill="#FADF4E" stroke="#DAB803" stroke-width="4">
            <circle id="Oval" cx="20" cy="20" r="20"></circle>
        </g>
        <g id="Commit" transform="translate(1004.000000, 356.000000)" fill="#FADF4E" stroke="#DAB803" stroke-width="4">
            <circle id="Oval" cx="20" cy="20" r="20"></circle>
        </g>
        <g id="Commit" transform="translate(1237.500000, 357.000000)" fill="#FADF4E" stroke="#DAB803" stroke-width="4">
            <circle id="Oval" cx="20" cy="20" r="20"></circle>
        </g>
        <g id="Commit" transform="translate(500.000000, 283.000000)" fill="#FA634E" stroke="#F03B22" stroke-width="4">
            <circle id="Oval" cx="20" cy="20" r="20"></circle>
        </g>
        <g id="Commit" transform="translate(1073.500000, 282.500000)" fill="#FA634E" stroke="#F03B22" stroke-width="4">
            <circle id="Oval" cx="20" cy="20" r="20"></circle>
        </g>
        <g id="Commit" transform="translate(587.000000, 283.000000)" fill="#FA634E" stroke="#F03B22" stroke-width="4">
            <circle id="Oval" cx="20" cy="20" r="20"></circle>
        </g>
        <g id="Commit" transform="translate(1160.500000, 282.500000)" fill="#FA634E" stroke="#F03B22" stroke-width="4">
            <circle id="Oval" cx="20" cy="20" r="20"></circle>
        </g>
        <g id="Commit" transform="translate(186.000000, 434.000000)" fill="#E531DC" stroke="#B914B1" stroke-width="4">
            <circle id="Oval" cx="20" cy="20" r="20"></circle>
        </g>
        <g id="Commit" transform="translate(613.000000, 439.000000)" fill="#FB983E" stroke="#D16C11" stroke-width="4">
            <circle id="Oval" cx="20" cy="20" r="20"></circle>
        </g>
        <g id="Commit" transform="translate(269.000000, 434.000000)" fill="#E531DC" stroke="#B914B1" stroke-width="4">
            <circle id="Oval" cx="20" cy="20" r="20"></circle>
        </g>
        <g id="Commit" transform="translate(696.000000, 439.000000)" fill="#FB983E" stroke="#D16C11" stroke-width="4">
            <circle id="Oval" cx="20" cy="20" r="20"></circle>
        </g>
        <path id="Line" d="M468.126519,245.174404 L497.167,276.937 L493.250209,260.075255 L497.146453,259.170113 L503.596154,286.933293 L476.520506,278.028122 L477.770244,274.228365 L494.214,279.636 L465.174404,247.873481 L468.126519,245.174404 Z" fill="#979797" fill-rule="nonzero"></path>
        <path id="Line-Copy-8" d="M847,249 L847.106479,275.832604 L838.144,271.395 L797.905068,352.679711 L794.320289,350.905068 L834.559,269.621 L825.597804,265.184746 L847,249 Z" fill="#979797" fill-rule="nonzero"></path>
        <path id="Line-Copy-16" d="M1044.17643,246.177081 L1071.274,276.888 L1067.65638,259.959555 L1071.56801,259.123408 L1077.52608,286.996229 L1050.61203,277.613977 L1051.92872,273.836899 L1068.276,279.535 L1041.17708,248.823568 L1044.17643,246.177081 Z" fill="#979797" fill-rule="nonzero"></path>
        <path id="Line-Copy-3" d="M653.791167,332.796877 L663,358 L637.312202,350.245193 L653.791167,332.796877 Z M638.551431,332.158703 L645.09455,338.338315 L642.348055,341.246368 L635.804937,335.066756 L638.551431,332.158703 Z M626.919221,321.172727 L633.462339,327.352338 L630.715845,330.260391 L624.172727,324.080779 L626.919221,321.172727 Z" fill-opacity="0.495602054" fill="#979797" fill-rule="nonzero"></path>
        <path id="Line-Copy-20" d="M1227.79117,331.796877 L1237,357 L1211.3122,349.245193 L1227.79117,331.796877 Z M1212.55143,331.158703 L1219.09455,337.338315 L1216.34806,340.246368 L1209.80494,334.066756 L1212.55143,331.158703 Z M1200.91922,320.172727 L1207.46234,326.352338 L1204.71585,329.260391 L1198.17273,323.080779 L1200.91922,320.172727 Z" fill-opacity="0.495602054" fill="#979797" fill-rule="nonzero"></path>
        <path id="Line" d="M142.532019,401.866573 L185.776,500.849 L187.513193,483.623714 L191.493014,484.024991 L188.633659,512.383709 L165.883144,495.213769 L168.292748,492.020995 L182.111,502.45 L138.866573,403.467981 L142.532019,401.866573 Z" fill="#979797" fill-rule="nonzero"></path>
        <path id="Line" d="M151,396.171573 L182.899,428.07 L178.231511,411.400128 L182.083367,410.321609 L189.768496,437.768496 L162.321609,430.083367 L163.400128,426.231511 L180.07,430.899 L148.171573,399 L151,396.171573 Z" fill="#979797" fill-rule="nonzero"></path>
        <path id="Line-Copy-12" d="M578,401.171573 L609.899,433.07 L605.231511,416.400128 L609.083367,415.321609 L616.768496,442.768496 L589.321609,435.083367 L590.400128,431.231511 L607.07,435.899 L575.171573,404 L578,401.171573 Z" fill="#979797" fill-rule="nonzero"></path>
        <path id="Line" d="M345.5,398.5 L337.014719,423.955844 L329.944,416.885 L309.5,437.328427 L306.671573,434.5 L327.115,414.056 L320.044156,406.985281 L345.5,398.5 Z" fill="#979797" fill-rule="nonzero"></path>
        <path id="Line-Copy-13" d="M772.5,403.5 L764.014719,428.955844 L756.944,421.885 L736.5,442.328427 L733.671573,439.5 L754.115,419.056 L747.044156,411.985281 L772.5,403.5 Z" fill="#979797" fill-rule="nonzero"></path>
        <path id="Line" d="M663,247 L654.514719,272.455844 L647.444,265.385 L627,285.828427 L624.171573,283 L644.615,262.556 L637.544156,255.485281 L663,247 Z" fill="#979797" fill-rule="nonzero"></path>
        <path id="Line-Copy-17" d="M1236.5,246.5 L1228.01472,271.955844 L1220.944,264.885 L1200.5,285.328427 L1197.67157,282.5 L1218.115,262.056 L1211.04416,254.985281 L1236.5,246.5 Z" fill="#979797" fill-rule="nonzero"></path>
        <path id="Line" d="M430.5,398.5 L421.789787,423.879759 L414.781,416.746 L316.474971,513.328316 L313.671684,510.474971 L411.978,413.893 L404.970065,406.759685 L430.5,398.5 Z" fill="#979797" fill-rule="nonzero"></path>
        <path id="Line" d="M440,249 L438.059205,275.762536 L429.462,270.655 L380.698005,352.740947 L377.259053,350.698005 L426.023,268.612 L417.425495,263.504886 L440,249 Z" fill="#979797" fill-rule="nonzero"></path>
        <path id="Line" d="M359.872339,401.742095 L363.257905,403.872339 L312.495262,484.548949 C316.791724,488.37737 317.823277,494.858136 314.656699,499.890732 C311.127195,505.500122 303.718658,507.186203 298.109268,503.656699 C292.499878,500.127195 290.813797,492.718658 294.343301,487.109268 C297.509746,482.076882 303.798244,480.202183 309.10879,482.418276 L359.872339,401.742095 Z M308.036494,486.323418 C304.405658,484.528736 299.932846,485.736759 297.728867,489.239512 C295.375864,492.979105 296.499918,497.91813 300.239512,500.271133 C303.979105,502.624136 308.91813,501.500082 311.271133,497.760488 C313.475034,494.257859 312.628575,489.702989 309.439655,487.206358 Z" fill="#979797" fill-rule="nonzero"></path>
        <path id="Line" d="M359.872339,401.742095 L363.257905,403.872339 L312.495262,484.548949 C316.791724,488.37737 317.823277,494.858136 314.656699,499.890732 C311.127195,505.500122 303.718658,507.186203 298.109268,503.656699 C292.499878,500.127195 290.813797,492.718658 294.343301,487.109268 C297.509746,482.076882 303.798244,480.202183 309.10879,482.418276 L359.872339,401.742095 Z M308.036494,486.323418 C304.405658,484.528736 299.932846,485.736759 297.728867,489.239512 C295.375864,492.979105 296.499918,497.91813 300.239512,500.271133 C303.979105,502.624136 308.91813,501.500082 311.271133,497.760488 C313.475034,494.257859 312.628575,489.702989 309.439655,487.206358 Z" fill="#979797" fill-rule="nonzero"></path>
        <path id="Line" d="M789.885828,401.400265 L793.599735,402.885828 L761.252163,483.755197 C766.167943,486.747085 768.349985,492.936026 766.14172,498.456688 C763.680359,504.61009 756.696714,507.603081 750.543312,505.14172 L750.543312,505.14172 L750.261561,505.024927 C744.299109,502.465675 741.434786,495.602046 743.85828,489.543312 C746.066495,484.022775 751.914613,481.045995 757.537569,482.26943 L789.885828,401.400265 Z M756.858538,486.217795 C753.059355,485.305454 749.066182,487.293886 747.572186,491.028875 C745.931279,495.131143 747.926606,499.786906 752.028875,501.427814 L752.028875,501.427814 L752.266133,501.518458 C756.309096,502.991198 760.818462,500.994504 762.427814,496.971125 C763.921802,493.236153 762.401546,489.042363 759.021245,487.082886 Z" fill="#979797" fill-rule="nonzero"></path>
        <path d="M235.5,454.5 L262.5,454.5" id="Line" stroke="#979797" stroke-width="4"></path>
        <path d="M662.5,459.5 L689.5,459.5" id="Line-Copy-14" stroke="#979797" stroke-width="4"></path>
        <path d="M159,228 L421,228" id="Line" stroke="#979797" stroke-width="4"></path>
        <path d="M159,228 L421,228" id="Line" stroke="#979797" stroke-width="4"></path>
        <path d="M476,227 L649,227" id="Line" stroke="#979797" stroke-width="4"></path>
        <path d="M704,227 L720,227" id="Line" stroke="#979797" stroke-width="4"></path>
        <path d="M775,227 L833,227" id="Line" stroke="#979797" stroke-width="4"></path>
        <path d="M894,229 L995,229" id="Line-Copy-5" stroke="#979797" stroke-width="4"></path>
        <path d="M1052.25,228 L1224,227" id="Line-Copy-19" stroke="#979797" stroke-width="4"></path>
        <path d="M393.5,378.5 L420.5,378.5" id="Line" stroke="#979797" stroke-width="4"></path>
        <path d="M550.5,303.5 L577.5,303.5" id="Line-Copy" stroke="#979797" stroke-width="4"></path>
        <path d="M1124,303 L1151,303" id="Line-Copy-18" stroke="#979797" stroke-width="4"></path>
        <path d="M481,378 L532,378" id="Line-Copy" stroke="#979797" stroke-width="4"></path>
        <path d="M159,378 L333,379" id="Line-Copy-6" stroke="#979797" stroke-width="4"></path>
        <path d="M593,376 L652,376" id="Line-Copy" stroke="#979797" stroke-width="4"></path>
        <path d="M822.5,372 L881.5,372" id="Line-Copy-15" stroke="#979797" stroke-width="4"></path>
        <path d="M706.5,374 L765.5,374" id="Line-Copy-7" stroke="#979797" stroke-width="4"></path>
        <path d="M936,370 L995,370" id="Line-Copy-24" stroke="#979797" stroke-width="4"></path>
        <path d="M1053.5,376 L1228.5,376" id="Line-Copy-21" stroke="#979797" stroke-width="4"></path>
        <g id="Commit" transform="translate(186.000000, 507.000000)" fill="#E531DC" stroke="#B914B1" stroke-width="4">
            <circle id="Oval" cx="20" cy="20" r="20"></circle>
        </g>
        <g id="Commit" transform="translate(269.000000, 507.000000)" fill="#E531DC" stroke="#B914B1" stroke-width="4">
            <circle id="Oval" cx="20" cy="20" r="20"></circle>
        </g>
        <path d="M235.5,527.5 L262.5,527.5" id="Line" stroke="#979797" stroke-width="4"></path>
        <path id="Line" d="M470.551752,397.225911 L540.615,502.079 L539.289402,484.818875 L543.277649,484.512472 L545.460962,512.931233 L520.040538,500.039574 L521.849735,496.472109 L537.29,504.302 L467.225911,399.448248 L470.551752,397.225911 Z" fill="#979797" fill-rule="nonzero"></path>
        <path id="Line" d="M894,400 L884.634961,425.145498 L877.813,417.833 L774.901679,513.826718 L772.173282,510.901679 L875.085,414.908 L868.264579,407.595268 L894,400 Z" fill="#979797" fill-rule="nonzero"></path>
        <g id="Commit" transform="translate(542.000000, 508.000000)" fill="#E531DC" stroke="#B914B1" stroke-width="4">
            <circle id="Oval" cx="20" cy="20" r="20"></circle>
        </g>
        <g id="Commit" transform="translate(725.000000, 508.000000)" fill="#E531DC" stroke="#B914B1" stroke-width="4">
            <circle id="Oval" cx="20" cy="20" r="20"></circle>
        </g>
        <path d="M591.5,528.5 L712,529" id="Line" stroke="#979797" stroke-width="4"></path>
        <g id="Group-6" transform="translate(716.000000, 175.000000)">
            <rect id="Rectangle" stroke="#979797" fill="#D8D8D8" transform="translate(28.500000, 9.500000) scale(-1, 1) translate(-28.500000, -9.500000) " x="0" y="0" width="57" height="19" rx="3"></rect>
            <text id="3.6.0" font-family="HelveticaNeue, Helvetica Neue" font-size="16" font-weight="normal" fill="#000000" fill-opacity="0.799852491">
                <tspan x="11" y="16">3.6.0</tspan>
            </text>
        </g>
        <g id="Group-6-Copy-3" transform="translate(421.000000, 164.000000)">
            <rect id="Rectangle" stroke="#979797" fill="#D8D8D8" transform="translate(36.500000, 9.500000) scale(-1, 1) translate(-36.500000, -9.500000) " x="0" y="0" width="73" height="19" rx="3"></rect>
            <text id="3.6.0-rc" font-family="HelveticaNeue, Helvetica Neue" font-size="16" font-weight="normal" fill="#000000" fill-opacity="0.799852491">
                <tspan x="11" y="16">3.6.0-rc</tspan>
            </text>
        </g>
        <g id="Group-6-Copy-3" transform="translate(833.000000, 175.000000)">
            <rect id="Rectangle" stroke="#979797" fill="#D8D8D8" transform="translate(36.500000, 9.500000) scale(-1, 1) translate(-36.500000, -9.500000) " x="0" y="0" width="73" height="19" rx="3"></rect>
            <text id="3.7.0-rc" font-family="HelveticaNeue, Helvetica Neue" font-size="16" font-weight="normal" fill="#000000" fill-opacity="0.799852491">
                <tspan x="11" y="16">3.7.0-rc</tspan>
            </text>
        </g>
        <g id="Group-6-Copy" transform="translate(995.000000, 161.000000)">
            <rect id="Rectangle" stroke="#979797" fill="#D8D8D8" transform="translate(28.500000, 9.500000) scale(-1, 1) translate(-28.500000, -9.500000) " x="0" y="0" width="57" height="19" rx="3"></rect>
            <text id="3.7.0" font-family="HelveticaNeue, Helvetica Neue" font-size="16" font-weight="normal" fill="#000000" fill-opacity="0.799852491">
                <tspan x="11" y="16">3.7.0</tspan>
            </text>
        </g>
        <g id="Group-6-Copy-2" transform="translate(1229.000000, 152.000000)">
            <rect id="Rectangle" stroke="#979797" fill="#D8D8D8" transform="translate(28.500000, 9.500000) scale(-1, 1) translate(-28.500000, -9.500000) " x="0" y="0" width="57" height="19" rx="3"></rect>
            <text id="3.7.1" font-family="HelveticaNeue, Helvetica Neue" font-size="16" font-weight="normal" fill="#000000" fill-opacity="0.799852491">
                <tspan x="11" y="16">3.7.1</tspan>
            </text>
        </g>
        <g id="Group-5" transform="translate(27.000000, 651.000000)">
            <g id="Group" transform="translate(2.000000, 0.000000)">
                <path d="M0.5,14.5 L53.5,14.5" id="Line" stroke="#979797" stroke-width="4" stroke-linecap="square"></path>
                <text id="Commit" font-family="HelveticaNeue, Helvetica Neue" font-size="24" font-weight="normal" fill="#000000" fill-opacity="0.799852491">
                    <tspan x="72" y="23">Commit</tspan>
                </text>
            </g>
            <g id="Group-2" transform="translate(2.000000, 34.000000)">
                <path id="Line" d="M33.9873714,0.526326446 L58.8294577,14.5 L33.9873714,28.4736736 L32.0263264,24.9873714 L47.114,16.5 L-1.5,16.5 L-1.5,12.5 L47.115,12.5 L32.0263264,4.01262859 L33.9873714,0.526326446 Z" fill="#979797" fill-rule="nonzero"></path>
                <text id="Branch" font-family="HelveticaNeue, Helvetica Neue" font-size="24" font-weight="normal" fill="#000000" fill-opacity="0.799852491">
                    <tspan x="72" y="23">Branch</tspan>
                </text>
            </g>
            <g id="Group-4" transform="translate(2.000000, 68.000000)">
                <path id="Line" d="M29.5,2.5 L53.5,14.5 L29.5,26.5 L29.5,16.5 L-1.5,16.5 L-1.5,12.5 L29.5,12.5 L29.5,2.5 Z" fill="#979797" fill-rule="nonzero"></path>
                <text id="Merge" font-family="HelveticaNeue, Helvetica Neue" font-size="24" font-weight="normal" fill="#000000" fill-opacity="0.799852491">
                    <tspan x="72" y="23">Merge</tspan>
                </text>
            </g>
            <g id="Group-3" transform="translate(2.000000, 102.000000)">
                <path id="Line-Copy-2" d="M53.5,2.5 C60.127417,2.5 65.5,7.872583 65.5,14.5 C65.5,21.127417 60.127417,26.5 53.5,26.5 C47.55429,26.5 42.6185422,22.1758377 41.6660527,16.5008092 L-1.5,16.5 L-1.5,12.5 L41.6658855,12.5001873 C42.6179645,6.82466846 47.553942,2.5 53.5,2.5 Z M53.5,6.5 C49.081722,6.5 45.5,10.081722 45.5,14.5 C45.5,18.918278 49.081722,22.5 53.5,22.5 C57.918278,22.5 61.5,18.918278 61.5,14.5 C61.5,10.081722 57.918278,6.5 53.5,6.5 Z" fill="#979797" fill-rule="nonzero"></path>
                <text id="Rebase" font-family="HelveticaNeue, Helvetica Neue" font-size="24" font-weight="normal" fill="#000000" fill-opacity="0.799852491">
                    <tspan x="72" y="23">Rebase</tspan>
                </text>
            </g>
            <g id="Group-3" transform="translate(0.000000, 136.000000)">
                <path id="Line-Copy-2" d="M29.5,2.5 L53.5,14.5 L29.5,26.5 L29.5,2.5 Z M7.5,12.5 L7.5,16.5 L-1.5,16.5 L-1.5,12.5 L7.5,12.5 Z M23.5,12.5 L23.5,16.5 L14.5,16.5 L14.5,12.5 L23.5,12.5 Z" fill-opacity="0.495602054" fill="#979797" fill-rule="nonzero"></path>
                <text id="Cherry-Pick" font-family="HelveticaNeue, Helvetica Neue" font-size="24" font-weight="normal" fill="#000000" fill-opacity="0.799852491">
                    <tspan x="72" y="23">Cherry-Pick</tspan>
                </text>
            </g>
        </g>
        <g id="Commit" transform="translate(430.000000, 207.000000)" fill="#4175EC" stroke="#072873" stroke-width="4">
            <circle id="Oval" cx="20" cy="20" r="20"></circle>
        </g>
    </g>
</svg>
