<svg xmlns="http://www.w3.org/2000/svg" width="18" height="17.093" viewBox="0 0 18 17.093">
  <g id="Gruppe_4102" data-name="Gruppe 4102" transform="translate(4.115 4.406)">
    <path id="Pfad_1829" data-name="Pfad 1829" d="M6.3,8.572l2.659,1.605L8.257,7.152l2.35-2.036L7.512,4.853,6.3,2,5.094,4.853,2,5.116,4.35,7.152l-.706,3.026Z" transform="translate(-1.419 -1.486)" fill="#fff"/>
    <path id="Pfad_1829_-_Kontur" data-name="Pfad 1829 - Kontur" d="M7.949,9.249,7.136,5.763,9.843,3.417l-3.565-.3L4.885-.173,3.491,3.115l-3.565.3L2.633,5.763,1.82,9.249,4.885,7.4l3.065,1.85m2.5,3.438L4.885,9.329-.678,12.686.8,6.359-4.115,2.1l6.474-.549L4.885-4.406,7.41,1.553l6.474.549L8.971,6.359Z" transform="translate(0 0)" fill="#002e5f"/>
  </g>
</svg>
