<svg id="location_inactive4c" xmlns="http://www.w3.org/2000/svg" width="24" height="24" viewBox="0 0 24 24">
  <path id="Pfad_1908" data-name="Pfad 1908" d="M0,0H24V24H0Z" fill="none"/>
  <g id="Gruppe_4241" data-name="Gruppe 4241">
    <path id="Pfad_1909" data-name="Pfad 1909" d="M12,5A4.532,4.532,0,0,0,7.7,9.6c0,2.4,3.3,7.5,4.3,7.5s4.3-5.2,4.3-7.6A4.442,4.442,0,0,0,12,5Z" fill="#fff"/>
    <path id="Pfad_1910" data-name="Pfad 1910" d="M12,2A6.957,6.957,0,0,0,5,9c0,5.2,7,13,7,13s7-7.8,7-13A6.957,6.957,0,0,0,12,2Zm0,15.1c-1,0-4.3-5.1-4.3-7.5A4.532,4.532,0,0,1,12,5a4.442,4.442,0,0,1,4.3,4.5C16.3,11.9,13,17.1,12,17.1Z" fill="#003063"/>
  </g>
</svg>
