<?xml version="1.0" encoding="UTF-8" standalone="no"?>
<!-- Generator: Adobe Illustrator 15.0.0, SVG Export Plug-In . SVG Version: 6.00 Build 0)  -->

<svg
   xmlns:dc="http://purl.org/dc/elements/1.1/"
   xmlns:cc="http://creativecommons.org/ns#"
   xmlns:rdf="http://www.w3.org/1999/02/22-rdf-syntax-ns#"
   xmlns:svg="http://www.w3.org/2000/svg"
   xmlns="http://www.w3.org/2000/svg"
   xmlns:sodipodi="http://sodipodi.sourceforge.net/DTD/sodipodi-0.dtd"
   xmlns:inkscape="http://www.inkscape.org/namespaces/inkscape"
   version="1.1"
   x="0px"
   y="0px"
   width="40px"
   height="40px"
   viewBox="0 0 40 40"
   enable-background="new 0 0 40 40"
   xml:space="preserve"
   id="svg2"
   inkscape:version="0.91 r13725"
   sodipodi:docname="ohnekategorie.svg"
   inkscape:export-filename="G:\AG_GDI-HH\Icons\sportanlagen\ohnekategorie.png"
   inkscape:export-xdpi="90"
   inkscape:export-ydpi="90"><metadata
     id="metadata29"><rdf:RDF><cc:Work
         rdf:about=""><dc:format>image/svg+xml</dc:format><dc:type
           rdf:resource="http://purl.org/dc/dcmitype/StillImage" /><dc:title></dc:title></cc:Work></rdf:RDF></metadata><defs
     id="defs27" /><sodipodi:namedview
     pagecolor="#ffffff"
     bordercolor="#666666"
     borderopacity="1"
     objecttolerance="10"
     gridtolerance="10"
     guidetolerance="10"
     inkscape:pageopacity="0"
     inkscape:pageshadow="2"
     inkscape:window-width="1817"
     inkscape:window-height="1005"
     id="namedview25"
     showgrid="false"
     inkscape:zoom="20.9"
     inkscape:cx="12.200957"
     inkscape:cy="20"
     inkscape:window-x="2010"
     inkscape:window-y="20"
     inkscape:window-maximized="0"
     inkscape:current-layer="svg2" /><g
     id="Ebene_1"><g
       id="XMLID_1_"><g
         id="g6"><path
           fill="#F2F9D7"
           d="M20,1c10.49,0,19,8.51,19,19s-8.51,19-19,19S1,30.49,1,20S9.51,1,20,1z"
           id="path8" /></g><g
         id="g10"><path
           fill="none"
           stroke="#4D6523"
           stroke-width="2"
           stroke-miterlimit="10"
           d="M39,20c0,10.49-8.51,19-19,19S1,30.49,1,20     S9.51,1,20,1S39,9.51,39,20z"
           id="path12" /></g></g><g
       id="Ebene_6"><path
         fill="#85A044"
         d="M37.721,20.469c-0.677,9.741-8.056,17.549-17.618,17.549S1.955,29.47,1.955,20.475    c0-3.246,0.479-3.972,0.479-3.972s1.667,0.296,1.878-0.727c0.95-4.581,7.997-15.503,21.62-11.005    c0.588,0.194,1.285-1.281,1.285-1.281s1.988,0.919,3.033,1.673C30.622,5.432,38.484,9.485,37.721,20.469z"
         id="path15" /></g><g
       id="Ebene_2"><path
         fill="#6E8630"
         d="M36.823,13.553c0,0,1.671,3.403,1.307,7.235c-1.228,12.915-11.927,17.413-17.364,17.365    C5.31,38.019,2.435,24.181,2.435,24.181c0-0.886,3.266-2.364,7.903-2.812c4.645-0.448,7.399,1.898,9.888,0.279    c0.438-0.285,3.713-4.138,5.81-5.419C28.916,14.47,33.307,13.553,36.823,13.553z"
         id="path18" /></g></g><path
     style="fill:none;fill-rule:evenodd;stroke:none;stroke-width:1px;stroke-linecap:butt;stroke-linejoin:miter;stroke-opacity:1"
     d="m 21.578947,14.066986 5.119618,0.861244 c 0,0 0.09569,1.291866 -0.04785,2.105263 -0.143541,0.813397 -0.04785,1.435407 0.04785,1.961722 0.09569,0.526316 1.244019,2.248804 1.004784,2.870814 -0.239234,0.622009 -1.004784,1.866028 -1.196172,1.961722 -0.191388,0.09569 -4.258373,0.62201 -6.602871,0.574163 -2.344497,-0.04785 -6.698564,-0.430622 -6.698564,-0.430622 0,0 -0.62201,-0.478469 -0.669857,-1.339713 -0.04785,-0.861244 0.909091,-2.105263 1.38756,-2.248804 0.478469,-0.143541 3.492823,-0.430622 3.779904,-0.526316 0.287082,-0.09569 1.818182,-1.004784 2.105263,-1.339713 0.287082,-0.334928 1.339713,-1.770335 1.435407,-2.105263 0.09569,-0.334928 0.334928,-2.344497 0.334928,-2.344497 z"
     id="path4146"
     inkscape:connector-curvature="0" /><path
     style="fill:none;fill-rule:evenodd;stroke:none;stroke-width:1px;stroke-linecap:butt;stroke-linejoin:miter;stroke-opacity:1"
     d="m 19.904306,26.602871 c 1.38756,0.04785 3.923445,-0.239235 4.641149,-0.430622 0.717703,-0.191388 2.535885,-0.717704 2.91866,-0.574163 0.382775,0.143541 0.76555,0.382775 0.717703,0.861244 -0.04785,0.478469 -0.04785,1.339713 -0.813397,1.578948 -0.76555,0.239234 -3.397129,1.339712 -7.177033,1.148325 -3.779905,-0.191388 -5.789474,-0.574163 -6.31579,-0.76555 -0.526316,-0.191388 -2.15311,-1.004785 -2.200957,-1.578948 -0.04785,-0.574162 0.143541,-1.052631 0.62201,-1.244019 0.478469,-0.191387 1.244019,-0.334928 1.913875,-0.09569 0.669857,0.239235 3.014354,0.956938 3.971292,1.052632 0.956938,0.09569 1.722488,0.04785 1.722488,0.04785 z"
     id="path4148"
     inkscape:connector-curvature="0" /></svg>