<?xml version="1.0" encoding="UTF-8" standalone="no"?>
<!-- Generator: Adobe Illustrator 15.0.0, SVG Export Plug-In . SVG Version: 6.00 Build 0)  -->

<svg
   xmlns:dc="http://purl.org/dc/elements/1.1/"
   xmlns:cc="http://creativecommons.org/ns#"
   xmlns:rdf="http://www.w3.org/1999/02/22-rdf-syntax-ns#"
   xmlns:svg="http://www.w3.org/2000/svg"
   xmlns="http://www.w3.org/2000/svg"
   xmlns:sodipodi="http://sodipodi.sourceforge.net/DTD/sodipodi-0.dtd"
   xmlns:inkscape="http://www.inkscape.org/namespaces/inkscape"
   version="1.1"
   x="0px"
   y="0px"
   width="40px"
   height="40px"
   viewBox="0 0 40 40"
   enable-background="new 0 0 40 40"
   xml:space="preserve"
   id="svg2"
   inkscape:version="0.48.3.1 r9886"
   sodipodi:docname="seepferdchen.svg"
   inkscape:export-filename="R:\Themen\Icons\Icons_MRH\Grundkonzept\Icons_MRH_neues_Konzept\neues_konzept_draussenimgruenen\seepdferdchen.png"
   inkscape:export-xdpi="90"
   inkscape:export-ydpi="90"><metadata
   id="metadata28"><rdf:RDF><cc:Work
       rdf:about=""><dc:format>image/svg+xml</dc:format><dc:type
         rdf:resource="http://purl.org/dc/dcmitype/StillImage" /><dc:title></dc:title></cc:Work></rdf:RDF></metadata><defs
   id="defs26" /><sodipodi:namedview
   pagecolor="#ffffff"
   bordercolor="#666666"
   borderopacity="1"
   objecttolerance="10"
   gridtolerance="10"
   guidetolerance="10"
   inkscape:pageopacity="0"
   inkscape:pageshadow="2"
   inkscape:window-width="1192"
   inkscape:window-height="920"
   id="namedview24"
   showgrid="false"
   inkscape:zoom="13.099153"
   inkscape:cx="20.550754"
   inkscape:cy="12.634282"
   inkscape:window-x="0"
   inkscape:window-y="0"
   inkscape:window-maximized="0"
   inkscape:current-layer="svg2" />
<g
   id="Ebene_1">
	<g
   id="XMLID_1_">
		<g
   id="g6">
			<path
   d="M 20,1 C 30.49,1 39,9.51 39,20 39,30.49 30.49,39 20,39 9.51,39 1,30.49 1,20 1,9.51 9.51,1 20,1 z"
   id="path8"
   inkscape:connector-curvature="0"
   style="fill:#c3f2bb" />
		</g>
		<g
   id="g10">
			<path
   stroke-miterlimit="10"
   d="M 39,20 C 39,30.49 30.49,39 20,39 9.51,39 1,30.49 1,20 1,9.51 9.51,1 20,1 30.49,1 39,9.51 39,20 z"
   id="path12"
   inkscape:connector-curvature="0"
   style="fill:#f5eeda;stroke:#595340;stroke-width:2;stroke-miterlimit:10;stroke-opacity:1;fill-opacity:1" />
		</g>
	</g>
	<g
   id="Ebene_6">
		<path
   d="m 37.721,20.469 c -0.677,9.741 -8.056,17.549 -17.618,17.549 -9.562,0 -18.148,-8.548 -18.148,-17.543 0,-3.246 0.479,-3.972 0.479,-3.972 0,0 1.667,0.296 1.878,-0.727 0.95,-4.581 7.997,-15.503 21.62,-11.005 0.588,0.194 1.285,-1.281 1.285,-1.281 0,0 1.988,0.919 3.033,1.673 0.372,0.269 8.234,4.322 7.471,15.306 z"
   id="path15"
   inkscape:connector-curvature="0"
   style="fill:#c1b097;fill-opacity:1" />
	</g>
	<g
   id="Ebene_2">
		<path
   d="m 36.823,13.553 c 0,0 1.671,3.403 1.307,7.235 C 36.902,33.703 26.203,38.201 20.766,38.153 5.31,38.019 2.435,24.181 2.435,24.181 c 0,-0.886 3.266,-2.364 7.903,-2.812 4.645,-0.448 7.399,1.898 9.888,0.279 0.438,-0.285 3.713,-4.138 5.81,-5.419 2.88,-1.759 7.271,-2.676 10.787,-2.676 z"
   id="path18"
   inkscape:connector-curvature="0"
   style="fill:#a08b68;fill-opacity:1" />
	</g>
</g>
<g
   id="Ebene_5">
</g>
<g
   id="Ebene_3"
   display="none">
	<circle
   display="inline"
   fill="#FFD64D"
   stroke="#F9B02A"
   stroke-width="2"
   stroke-miterlimit="10"
   cx="20"
   cy="20"
   r="19"
   id="circle22" />
</g>
<g
   inkscape:groupmode="layer"
   id="layer6"
   inkscape:label="schnecke"
   style="display:none" /><g
   inkscape:groupmode="layer"
   id="layer7"
   inkscape:label="Ebene"
   style="display:inline"><path
     sodipodi:type="arc"
     style="fill:#fdffff;fill-opacity:1;stroke:none"
     id="path3854"
     sodipodi:cx="20.344828"
     sodipodi:cy="21.754545"
     sodipodi:rx="11.870996"
     sodipodi:ry="11.603804"
     d="m 32.215824,21.754545 a 11.870996,11.603804 0 1 1 -23.7419928,0 11.870996,11.603804 0 1 1 23.7419928,0 z"
     transform="matrix(0.9807074,0,0,0.91776316,0.44574954,0.26233152)" /><path
     style="fill:#fdffff;fill-opacity:1;stroke:none"
     d="m 25.421491,29.083264 c 0,0 -1.526816,0.458044 2.519247,-0.152682 1.238058,-0.186877 3.129973,1.145112 3.129973,1.145112 0,0 0.305363,-1.526816 0.763408,-2.90095 0.458045,-1.374135 0.305364,-3.740701 0.229023,-4.962154 -0.07634,-1.221453 -3.206314,2.442906 -3.206314,2.442906 z"
     id="path3875"
     inkscape:connector-curvature="0"
     sodipodi:nodetypes="cscsscc" /></g><path
   style="fill:none;stroke:#000000;stroke-width:0.6;stroke-linecap:butt;stroke-linejoin:miter;stroke-miterlimit:4;stroke-opacity:1;stroke-dasharray:none"
   d="m 26.642944,28.090834 c 0,0 1.247613,-0.996455 2.213884,-1.145113 0.99243,-0.152682 1.832179,0.763408 1.832179,0.763408 l 0.610727,0.992432"
   id="path3834"
   inkscape:connector-curvature="0"
   sodipodi:nodetypes="cscc" /><path
   style="fill:none;stroke:#000000;stroke-width:0.619;stroke-linecap:butt;stroke-linejoin:miter;stroke-miterlimit:4;stroke-opacity:1;stroke-dasharray:none"
   d="m 28.119926,19.275943 c 0,0 -0.309659,-1.195627 0.805113,-1.617614 1.114773,-0.421986 2.41534,0.492318 2.41534,0.492318"
   id="path3836"
   inkscape:connector-curvature="0" /><path
   style="fill:none;stroke:#000000;stroke-width:0.629;stroke-linecap:butt;stroke-linejoin:miter;stroke-miterlimit:4;stroke-opacity:1;stroke-dasharray:none"
   d="m 21.869852,13.468728 c 0,0 -1.827156,-0.595814 -1.674892,-1.608698 0.152262,-1.012883 2.055549,-1.668279 2.055549,-1.668279"
   id="path3838"
   inkscape:connector-curvature="0" /><path
   style="fill:none;stroke:#000000;stroke-width:0.653;stroke-linecap:butt;stroke-linejoin:miter;stroke-miterlimit:4;stroke-opacity:1;stroke-dasharray:none"
   d="m 13.633616,17.250437 c 0,0 -1.101504,1.755839 -2.008626,0.91609 -0.907121,-0.839749 -1.166299,-2.748269 -1.166299,-2.748269"
   id="path3840"
   inkscape:connector-curvature="0" /><path
   style="fill:none;stroke:#000000;stroke-width:0.6;stroke-linecap:butt;stroke-linejoin:miter;stroke-opacity:1;stroke-miterlimit:4;stroke-dasharray:none"
   d="m 15.03914,24.731837 c 0,0 0.687068,1.908521 -0.152681,2.519247 -0.839749,0.610727 -3.282655,0.458045 -3.282655,0.458045"
   id="path3842"
   inkscape:connector-curvature="0" /><path
   style="fill:none;stroke:#000000;stroke-width:0.6;stroke-linecap:butt;stroke-linejoin:miter;stroke-opacity:1;stroke-miterlimit:4;stroke-dasharray:none"
   d="m 21.222746,25.95329 c 0,0 1.679498,-0.305363 2.213884,0.534386 0.534386,0.839749 -0.152682,2.82461 -0.152682,2.82461"
   id="path3844"
   inkscape:connector-curvature="0" /><path
   style="fill:none;stroke:#000000;stroke-width:0.4747318;stroke-linecap:butt;stroke-linejoin:miter;stroke-miterlimit:4;stroke-opacity:1;stroke-dasharray:none"
   d="m 23.287179,19.221592 c 0,0 -0.425963,-1.130601 0.212981,-1.593121 0.638946,-0.462518 3.052736,0.05139 3.052736,0.05139"
   id="path3846"
   inkscape:connector-curvature="0" /><path
   style="fill:none;stroke:#000000;stroke-width:0.6;stroke-linecap:butt;stroke-linejoin:miter;stroke-opacity:1;stroke-miterlimit:4;stroke-dasharray:none"
   d="m 18.169114,19.158958 c 0,0 -1.374135,1.068771 -2.213884,0.381704 -0.839749,-0.687067 -0.763408,-3.206314 -0.763408,-3.206314"
   id="path3848"
   inkscape:connector-curvature="0" /><path
   style="fill:none;stroke:#000000;stroke-width:0.52100003;stroke-linecap:butt;stroke-linejoin:miter;stroke-miterlimit:4;stroke-opacity:1;stroke-dasharray:none"
   d="m 18.511502,22.855139 c 0,0 0.779775,-0.276014 1.439585,0.483023 0.65981,0.759038 -0.299914,3.036149 -0.299914,3.036149"
   id="path3850"
   inkscape:connector-curvature="0" /><g
   inkscape:groupmode="layer"
   id="layer8"
   inkscape:label="kringel"><path
     style="fill:none;stroke:#000000;stroke-width:0.89999998;stroke-linecap:butt;stroke-linejoin:miter;stroke-miterlimit:4;stroke-opacity:1;stroke-dasharray:none"
     d="m 31.070712,30.075695 c 0,0 1.374134,-2.595588 1.297794,-6.717992 -0.07634,-4.122404 -0.992431,-9.160898 -4.65679,-11.374781 -3.664359,-2.2138842 -8.550171,-3.9697232 -12.290871,-1.374135 -3.7407,2.595588 -8.1684672,7.252377 -6.1072662,12.13819 2.0612032,4.885812 2.9009522,7.710422 7.6340822,7.786763 4.733131,0.07634 8.855535,-0.381705 9.924306,-3.969723 1.068771,-3.588018 2.061202,-7.252377 -0.229022,-9.542602 -2.290225,-2.290224 -7.405059,-4.504108 -9.924306,-2.290224 -2.519247,2.213884 -4.885812,6.412628 -2.671929,8.626512 2.213884,2.213884 6.107265,4.504108 7.939445,2.137543 1.832179,-2.366565 3.664359,-4.733131 0.992431,-6.107265 -2.671929,-1.374135 -5.038494,-1.83218 -4.962153,0.229022 0.07634,2.061202 0.305363,2.82461 1.221453,2.671929 0.916089,-0.152682 1.068771,-1.297794 1.068771,-1.297794"
     id="path4396"
     inkscape:connector-curvature="0"
     sodipodi:nodetypes="csssssssssssssc" /></g></svg>