<?xml version="1.0" encoding="UTF-8" standalone="no"?>
<!-- Generator: Adobe Illustrator 15.0.0, SVG Export Plug-In . SVG Version: 6.00 Build 0)  -->

<svg
   xmlns:dc="http://purl.org/dc/elements/1.1/"
   xmlns:cc="http://creativecommons.org/ns#"
   xmlns:rdf="http://www.w3.org/1999/02/22-rdf-syntax-ns#"
   xmlns:svg="http://www.w3.org/2000/svg"
   xmlns="http://www.w3.org/2000/svg"
   xmlns:sodipodi="http://sodipodi.sourceforge.net/DTD/sodipodi-0.dtd"
   xmlns:inkscape="http://www.inkscape.org/namespaces/inkscape"
   version="1.1"
   x="0px"
   y="0px"
   width="40px"
   height="40px"
   viewBox="0 0 40 40"
   enable-background="new 0 0 40 40"
   xml:space="preserve"
   id="svg2"
   inkscape:version="0.91 r13725"
   sodipodi:docname="bowlinghalle_1.svg"
   inkscape:export-filename="G:\AG_GDI-HH\Icons\sportanlagen\bowlinghalle_1.png"
   inkscape:export-xdpi="90"
   inkscape:export-ydpi="90"><metadata
     id="metadata29"><rdf:RDF><cc:Work
         rdf:about=""><dc:format>image/svg+xml</dc:format><dc:type
           rdf:resource="http://purl.org/dc/dcmitype/StillImage" /><dc:title></dc:title></cc:Work></rdf:RDF></metadata><defs
     id="defs27" /><sodipodi:namedview
     pagecolor="#ffffff"
     bordercolor="#666666"
     borderopacity="1"
     objecttolerance="10"
     gridtolerance="10"
     guidetolerance="10"
     inkscape:pageopacity="0"
     inkscape:pageshadow="2"
     inkscape:window-width="1817"
     inkscape:window-height="1005"
     id="namedview25"
     showgrid="false"
     inkscape:zoom="20.9"
     inkscape:cx="20"
     inkscape:cy="20"
     inkscape:window-x="1975"
     inkscape:window-y="20"
     inkscape:window-maximized="0"
     inkscape:current-layer="svg2" /><g
     id="Ebene_1"><g
       id="XMLID_1_"><g
         id="g6"><path
           fill="#F2F9D7"
           d="M20,1c10.49,0,19,8.51,19,19s-8.51,19-19,19S1,30.49,1,20S9.51,1,20,1z"
           id="path8" /></g><g
         id="g10"><path
           fill="none"
           stroke="#4D6523"
           stroke-width="2"
           stroke-miterlimit="10"
           d="M39,20c0,10.49-8.51,19-19,19S1,30.49,1,20     S9.51,1,20,1S39,9.51,39,20z"
           id="path12" /></g></g><g
       id="Ebene_6"><path
         fill="#85A044"
         d="M37.721,20.469c-0.677,9.741-8.056,17.549-17.618,17.549S1.955,29.47,1.955,20.475    c0-3.246,0.479-3.972,0.479-3.972s1.667,0.296,1.878-0.727c0.95-4.581,7.997-15.503,21.62-11.005    c0.588,0.194,1.285-1.281,1.285-1.281s1.988,0.919,3.033,1.673C30.622,5.432,38.484,9.485,37.721,20.469z"
         id="path15" /></g><g
       id="Ebene_2"><path
         fill="#6E8630"
         d="M36.823,13.553c0,0,1.671,3.403,1.307,7.235c-1.228,12.915-11.927,17.413-17.364,17.365    C5.31,38.019,2.435,24.181,2.435,24.181c0-0.886,3.266-2.364,7.903-2.812c4.645-0.448,7.399,1.898,9.888,0.279    c0.438-0.285,3.713-4.138,5.81-5.419C28.916,14.47,33.307,13.553,36.823,13.553z"
         id="path18" /></g></g><g
     style="display:inline;fill:#ffffff;fill-opacity:1"
     id="g4051"
     transform="matrix(0.28871391,0,0,0.28871391,-83.647502,-34.402614)"><path
       id="path4014"
       d="m 325.70146,230.12048 c 0,0 -13.042,-32.734 -1.39,-50.701 0.605,-0.932 5.441,-5.635 1.098,-17.601 -3.454,-9.512 3.045,-13.09 7.023,-13.09 l -0.892,0 c 3.979,0 10.227,3.49 7.025,13.09 -3.989,11.966 0.503,16.661 1.097,17.601 12.09,19.178 -1.391,50.701 -1.391,50.701 l -12.57,0 z"
       inkscape:connector-curvature="0"
       style="clip-rule:evenodd;fill:#ffffff;fill-opacity:1;fill-rule:evenodd" /><path
       id="circle4016"
       transform="translate(160.5104,115.59735)"
       d="M 218.78125,60.84375 C 203.77512,60.84375 191.625,72.993871 191.625,88 c 0,15.00613 12.15012,27.1875 27.15625,27.1875 15.00613,0 27.1875,-12.18137 27.1875,-27.1875 0,-5.385074 -1.57896,-10.402593 -4.28125,-14.625 -0.68475,0.590458 -1.54521,0.96875 -2.5,0.96875 -2.19202,0 -3.96875,-1.883368 -3.96875,-4.1875 0,-1.126721 0.43443,-2.124317 1.125,-2.875 -4.73676,-4.018059 -10.86452,-6.4375 -17.5625,-6.4375 z M 228.625,77.25 c 3.2259,0 5.84375,2.617855 5.84375,5.84375 0,3.225895 -2.61785,5.84375 -5.84375,5.84375 -3.2259,0 -5.84375,-2.617855 -5.84375,-5.84375 0,-3.225895 2.61785,-5.84375 5.84375,-5.84375 z m 11.125,6.9375 c 1.648,0 2.96875,2.194 2.96875,4.875 0,2.688 -1.32075,4.84375 -2.96875,4.84375 -1.651,0 -3,-2.15575 -3,-4.84375 0,-2.682 1.349,-4.875 3,-4.875 z"
       style="fill:#ffffff;fill-opacity:1"
       inkscape:connector-curvature="0" /></g></svg>