<?xml version="1.0" encoding="utf-8"?>
<!-- Generator: Adobe Illustrator 15.0.0, SVG Export Plug-In . SVG Version: 6.00 Build 0)  -->
<!DOCTYPE svg PUBLIC "-//W3C//DTD SVG 1.1//EN" "http://www.w3.org/Graphics/SVG/1.1/DTD/svg11.dtd">
<svg version="1.1" id="Ebene_1" xmlns="http://www.w3.org/2000/svg" xmlns:xlink="http://www.w3.org/1999/xlink" x="0px" y="0px"
	 width="40px" height="40px" viewBox="0 0 40 40" enable-background="new 0 0 40 40" xml:space="preserve">
<g id="XMLID_1_">
	<g>
		<path fill="#F4BBA2" d="M20,1c10.49,0,19,8.51,19,19s-8.51,19-19,19S1,30.49,1,20S9.51,1,20,1z"/>
	</g>
	<g>
		<path fill="none" stroke="#993300" stroke-width="2" stroke-miterlimit="10" d="M39,20c0,10.49-8.51,19-19,19S1,30.49,1,20
			S9.51,1,20,1S39,9.51,39,20z"/>
	</g>
</g>
<g id="Ebene_6">
	<path fill="#B76649" d="M37.418,20.336c-0.961,9.717-7.753,17.682-17.315,17.682S1.955,29.47,1.955,20.475
		c0-6.435,2.183-2.926,2.358-4.587C4.76,11.643,12.246,0,25.989,4.827c0.779,0.274,1.261-1.136,2.122-0.838
		C29.564,4.492,38.548,8.911,37.418,20.336z"/>
</g>
<g id="Ebene_2">
	<path fill="#AA5733" d="M36.823,13.553c0,0,1.671,3.403,1.307,7.235c-1.228,12.915-11.927,17.413-17.364,17.365
		C5.31,38.019,2.435,24.181,2.435,24.181c0-0.886,3.266-2.364,7.903-2.812c4.645-0.448,7.399,1.898,9.888,0.279
		c0.438-0.285,3.713-4.138,5.81-5.419C28.916,14.47,33.307,13.553,36.823,13.553z"/>
</g>
</svg>
