<?xml version="1.0" encoding="UTF-8" standalone="no"?>
<!-- Generator: Adobe Illustrator 15.0.0, SVG Export Plug-In . SVG Version: 6.00 Build 0)  -->

<svg
   xmlns:dc="http://purl.org/dc/elements/1.1/"
   xmlns:cc="http://creativecommons.org/ns#"
   xmlns:rdf="http://www.w3.org/1999/02/22-rdf-syntax-ns#"
   xmlns:svg="http://www.w3.org/2000/svg"
   xmlns="http://www.w3.org/2000/svg"
   xmlns:sodipodi="http://sodipodi.sourceforge.net/DTD/sodipodi-0.dtd"
   xmlns:inkscape="http://www.inkscape.org/namespaces/inkscape"
   version="1.1"
   x="0px"
   y="0px"
   width="40px"
   height="40px"
   viewBox="0 0 40 40"
   enable-background="new 0 0 40 40"
   xml:space="preserve"
   id="svg2"
   inkscape:version="0.92.2 (5c3e80d, 2017-08-06)"
   sodipodi:docname="club.svg"
   inkscape:export-filename="G:\LGV_G3\Icons\club.png"
   inkscape:export-xdpi="95.216728"
   inkscape:export-ydpi="95.216728"><metadata
     id="metadata24"><rdf:RDF><cc:Work
         rdf:about=""><dc:format>image/svg+xml</dc:format><dc:type
           rdf:resource="http://purl.org/dc/dcmitype/StillImage" /><dc:title></dc:title></cc:Work></rdf:RDF></metadata><defs
     id="defs22" /><sodipodi:namedview
     pagecolor="#ffffff"
     bordercolor="#666666"
     borderopacity="1"
     objecttolerance="10"
     gridtolerance="10"
     guidetolerance="10"
     inkscape:pageopacity="0"
     inkscape:pageshadow="2"
     inkscape:window-width="1810"
     inkscape:window-height="886"
     id="namedview20"
     showgrid="false"
     inkscape:zoom="17.797186"
     inkscape:cx="4.1662321"
     inkscape:cy="19.925691"
     inkscape:window-x="1927"
     inkscape:window-y="25"
     inkscape:window-maximized="0"
     inkscape:current-layer="layer1" /><g
     id="Ebene_7"><path
       stroke-miterlimit="10"
       d="m 37.162,38.234 c 0,0.38 -0.392,0.703 -0.782,0.703 H 5.313 C 4.926,38.937 4.202,38.33 4.202,37.95 L 3.938,20 C 3.938,19.34 2,19.125 2,19.125 c 0,0 17.195,-17.459 17.449,-17.709 0.335,-0.32 0.79,-0.218 1.006,-0.009 0.166,0.16 17.905,17.551 17.905,17.551 0,0 -1.296,0.499 -1.254,1.117 l 0.03979,12.901749 z"
       id="path5"
       style="clip-rule:evenodd;fill:#0b1e93;fill-opacity:1;fill-rule:evenodd;stroke:#020a4b;stroke-width:2;stroke-miterlimit:10;stroke-opacity:1"
       inkscape:connector-curvature="0"
       sodipodi:nodetypes="cssccccccccc" /></g><g
     id="Ebene_9"><polygon
       fill-rule="evenodd"
       clip-rule="evenodd"
       fill="#F9E7CD"
       points="20,2.369 3.958,18.583 5.486,20 21.575,3.933  "
       id="polygon8"
       style="fill:#e5eafc;fill-opacity:1" /></g><g
     inkscape:groupmode="layer"
     id="layer2"
     inkscape:label="Layer 1" /><g
     id="Ebene_8"><path
       fill-rule="evenodd"
       clip-rule="evenodd"
       fill="#EE8F36"
       d="M36.103,37.915c-0.774,0.007-1.194,0.035-1.566,0.035H5.625   c-0.605,0.08-0.542-0.294-0.542-0.408l0.042-6.25c0-0.202,1.482-0.821,1.482-0.821s12.561-3.924,12.872-4.022   c0.318-0.098,0.75-0.065,0.955-0.004c0.205,0.064,14.516,4.568,14.516,4.568s1.114,0.233,1.152,0.425V37.915z"
       id="path11"
       style="fill:#07165d;fill-opacity:1" /></g><g
     inkscape:groupmode="layer"
     id="layer1"
     inkscape:label="Ebene"><g
       transform="translate(-0.64082676,0.52515188)"
       id="Ebene_4"
       style="fill:#000000" /><ellipse
       style="opacity:0.98999999;fill:#ffffff;fill-opacity:1;stroke:none;stroke-width:1.20000005;stroke-linecap:square;stroke-linejoin:miter;stroke-miterlimit:4;stroke-dasharray:none;stroke-opacity:1"
       id="path4520"
       cx="12.221034"
       cy="33.397831"
       rx="3.7365458"
       ry="2.4442067" /><ellipse
       style="opacity:0.98999999;fill:#ffffff;fill-opacity:1;stroke:none;stroke-width:1.20000005;stroke-linecap:square;stroke-linejoin:miter;stroke-miterlimit:4;stroke-dasharray:none;stroke-opacity:1"
       id="path4520-0"
       cx="24.618904"
       cy="29.907322"
       rx="3.7365458"
       ry="2.4442067" /><rect
       style="opacity:0.98999999;fill:#ffffff;fill-opacity:1;stroke:none;stroke-width:1.20000005;stroke-linecap:square;stroke-linejoin:miter;stroke-miterlimit:4;stroke-dasharray:none;stroke-opacity:1"
       id="rect4537"
       width="1.6856598"
       height="13.372901"
       x="14.271918"
       y="20.109215" /><rect
       style="opacity:0.98999999;fill:#ffffff;fill-opacity:1;stroke:none;stroke-width:1.20000005;stroke-linecap:square;stroke-linejoin:miter;stroke-miterlimit:4;stroke-dasharray:none;stroke-opacity:1"
       id="rect4537-0"
       width="1.6856598"
       height="13.372901"
       x="26.633425"
       y="16.56933" /><path
       style="fill:#ffffff;fill-opacity:1;fill-rule:evenodd;stroke:none;stroke-width:1.08512485px;stroke-linecap:butt;stroke-linejoin:miter;stroke-opacity:1"
       d="M 14.327661,15.448182 14.271921,20.783478 28.319086,18.449286 28.2076,13.647519 Z"
       id="path4554"
       inkscape:connector-curvature="0" /></g></svg>