<?xml version="1.0" encoding="utf-8"?>
<!-- Generator: Adobe Illustrator 15.0.0, SVG Export Plug-In . SVG Version: 6.00 Build 0)  -->
<!DOCTYPE svg PUBLIC "-//W3C//DTD SVG 1.1//EN" "http://www.w3.org/Graphics/SVG/1.1/DTD/svg11.dtd">
<svg version="1.1" xmlns="http://www.w3.org/2000/svg" xmlns:xlink="http://www.w3.org/1999/xlink" x="0px" y="0px" width="40px"
	 height="40px" viewBox="0 0 40 40" enable-background="new 0 0 40 40" xml:space="preserve">
<g id="Ebene_7">
	<path fill-rule="evenodd" clip-rule="evenodd" fill="#FFF48D" stroke="#FCE01A" stroke-width="2" stroke-miterlimit="10" d="
		M37.162,38.234c0,0.38-0.392,0.703-0.782,0.703H5.313c-0.387,0-1.111-0.607-1.111-0.987L3.938,20C3.938,19.34,2,19.125,2,19.125
		S19.195,1.666,19.449,1.416c0.335-0.32,0.79-0.218,1.006-0.009C20.621,1.567,38.36,18.958,38.36,18.958s-1.296,0.499-1.254,1.117
		L37.162,38.234z"/>
</g>
<g id="Ebene_9">
	<polygon fill-rule="evenodd" clip-rule="evenodd" fill="#FFFFFF" points="20,2.369 4.201,18.625 5.486,20 21.575,3.933 	"/>
</g>
<g id="Ebene_8">
	<path fill-rule="evenodd" clip-rule="evenodd" fill="#FCE61A" d="M36.103,37.915c-0.774,0.007-1.194,0.035-1.566,0.035L4.917,37.92
		C4.313,38,4.5,37.614,4.5,37.5v-6.094c0-0.202,2.107-0.936,2.107-0.936s12.561-3.924,12.872-4.022
		c0.318-0.098,0.75-0.065,0.955-0.004c0.205,0.064,14.516,4.568,14.516,4.568s1.114,0.233,1.152,0.425V37.915z"/>
</g>
<g id="Ebene_12">
	<path fill="#FFFFFF" stroke="#000000" stroke-width="2" stroke-miterlimit="10" d="M16.179,18h9.548c0,0,0.299,0.149,0.348,0.563
		c0.051,0.411-1.939,1.909-1.939,2.871c0,0.963,2.749,6.771,3.283,7.465c1.173,1.523,2.313,3.175,2.088,3.869
		c-0.944,2.935-16.745,3.252-17.903,0.147c-0.239-0.643,1.22-2.762,1.785-3.646c0.693-1.087,4.034-6.434,3.984-7.717
		c-0.049-1.284-1.939-2.488-1.791-2.945C15.731,18.148,16.179,18,16.179,18z"/>
	<line fill="#FFFFFF" stroke="#000000" stroke-miterlimit="10" x1="19.507" y1="23.314" x2="17.194" y2="28.439"/>
	<path fill="#799FDB" d="M28.738,32.711l-0.608-1.107c0,0-7.917-4.992-14.88,0.113c-0.923,0.677-0.514,1.094-0.514,1.094
		s1.639,1.252,7.956,1.252C25.625,34.063,28.738,32.711,28.738,32.711z"/>
</g>
</svg>
