<?xml version="1.0" encoding="UTF-8" standalone="no"?>
<!-- Generator: Adobe Illustrator 15.0.0, SVG Export Plug-In . SVG Version: 6.00 Build 0)  -->

<svg
   xmlns:dc="http://purl.org/dc/elements/1.1/"
   xmlns:cc="http://creativecommons.org/ns#"
   xmlns:rdf="http://www.w3.org/1999/02/22-rdf-syntax-ns#"
   xmlns:svg="http://www.w3.org/2000/svg"
   xmlns="http://www.w3.org/2000/svg"
   xmlns:sodipodi="http://sodipodi.sourceforge.net/DTD/sodipodi-0.dtd"
   xmlns:inkscape="http://www.inkscape.org/namespaces/inkscape"
   version="1.1"
   x="0px"
   y="0px"
   width="40px"
   height="40px"
   viewBox="0 0 40 40"
   enable-background="new 0 0 40 40"
   xml:space="preserve"
   id="svg2"
   inkscape:version="0.91 r13725"
   sodipodi:docname="geplant_perspektive_wohnen_portal.svg"
   inkscape:export-filename="G:\AG_GDI-HH\Icons\fluechtlinge\geplant_perspektive_wohnen_portal.png"
   inkscape:export-xdpi="90"
   inkscape:export-ydpi="90"><metadata
     id="metadata24"><rdf:RDF><cc:Work
         rdf:about=""><dc:format>image/svg+xml</dc:format><dc:type
           rdf:resource="http://purl.org/dc/dcmitype/StillImage" /><dc:title></dc:title></cc:Work></rdf:RDF></metadata><defs
     id="defs22" /><sodipodi:namedview
     pagecolor="#ffffff"
     bordercolor="#666666"
     borderopacity="1"
     objecttolerance="10"
     gridtolerance="10"
     guidetolerance="10"
     inkscape:pageopacity="0"
     inkscape:pageshadow="2"
     inkscape:window-width="1800"
     inkscape:window-height="1002"
     id="namedview20"
     showgrid="false"
     inkscape:zoom="17.797186"
     inkscape:cx="30.021386"
     inkscape:cy="19.797663"
     inkscape:window-x="1935"
     inkscape:window-y="32"
     inkscape:window-maximized="0"
     inkscape:current-layer="svg2" /><g
     id="Ebene_7"
     style="fill:#f8d6f6;fill-opacity:1"><path
       stroke-miterlimit="10"
       d="m 1.6628681,38.959596 c 0,0 17.5321319,-37.293596 17.7861319,-37.543596 0.335,-0.32 0.79,-0.218 1.006,-0.009 0.166,0.16 17.961189,37.610351 17.961189,37.610351 z"
       id="path5"
       style="fill:#e9c6fd;fill-opacity:1;fill-rule:evenodd;stroke:#9a07ed;stroke-width:2;stroke-miterlimit:10;stroke-opacity:1"
       inkscape:connector-curvature="0"
       sodipodi:nodetypes="ccccc"
       clip-rule="evenodd" /></g><g
     id="Ebene_9"
     transform="matrix(0.96791403,-0.25128157,0.14708596,0.56656189,-0.66085773,8.0307455)"><polygon
       clip-rule="evenodd"
       points="21.575,3.933 20,2.369 3.958,18.583 5.486,20 "
       id="polygon8"
       style="fill:#e0adfc;fill-opacity:1;fill-rule:evenodd"
       transform="matrix(0.9449333,-0.32726299,0.32726299,0.9449333,0.02073498,7.2661976)" /></g><g
     id="Ebene_8"
     transform="matrix(1.0018114,0,0,1,-0.00920719,0)"
     style="fill:#e0adfc;fill-opacity:1"><path
       clip-rule="evenodd"
       d="M 36.724395,37.95 3.2693434,37.893811 c 5.2450617,-10.9291 0.9568979,-4.984842 13.4613906,-8.017303 0.318,-0.098 7.648709,-4.728658 12.957631,-2.139169 3.116609,1.414865 4.230247,3.729872 7.03603,10.212661 z"
       id="path11"
       style="fill:#e0adfc;fill-opacity:1;fill-rule:evenodd"
       inkscape:connector-curvature="0"
       sodipodi:nodetypes="ccccc" /></g><g
     inkscape:groupmode="layer"
     id="layer1"
     inkscape:label="Ebene" /><g
     transform="matrix(0.8688235,0,0,1.1275915,2.4387166,-2.9518739)"
     style="font-size:13.07572079px;font-style:normal;font-weight:bold;line-height:125%;letter-spacing:0px;word-spacing:0px;fill:#7005ab;fill-opacity:1;stroke:none;font-family:Sans;-inkscape-font-specification:Sans Bold"
     id="text2995"><path
       d="m 10.885271,34.653378 0,-9.359867 3.032699,0 c 1.149228,9e-6 1.898357,0.04683 2.247389,0.140462 0.536302,0.140471 0.985354,0.445869 1.347157,0.916194 0.361788,0.470342 0.542685,1.077946 0.542693,1.822812 -8e-6,0.574622 -0.10429,1.057725 -0.312846,1.449311 -0.208573,0.391595 -0.473534,0.699121 -0.794887,0.922579 -0.321366,0.223465 -0.648046,0.371376 -0.98004,0.443731 -0.451186,0.08939 -1.104546,0.134081 -1.960082,0.134078 l -1.232233,0 0,3.5307 z m 1.88985,-7.776479 0,2.656006 1.03431,0 c 0.744869,5e-6 1.242869,-0.04894 1.494003,-0.146847 0.251123,-0.09789 0.447982,-0.251123 0.590578,-0.459693 0.142584,-0.208559 0.213879,-0.451174 0.213885,-0.727848 -6e-6,-0.340506 -0.100031,-0.62143 -0.300077,-0.842771 -0.200058,-0.221326 -0.453314,-0.35966 -0.759771,-0.415001 -0.225595,-0.04256 -0.678903,-0.06384 -1.359926,-0.06385 z"
       style="fill:#7005ab;fill-opacity:1"
       id="path3768"
       inkscape:connector-curvature="0" /><path
       d="m 20.947446,34.653378 -2.23462,-9.359867 1.934543,0 1.411003,6.429322 1.711081,-6.429322 2.247389,0 1.64085,6.53786 1.436541,-6.53786 1.90262,0 -2.272928,9.359867 -2.004774,0 -1.864311,-6.997554 -1.857928,6.997554 z"
       style="fill:#7005ab;fill-opacity:1"
       id="path3770"
       inkscape:connector-curvature="0" /></g></svg>