<?xml version="1.0" encoding="utf-8"?>
<!-- Generator: Adobe Illustrator 15.0.0, SVG Export Plug-In . SVG Version: 6.00 Build 0)  -->
<!DOCTYPE svg PUBLIC "-//W3C//DTD SVG 1.1//EN" "http://www.w3.org/Graphics/SVG/1.1/DTD/svg11.dtd">
<svg version="1.1" xmlns="http://www.w3.org/2000/svg" xmlns:xlink="http://www.w3.org/1999/xlink" x="0px" y="0px" width="40px"
	 height="40px" viewBox="0 0 40 40" enable-background="new 0 0 40 40" xml:space="preserve">
<g id="Ebene_1">
	<g id="XMLID_1_">
		<g>
			<path fill="#FCF7E3" d="M20,1c10.49,0,19,8.51,19,19s-8.51,19-19,19S1,30.49,1,20S9.51,1,20,1z"/>
		</g>
		<g>
			<path fill="none" stroke="#463D16" stroke-width="2" stroke-miterlimit="10" d="M39,20c0,10.49-8.51,19-19,19S1,30.49,1,20
				S9.51,1,20,1S39,9.51,39,20z"/>
		</g>
	</g>
	<g id="Ebene_6">
		<path fill="#B5A96D" d="M37.721,20.469c-0.677,9.741-8.056,17.549-17.618,17.549S1.955,29.47,1.955,20.475
			c0-3.246,0.479-3.972,0.479-3.972s1.667,0.296,1.878-0.727c0.95-4.581,7.997-15.503,21.62-11.005
			c0.588,0.194,1.285-1.281,1.285-1.281s1.988,0.919,3.033,1.673C30.622,5.432,38.484,9.485,37.721,20.469z"/>
	</g>
	<g id="Ebene_2">
		<path fill="#9B8C42" d="M36.823,13.553c0,0,1.671,3.403,1.307,7.235c-1.228,12.915-11.927,17.413-17.364,17.365
			C5.31,38.019,2.435,24.181,2.435,24.181c0-0.886,3.266-2.364,7.903-2.812c4.645-0.448,7.399,1.898,9.888,0.279
			c0.438-0.285,3.713-4.138,5.81-5.419C28.916,14.47,33.307,13.553,36.823,13.553z"/>
	</g>
</g>
<g id="Ebene_4">
	<path fill="#330000" d="M18.005,23c0.056,0-0.017-2.645-0.017-2.645c-1.285-1.453-2.776-0.901-3.167-2.689
		c-0.325-1.484-0.936-2.311-0.391-4.492c0.447-1.788-0.449-5.889,3.687-6.073c2.514-0.112,4.375,0.606,4.19,2.634
		c-0.18,1.973-0.129,3.205,0.374,4.77c0.406,1.264,0.445,3.561-0.168,4.081c-0.414,0.352-2.179,0.099-2.179,1.825
		c0,1.34,0.185,2.59,0.185,2.59H18.005z"/>
	<path fill="#330000" d="M28.711,31l-0.069-2.106c0,0-1.609-0.108-2.028-1.019c-0.42-0.908-1.049-2.888-0.839-3.657
		c0.209-0.769-0.352-3.821,0.488-4.871c0.841-1.049,0.42-2.75,2.31-2.959c1.889-0.21,2.378-0.502,3.078,0.758
		c0.699,1.26,1.329,2.443,1.049,3.842c-0.28,1.399,0.279,2.724,0.069,3.913c-0.209,1.19-0.209,2.31-0.628,2.588
		c-0.42,0.279-1.959,1.126-1.959,1.126L30.111,31H28.711z"/>
	<path fill="#330000" d="M10.291,29.408l-0.092-2.057c0,0-0.824,0.138-1.51-0.755s-0.96-1.167-0.96-2.128
		c0-1.379,0.274-2.128,1.097-2.676c0.824-0.549,1.425-0.539,2.608-0.48c1.372,0.068,1.921,0.686,2.059,1.51
		c0.137,0.824,0.525,2.254,0.206,3.019c-0.343,0.823-1.374,0.895-1.853,1.1c-0.48,0.205-0.343,2.119-0.343,2.119L10.291,29.408z"/>
	<rect x="8" y="29" fill="#330000" width="6" height="1"/>
	<polygon fill="#330000" points="22.419,23.933 16,24 16,23 22.475,23.039 	"/>
	<rect x="26" y="31" fill="#330000" width="6" height="1"/>
</g>
</svg>
