<?xml version="1.0" encoding="UTF-8" standalone="no"?>
<!-- Generator: Adobe Illustrator 15.0.0, SVG Export Plug-In . SVG Version: 6.00 Build 0)  -->

<svg
   xmlns:dc="http://purl.org/dc/elements/1.1/"
   xmlns:cc="http://creativecommons.org/ns#"
   xmlns:rdf="http://www.w3.org/1999/02/22-rdf-syntax-ns#"
   xmlns:svg="http://www.w3.org/2000/svg"
   xmlns="http://www.w3.org/2000/svg"
   xmlns:sodipodi="http://sodipodi.sourceforge.net/DTD/sodipodi-0.dtd"
   xmlns:inkscape="http://www.inkscape.org/namespaces/inkscape"
   version="1.1"
   x="0px"
   y="0px"
   width="40px"
   height="40px"
   viewBox="0 0 40 40"
   enable-background="new 0 0 40 40"
   xml:space="preserve"
   id="svg2"
   inkscape:version="0.48.3.1 r9886"
   sodipodi:docname="hk_allee.svg"
   inkscape:export-filename="M:\Themen\Icons\Icons_MRH\Grundkonzept\Icons_MRH_neues_Konzept\neues_konzept_sport_natur\hk_allee_2.png"
   inkscape:export-xdpi="90"
   inkscape:export-ydpi="90"><metadata
   id="metadata27"><rdf:RDF><cc:Work
       rdf:about=""><dc:format>image/svg+xml</dc:format><dc:type
         rdf:resource="http://purl.org/dc/dcmitype/StillImage" /><dc:title></dc:title></cc:Work></rdf:RDF></metadata><defs
   id="defs25" /><sodipodi:namedview
   pagecolor="#ffffff"
   bordercolor="#666666"
   borderopacity="1"
   objecttolerance="10"
   gridtolerance="10"
   guidetolerance="10"
   inkscape:pageopacity="0"
   inkscape:pageshadow="2"
   inkscape:window-width="1108"
   inkscape:window-height="969"
   id="namedview23"
   showgrid="false"
   inkscape:zoom="19.75"
   inkscape:cx="26.187977"
   inkscape:cy="20"
   inkscape:window-x="1996"
   inkscape:window-y="59"
   inkscape:window-maximized="0"
   inkscape:current-layer="svg2" />
<g
   id="Ebene_1">
	<g
   id="XMLID_1_">
		<g
   id="g6">
			<path
   fill="#FCF7E3"
   d="M20,1c10.49,0,19,8.51,19,19s-8.51,19-19,19S1,30.49,1,20S9.51,1,20,1z"
   id="path8" />
		</g>
		<g
   id="g10">
			<path
   fill="none"
   stroke="#463D16"
   stroke-width="2"
   stroke-miterlimit="10"
   d="M39,20c0,10.49-8.51,19-19,19S1,30.49,1,20     S9.51,1,20,1S39,9.51,39,20z"
   id="path12" />
		</g>
	</g>
	<g
   id="Ebene_6">
		<path
   fill="#B5A96D"
   d="M37.721,20.469c-0.677,9.741-8.056,17.549-17.618,17.549S1.955,29.47,1.955,20.475    c0-3.246,0.479-3.972,0.479-3.972s1.667,0.296,1.878-0.727c0.95-4.581,7.997-15.503,21.62-11.005    c0.588,0.194,1.285-1.281,1.285-1.281s1.988,0.919,3.033,1.673C30.622,5.432,38.484,9.485,37.721,20.469z"
   id="path15" />
	</g>
	<g
   id="Ebene_2">
		<path
   fill="#9B8C42"
   d="M36.823,13.553c0,0,1.671,3.403,1.307,7.235c-1.228,12.915-11.927,17.413-17.364,17.365    C5.31,38.019,2.435,24.181,2.435,24.181c0-0.886,3.266-2.364,7.903-2.812c4.645-0.448,7.399,1.898,9.888,0.279    c0.438-0.285,3.713-4.138,5.81-5.419C28.916,14.47,33.307,13.553,36.823,13.553z"
   id="path18" />
	</g>
</g>
<g
   id="Ebene_4">
	<path
   d="M 11.169924,26.157266 C 10.162633,24.460544 10.57243,22.786089 10.57243,22.786089 9.2274557,23.502608 7.3282025,23.300075 6.0992025,22.573075 4.538038,22.306404 4.1286709,20.517671 4.8823418,19.364532 c 1.3356329,-1.949633 1.5193164,-3.235785 3.8564173,-4.738013 2.9649999,-1.006 1.5486719,-0.537911 4.6131019,-1.144873 2.763836,-0.511696 5.85657,1.577746 5.07057,4.133746 -1.492899,2.736747 -5.533165,4.971494 -5.533165,4.971494 0,0 -0.766294,2.159823 0.578063,3.212126 C 14.825834,26.86239 23.698,25.776 23.698,25.776 c 0,0 1.812,0.018 5.698,-1.062 4.022,-1.117 5.14,-1.396 6.815,-3.296 1.582,-1.793 1.844,-3.743 1.844,-3.743 0,0 0.197,1.51 0.112,2.849 -0.057,0.894 -0.106,1.384 -0.336,1.844 -0.391,0.781 -0.446,0.726 -1.396,1.452 -0.418,0.319 -0.843,1.117 -3.637,2.29 -3.095,1.299 -5.706671,2.527329 -8.711671,3.188329 -2.793,0.614 -3.937797,0.526165 -6.783797,0.868165 -2.793,0.335 -5.246,-0.310165 -6.419,1.254835 C 9.7105316,32.986329 12.58,36.502 12.58,36.502 c 0,0 -0.981,-0.029 -4.86,-3.24 -1.62,-1.341 -2.849,-3.575 -2.849,-3.575 0,0 1.118,-2.012 3.073,-2.794 1.0104472,-0.390168 1.1107453,-0.424045 3.225924,-0.735734 z"
   id="path21"
   inkscape:connector-curvature="0"
   style="fill:#330000"
   sodipodi:nodetypes="ccccccccsccccccccccscsccc" />
</g>
<path
   style="fill:#330000"
   inkscape:connector-curvature="0"
   d="M 25.650354,20.260348 C 21.878502,19.63446 21.915824,19.63446 21.180831,19.1817 c -0.78224,-0.481404 -1.05734,-1.658452 -0.303806,-2.818061 0.768483,-1.182652 2.089559,-3.371085 3.578086,-3.896707 1.773195,-0.626513 3.621145,-1.18639 5.241838,-1.217527 1.804294,-0.03488 3.71444,1.991636 3.244379,3.583452 -0.801974,2.713434 -4.532652,4.705508 -4.532652,4.705508 0,0 -0.853396,2.044165 -0.352236,2.983311 0.03411,1.462917 1.912732,2.193612 1.612386,2.229134 -2.432908,0.726401 -4.196854,2.066828 -4.018472,-4.490462 z"
   id="path21-1"
   sodipodi:nodetypes="cccccccccc" /></svg>