<?xml version="1.0" encoding="utf-8"?>
<!-- Generator: Adobe Illustrator 16.0.0, SVG Export Plug-In . SVG Version: 6.00 Build 0)  -->
<!DOCTYPE svg PUBLIC "-//W3C//DTD SVG 1.1//EN" "http://www.w3.org/Graphics/SVG/1.1/DTD/svg11.dtd">
<svg version="1.1" xmlns="http://www.w3.org/2000/svg" xmlns:xlink="http://www.w3.org/1999/xlink" x="0px" y="0px" width="40px"
	 height="40px" viewBox="0 0 40 40" enable-background="new 0 0 40 40" xml:space="preserve">
<g id="Ebene_1">
	<g id="XMLID_1_">
		<g>
			<path fill="#FCF7E3" d="M20,1c10.49,0,19,8.51,19,19s-8.51,19-19,19S1,30.49,1,20S9.51,1,20,1z"/>
		</g>
		<g>
			<path fill="none" stroke="#463D16" stroke-width="2" stroke-miterlimit="10" d="M39,20c0,10.49-8.51,19-19,19S1,30.49,1,20
				S9.51,1,20,1S39,9.51,39,20z"/>
		</g>
	</g>
	<g id="Ebene_6">
		<path fill="#B5A96D" d="M37.721,20.469c-0.677,9.741-8.056,17.549-17.618,17.549S1.955,29.47,1.955,20.475
			c0-3.246,0.479-3.972,0.479-3.972s1.667,0.296,1.878-0.727c0.95-4.581,7.997-15.503,21.62-11.005
			c0.588,0.194,1.285-1.281,1.285-1.281s1.988,0.919,3.033,1.673C30.622,5.432,38.484,9.485,37.721,20.469z"/>
	</g>
	<g id="Ebene_2">
		<path fill="#9B8C42" d="M36.823,13.553c0,0,1.671,3.403,1.307,7.235c-1.228,12.915-11.927,17.413-17.364,17.365
			C5.31,38.019,2.435,24.181,2.435,24.181c0-0.886,3.266-2.364,7.903-2.812c4.645-0.448,7.399,1.898,9.888,0.279
			c0.438-0.285,3.713-4.138,5.81-5.419C28.916,14.47,33.307,13.553,36.823,13.553z"/>
	</g>
</g>
<g id="Ebene_4">
	<path fill="#2D1B1B" d="M14.333,30c0,0-3.03-4.339-4.556-5.567c-2.207-1.777-4.146-4.286-4.486-5.749
		c-0.198-0.85,7.447,7.762,7.447,7.762s0.918,0.712,0.436-1.239s-3.731-5.918-4.55-6.706c-0.818-0.788-1.375-1.833-1.375-1.833
		s3.445,2.663,4.167,4.087c0.723,1.427,2.38,4.377,2.525,5.39c0.145,1.014,0.579,0.451,0.386-0.675
		c-0.193-1.126-0.777-3.3-1.328-4.715c-0.481-1.238-2.67-6.054-2.314-5.491c0.578,0.914,1.512,2.594,1.897,3.42
		c0.386,0.825,2.25,5.858,2.25,5.858s-0.168-3.125-0.457-4.026c-0.29-0.9-0.82-2.889-0.82-3.902S13.098,15.003,13,13.958
		c-0.091-0.967-0.294-1.063-0.583-1.25c-0.289-0.188-0.463-1.106-0.583-1.792c-0.144-0.826-0.445-3.035-0.208-3.417
		c0.208-0.335,1.521,2.883,1.375,2.333c-0.137-0.518,0.656,2.479,0.667,2.417c0.045-0.263-0.292,0.75-0.292,0.75
		s0.207,0.745,0.417,1.208c0.208,0.458,0.294,3.531,0.487,4.244s0.877,1.625,0.771,2.177c-0.175,0.913,1.908,9.371,0.65-0.21
		c-0.198-1.507,0.335-2.072,0.383-3.835c0.048-1.764,0.315-3.439,0.219-3.711c-0.096-0.272-0.29-0.423-0.434-0.573
		c-0.145-0.15-0.191-1.651-0.096-2.289c0.096-0.638,1.471-5.931,1.269-0.385c-0.022,0.602,0.138,1.746,0.042,2.083
		c-0.095,0.337-0.448,1.154-0.4,1.529c0.049,0.375-0.166,2.364-0.166,3.677c0,1.313-0.277,1.914-0.084,3.04
		c0.194,1.126,0.377,0.845,0.489,2.101c0.452,5.07,1.715,4.318,1.494,1.654c-0.109-1.313-2.309-2.855-0.286-5.031
		c2.022-2.177,1.878-2.327,4.191-2.852c2.313-0.525,3.036-0.45,2.217-0.188c-0.819,0.262-2.313,0.413-3.419,1.088
		c-1.109,0.675-1.446,1.013-1.976,1.952c-0.53,0.938-1.349,0.75-1.252,2.138c0.096,1.389,1.229,1.617,1.566,3.476
		c0.337,1.858-2.065,2.62-1.68,4.083C18.164,29.839,17.759,29.513,18,30S14.333,30,14.333,30z"/>
	<path fill="#2D1B1B" d="M22.544,28.185c0,0,0.607-1.499-0.014-3.343c-0.62-1.845-1.439-2.574-1.962-3.864
		c-0.525-1.288-1.159-2.621-1.034-3.373c0.124-0.751,0.36-1.735-0.355-2.745c-0.716-1.009-1.813-2.301-1.241-1.953
		c0.572,0.348,1.182,1.46,1.592,1.842c0.41,0.383,0.668,0.835,0.754,1.392c0.085,0.557-0.515,1.885,0,2.439
		c0.515,0.554,0.085,1.389,0.658,2.05c0.573,0.662,0.62,1.183,1.241,2.07c0.619,0.89,0.219,1.201,0.61,1.759
		c0.391,0.558,0.725,0.697,0.677,0.07S23.448,22.705,23.208,21c-0.238-1.706-0.728-5.617-0.833-6.208
		c-0.104-0.592,0.047-2.316-0.125-3.292c-0.171-0.974-0.009-0.964-0.25-1.125c-0.29-0.195-0.5-0.755-0.5-1.625
		s0.113-2.818,0.542-3.167C22.473,5.235,23,7.014,23,7.014s0.458,2.152-0.292,3.319c-0.246,0.383,0.896,5.952,0.75,6.697
		c-0.145,0.745,0.702,2.378,0.75,2.97c0.046,0.591,0.113,2.058,0.449,1.431c0.339-0.627,0.911-2.263,0.864-3.342
		c-0.049-1.079,0.055-3.62,0.003-4.143c-0.052-0.522,0.271-0.975,0.014-1.114c-0.256-0.14-0.16-0.801-0.16-1.288
		c0-0.488,0.284-0.975,0.262-1.114c-0.023-0.139,0.814-2.681,1.004-2.472c0.19,0.209-0.36,4.162-0.313,4.466
		c0.049,0.304-0.048,0.514-0.19,0.548c-0.144,0.035-0.144,0.313-0.144,0.313s0.021,1.403-0.064,1.446
		c-0.085,0.043-0.077,2.6-0.126,2.856c-0.048,0.258,0.048,1.093-0.048,1.511c-0.095,0.418-0.095,0.906-0.095,1.357
		c0,0.453,0.095,0.801,0.381,0.419c0.286-0.383,0.669-0.558,0.621-1.393c-0.049-0.835,0.008-2.263,0.004-2.924
		c-0.004-0.662-0.196-0.836,1.045-1.671c1.24-0.835,1.574-1.184,2.575-1.114c1.001,0.069,1.145,0.383,0.715,0.383
		c-0.429,0-0.812-0.14-1.43,0.174c-0.62,0.313-1.145,0.661-1.479,1.009c-0.333,0.348-0.81,0.766-0.81,1.253
		c0,0.488-0.097,0.454,0,1.602c0.095,1.148,0.047,1.879,0.095,2.576c0.047,0.696,0.524,0.869,0.668,0.278
		c0.143-0.592,0.239-0.905,0.906-2.02c0.666-1.114,0.763-2.019,1.764-2.854c1.002-0.835,1.624-1.114,0.813-0.348
		c-0.813,0.766-1.525,2.542-2.004,3.272c-0.477,0.731-0.953,1.426-1.432,2.437c-0.477,1.01-0.764,1.01-1.192,2.088
		c-0.428,1.08-1.286,1.324-0.952,2.578c0.332,1.253,0.524,2.018,0.236,1.983C25.902,28.149,22.544,28.185,22.544,28.185z"/>
	<rect x="13" y="32" fill="#2D1B1B" width="10" height="1"/>
	<rect x="18" y="35" fill="#2D1B1B" width="10" height="1"/>
	<rect x="20" y="29" fill="#2D1B1B" width="10" height="1"/>
	<g>
	</g>
	<g>
	</g>
	<g>
	</g>
	<g>
	</g>
	<g>
	</g>
	<g>
	</g>
	<g>
	</g>
	<g>
	</g>
	<g>
	</g>
	<g>
	</g>
	<g>
	</g>
	<g>
	</g>
	<g>
	</g>
	<g>
	</g>
	<g>
	</g>
	<g>
	</g>
	<g>
	</g>
	<g>
	</g>
</g>
</svg>
