<?xml version="1.0" encoding="UTF-8" standalone="no"?>
<!-- Generator: Adobe Illustrator 16.0.0, SVG Export Plug-In . SVG Version: 6.00 Build 0)  -->

<svg
   xmlns:dc="http://purl.org/dc/elements/1.1/"
   xmlns:cc="http://creativecommons.org/ns#"
   xmlns:rdf="http://www.w3.org/1999/02/22-rdf-syntax-ns#"
   xmlns:svg="http://www.w3.org/2000/svg"
   xmlns="http://www.w3.org/2000/svg"
   xmlns:sodipodi="http://sodipodi.sourceforge.net/DTD/sodipodi-0.dtd"
   xmlns:inkscape="http://www.inkscape.org/namespaces/inkscape"
   version="1.1"
   x="0px"
   y="0px"
   width="40px"
   height="40px"
   viewBox="0 0 40 40"
   enable-background="new 0 0 40 40"
   xml:space="preserve"
   id="svg2"
   inkscape:version="0.48.3.1 r9886"
   sodipodi:docname="hk_knick.svg"
   inkscape:export-filename="M:\Themen\Icons\Icons_MRH\Grundkonzept\Icons_MRH_neues_Konzept\neues_konzept_sport_natur\hk_knick.png"
   inkscape:export-xdpi="90"
   inkscape:export-ydpi="90"><metadata
   id="metadata73"><rdf:RDF><cc:Work
       rdf:about=""><dc:format>image/svg+xml</dc:format><dc:type
         rdf:resource="http://purl.org/dc/dcmitype/StillImage" /><dc:title></dc:title></cc:Work></rdf:RDF></metadata><defs
   id="defs71" /><sodipodi:namedview
   pagecolor="#ffffff"
   bordercolor="#666666"
   borderopacity="1"
   objecttolerance="10"
   gridtolerance="10"
   guidetolerance="10"
   inkscape:pageopacity="0"
   inkscape:pageshadow="2"
   inkscape:window-width="1280"
   inkscape:window-height="1002"
   id="namedview69"
   showgrid="false"
   inkscape:zoom="20.575"
   inkscape:cx="19.149453"
   inkscape:cy="20"
   inkscape:window-x="1912"
   inkscape:window-y="-8"
   inkscape:window-maximized="1"
   inkscape:current-layer="svg2" />
<g
   id="Ebene_1">
	<g
   id="XMLID_1_">
		<g
   id="g6">
			<path
   fill="#FCF7E3"
   d="M20,1c10.49,0,19,8.51,19,19s-8.51,19-19,19S1,30.49,1,20S9.51,1,20,1z"
   id="path8" />
		</g>
		<g
   id="g10">
			<path
   fill="none"
   stroke="#463D16"
   stroke-width="2"
   stroke-miterlimit="10"
   d="M39,20c0,10.49-8.51,19-19,19S1,30.49,1,20     S9.51,1,20,1S39,9.51,39,20z"
   id="path12" />
		</g>
	</g>
	<g
   id="Ebene_6">
		<path
   fill="#B5A96D"
   d="M37.721,20.469c-0.677,9.741-8.056,17.549-17.618,17.549S1.955,29.47,1.955,20.475    c0-3.246,0.479-3.972,0.479-3.972s1.667,0.296,1.878-0.727c0.95-4.581,7.997-15.503,21.62-11.005    c0.588,0.194,1.285-1.281,1.285-1.281s1.988,0.919,3.033,1.673C30.622,5.432,38.484,9.485,37.721,20.469z"
   id="path15" />
	</g>
	<g
   id="Ebene_2">
		<path
   fill="#9B8C42"
   d="M36.823,13.553c0,0,1.671,3.403,1.307,7.235c-1.228,12.915-11.927,17.413-17.364,17.365    C5.31,38.019,2.435,24.181,2.435,24.181c0-0.886,3.266-2.364,7.903-2.812c4.645-0.448,7.399,1.898,9.888,0.279    c0.438-0.285,3.713-4.138,5.81-5.419C28.916,14.47,33.307,13.553,36.823,13.553z"
   id="path18" />
	</g>
</g>
<g
   id="Ebene_4">
	<path
   fill="#2D1B1B"
   d="M16.958,34.959c0,0-3.208-4.62-3.458-5.715s-1.042-6.079-1.042-6.079s-0.292-0.082-0.708-0.163   c-0.417-0.08-0.708-1.621-0.542-1.904c0.167-0.284,0.333-0.365,0.625-0.243s0.667,0.011,0.917-0.055s0.328-0.055,0.643,0   s0.315-0.025,0.69-0.046c0.375-0.021,0.542-0.103,0.458,0.182c-0.083,0.284-0.167,1.135-0.417,1.459   C13.875,22.718,13,23.165,13,23.165s0.935,5.728,1.268,6.498s3.107,5.054,3.107,5.054L16.958,34.959z"
   id="path21" />
	<path
   fill="#2D1B1B"
   d="M19,32.709c0,0,1.208-7.584,1-9.959s-1.076-6.75-1.659-7.917s-0.382-1.125-0.882-1.208   s-0.833-0.645-1-1.072s-0.667-1.094-0.333-1.261s0.667,0,0.958,0s0.667,0.269,0.75-0.074s0.333-0.468,0.583-0.384   s0.417,0.034,0.625-0.025s0.542-0.4,0.542,0s0.042,1.172-0.083,1.744s-0.333,0.906-0.542,1.031s0,0.917,0.125,1.458   s1.642,6.625,1.583,7.708s-0.959,8.918-1.167,9.459S19,32.709,19,32.709z"
   id="path23" />
	<path
   fill="#2D1B1B"
   d="M21.76,33.588c0,0,1.897-6.56,2.614-7.906c0.719-1.346,1.62-4.494,2.207-4.96   c0.587-0.467,0.805-0.763,0.851-0.876c0.047-0.113-0.578-0.38-0.431-0.872c0.148-0.492,0.209-1.492,0.584-1.778   c0.375-0.287,0.696,0.252,0.623,0.278c-0.072,0.025-0.161,0.712,0.283,0.66s0.568-0.122,0.673,0.154   c0.104,0.276,0.016,0.425,0.372,0.484c0.357,0.059,0.75,0.197,0.5,0.375c-0.251,0.178-0.484,0.743-1.052,0.865   s-0.967,0.099-0.967,0.099s-0.665,0.425-1.005,0.752c-0.338,0.327-1.806,4.27-2.079,4.842c-0.272,0.572-2.666,7.411-2.686,7.757   C22.228,33.806,21.76,33.588,21.76,33.588z"
   id="path25" />
	<path
   fill="#2D1B1B"
   d="M10.77,24.067c-0.915-0.154-1.099-0.668-1.836-0.309c-0.737,0.36-1.792,1.255-2.257,0.616   s-1.346-1.745-1.438-2.977c-0.092-1.232-1.279-3.336-0.681-4.106c0.599-0.77,2.211-1.771,3.639-2.028   c1.428-0.257,3.271,0.668,4.238,0.335s1.658-0.722,2.718-0.335s2.211,1.259,2.166,2.08s0.371,2.926,0.001,3.49   c-0.37,0.564-0.323,1.848-0.969,2.155c-0.645,0.308-1.932,0.65-1.932,0.394c0-0.258,0.596-0.649,0.688-1.317   c0.092-0.667,0.511-1.392,0-1.796c-0.528-0.418-0.9-0.313-1.777-0.709c-0.942-0.427-0.96,0.229-1.644,0.291   c-0.684,0.062-1.693,0.403-1.647,0.719c0.046,0.314-0.663,1.862,0,2.265C10.703,23.238,10.77,24.067,10.77,24.067z"
   id="path27" />
	<path
   fill="#2D1B1B"
   d="M19.882,14.192c0.422-0.388,0.565-1.52,0.5-1.992c-0.065-0.472-0.253-1.276-0.347-1.702   c-0.093-0.425,0.095-1.135-0.656-0.851s-0.95,0.237-1.413,0.189c-0.463-0.047-0.51,0.124-0.698,0.369s-0.235-0.198-0.938,0   s-1.454,0.246-1.407,0.624c0.047,0.377-0.375,0.697,0.375,1.134c0.75,0.438,0.468,1.276,0.938,1.56   c0.469,0.284-0.253,0.943-0.689,0.542s-1.709-1.063-2.855-0.921c-1.146,0.142-1.896,0.143-1.615-1.04   c0.282-1.183-0.763-2.743-0.059-3.688c0.704-0.945,1.654-1.229,3.061-1.702s1.736-2.05,4.081-1.246   c1.777,0.609,2.486-0.645,3.987,0.064c1.5,0.709,2.104,1.276,2.339,2.222s-0.042,1.976-0.51,2.883   c-0.469,0.908-0.422,1.938-1.548,2.695S19.882,14.192,19.882,14.192z"
   id="path29" />
	<path
   fill="#2D1B1B"
   d="M28.672,20.91c0.77-0.133,1.104-0.085,1.73-0.467c0.625-0.382,1.057-0.906,1.104-1.432   c0.049-0.525,0.146-0.955-0.624-0.955s-0.257-0.334-0.777-0.573s-0.935-0.059-1.224-0.297c-0.288-0.239-0.018-0.541-0.21-0.742   c-0.193-0.202-0.818-0.44-1.202-0.345c-0.385,0.096-1.057,0.061-1.105,0.723s-0.454,1.15-0.347,1.479   c0.106,0.329,0.396,1.331,0.491,1.474c0.096,0.143-0.813,0.171-1.25-0.191c-0.437-0.362-1.201-1.432-1.298-2.243   s0.24-2.291,0.817-3.341c0.576-1.05,0.949-2.434,2.259-2.577c1.309-0.143,2.884,0.053,4.037,0.524   c1.154,0.472,0.914,1.575,1.779,2.291s1.54-0.308,2.212,0.776c0.621,1.004,2.019,2.087,2.019,2.803s-1.634,1.193-2.163,1.861   c-0.529,0.668-0.721,1.282-1.347,1.95c-0.763,0.815-1.633,0.58-2.691,0.437C29.825,21.922,28.672,20.91,28.672,20.91z"
   id="path31" />
	<g
   id="g33">
	</g>
	<g
   id="g35">
	</g>
	<g
   id="g37">
	</g>
	<g
   id="g39">
	</g>
	<g
   id="g41">
	</g>
	<g
   id="g43">
	</g>
	<g
   id="g45">
	</g>
	<g
   id="g47">
	</g>
	<g
   id="g49">
	</g>
	<g
   id="g51">
	</g>
	<g
   id="g53">
	</g>
	<g
   id="g55">
	</g>
	<g
   id="g57">
	</g>
	<g
   id="g59">
	</g>
	<g
   id="g61">
	</g>
	<g
   id="g63">
	</g>
	<g
   id="g65">
	</g>
	<g
   id="g67">
	</g>
</g>
<path
   style="fill:#2d1b1b;fill-opacity:1;stroke:#2d1b1b;stroke-width:1px;stroke-linecap:butt;stroke-linejoin:miter;stroke-opacity:1"
   d="m 11.178614,34.167679 c 0,0 1.020657,0.19441 2.624545,-1.069259 2.504226,-2.521068 3.137607,-6.123786 6.415553,-6.804374 3.207776,0 6.415553,6.950182 7.582017,7.193195 1.166464,0.243013 1.701094,0.194411 1.701094,0.194411 l 0,0.53463 -18.323208,0.388821 z"
   id="path3050"
   inkscape:connector-curvature="0"
   sodipodi:nodetypes="cccscccc" /></svg>