<?xml version="1.0" encoding="utf-8"?>
<!-- Generator: Adobe Illustrator 16.0.0, SVG Export Plug-In . SVG Version: 6.00 Build 0)  -->
<!DOCTYPE svg PUBLIC "-//W3C//DTD SVG 1.1//EN" "http://www.w3.org/Graphics/SVG/1.1/DTD/svg11.dtd">
<svg version="1.1" xmlns="http://www.w3.org/2000/svg" xmlns:xlink="http://www.w3.org/1999/xlink" x="0px" y="0px" width="40px"
	 height="40px" viewBox="0 0 40 40" enable-background="new 0 0 40 40" xml:space="preserve">
<g id="Ebene_1">
	<g id="XMLID_1_">
		<g>
			<path fill="#FCF7E3" d="M20,1c10.49,0,19,8.51,19,19s-8.51,19-19,19S1,30.49,1,20S9.51,1,20,1z"/>
		</g>
		<g>
			<path fill="none" stroke="#463D16" stroke-width="2" stroke-miterlimit="10" d="M39,20c0,10.49-8.51,19-19,19S1,30.49,1,20
				S9.51,1,20,1S39,9.51,39,20z"/>
		</g>
	</g>
	<g id="Ebene_6">
		<path fill="#B5A96D" d="M37.721,20.469c-0.677,9.741-8.056,17.549-17.618,17.549S1.955,29.47,1.955,20.475
			c0-3.246,0.479-3.972,0.479-3.972s1.667,0.296,1.878-0.727c0.95-4.581,7.997-15.503,21.62-11.005
			c0.588,0.194,1.285-1.281,1.285-1.281s1.988,0.919,3.033,1.673C30.622,5.432,38.484,9.485,37.721,20.469z"/>
	</g>
	<g id="Ebene_2">
		<path fill="#9B8C42" d="M36.823,13.553c0,0,1.671,3.403,1.307,7.235c-1.228,12.915-11.927,17.413-17.364,17.365
			C5.31,38.019,2.435,24.181,2.435,24.181c0-0.886,3.266-2.364,7.903-2.812c4.645-0.448,7.399,1.898,9.888,0.279
			c0.438-0.285,3.713-4.138,5.81-5.419C28.916,14.47,33.307,13.553,36.823,13.553z"/>
	</g>
</g>
<g id="Ebene_4">
	<path fill="#2D1B1B" d="M8.628,31.434l2.779-0.299l0.734-0.383l0.499-0.09L12.375,30c0,0-0.268-0.5-0.583-0.371
		s-1.496,0.243-2.125,0.329c-0.628,0.084-3.165-0.117-3.375-0.416c-0.208-0.299,0.382-0.451,0.958-0.75
		c0.576-0.299,1.931-1.063,2.5-1.542c0.61-0.513,1.404-1.666,1.417-1.895c0.025-0.446-1.082,0.208-2.917,0.498
		c-0.466,0.073-1.803,0.014-1.75-0.498c0.051-0.512,3.25-2.237,3.667-2.855c0.245-0.364,1.188-2.075,0.873-2.246
		c-0.314-0.17-0.496,0.458-0.915,0.5c-0.419,0.042-1.292,0.141-1.5-0.254c-0.154-0.292,2.447-2.54,2.708-2.625
		s1.436-2.017,1.122-2.102c-0.314-0.086-1.693,0.604-1.955,0.477c-0.261-0.128,1.489-1.793,1.667-2.083
		c0.241-0.394,0.877-1.772,1.25-1.917c0.317-0.123,1.083,1.133,1.294,1.517c0.208,0.384,1.204,1.377,1.204,1.633
		s-0.642-0.043-0.956,0c-0.315,0.042-0.483,0.842-0.167,1.183c0.314,0.341,0.504,1.137,0.871,1.308
		c0.367,0.17,1.335,0.959,1.283,1.13c-0.052,0.171-1.45,0.251-1.292,0.678c0.158,0.427,2.778,2.773,3.041,2.902
		c0.262,0.129,0.63,0.254,0.367,0.469c-0.262,0.213-0.63,0.512-1.101,0.385c-0.472-0.129-0.944-0.213-1.363-0.258
		c-0.419-0.043-1.049-0.213-0.998,0.086c0.053,0.299,0,0.299,0.42,0.641c0.419,0.342,1.735,1.237,1.854,1.618
		c0.104,0.333-1.645,0.942-2.169,1.028c-0.524,0.084-0.838,0.084-0.524,0.426s2.517,1.238,2.727,1.365
		c0.209,0.129,1.796,0.841,1.481,1.056c-0.314,0.213-1.746,0.43-2.11,0.516c-0.368,0.086-2.237,0.179-2.237,0.692
		c0,0.512,7.323,0.299,7.743,0.34c0.419,0.043,1.783,0.17,2.045,0.129c0.263-0.043,0.263-0.043,0.263-0.043l0.104-1.879
		c0,0-0.313-0.041-0.472,0.043c-0.156,0.086-0.472,0.428-0.892,0.557c-0.418,0.125-1.558,0.193-1.992,0.254
		c-0.715,0.1-2.001-0.103-1.532-0.317c0.471-0.216,2.056-0.876,2.318-1.134c0.262-0.254,0.63-0.639,0.367-0.852
		c-0.262-0.215-0.471-0.215-0.839-0.086c-0.366,0.127-1.144,0.073-1.721,0.03c-0.577-0.041-1.138,0.256-1.559,0.041
		c-0.419-0.213-1.238-0.58-1.708-0.666c-0.472-0.086,3.476-1.57,4-2.084c0.525-0.512,1.095-1.242,1.251-1.541
		c0.158-0.297,0.525-1.198,0.052-1.198c-0.472,0-2.096-0.258-2.831-0.129c-0.734,0.129-0.996,0.041-1.258-0.086
		c-0.263-0.127-0.106-0.383,0.366-0.598c0.473-0.213,1.844-0.852,2.42-1.406c0.578-0.556,1.396-1.157,1.709-1.583
		c0.315-0.427,0.642-1.15,0.484-1.449c-0.156-0.298-0.208-0.555-0.682-0.555c-0.472,0-0.209,0.257-0.733,0.555
		c-0.524,0.299-0.629,0.17-1.258,0.042c-0.629-0.128-1.102-0.128-1.049-0.384c0.051-0.256,0.891-0.725,1.415-1.152
		c0.523-0.426,1.362-1.323,1.782-1.834c0.421-0.512,0.854-2.052,0.748-2.265c-0.104-0.214-2.031,0.695-2.451,0.609
		c-0.418-0.085,0.134-1.021,0.187-1.234c0.053-0.214,1.784-1.45,2.099-1.792c0.313-0.341,0.729-1.294,0.835-1.763
		c0.104-0.47-0.054-0.854,0.262-1.195c0.315-0.341,0.578-0.341,0.63,0.128c0.052,0.47,2.359,3.286,2.62,3.457
		c0.262,0.17,0.84,0.597,0.944,1.023c0.104,0.427-0.158,0.683-0.524,0.64c-0.366-0.042-1.467-0.597-1.573-0.341
		c-0.104,0.256,0.315,1.21,0.682,1.509c0.368,0.299,3.356,1.82,3.826,2.161c0.473,0.342,0.84,0.641,0.944,0.981
		c0.105,0.342,0.053,1.025-0.314,0.854c-0.366-0.17-3.616-0.639-3.984-0.683c-0.367-0.042-0.464,1.055-0.097,1.312
		c0.366,0.256,0.979,0.803,1.833,1.708c0.113,0.121,2.248,2.016,2.668,2.101c0.419,0.086,1.258,0.342,1.416,0.641
		c0.157,0.299,0.367,0.727,0.053,0.854s-5.401-0.256-5.348-0.043c0.052,0.213-0.472-0.258,0.104,0.213
		c0.577,0.469,2.256,1.492,2.832,1.836c0.576,0.34,3.355,1.279,3.88,1.449c0.524,0.172,0.419,0.598,0.419,0.77
		c0,0.17-0.419,0.768-0.891,0.725s-3.671-0.172-3.984-0.385c-0.315-0.213-2.517-0.553-2.831-0.553s-0.265,0.084,0,0.469
		c0.261,0.385,0.995,0.938,1.572,1.236s0.943,0.684,1.468,0.855c0.524,0.168,0.786,0.342,0.891,0.555
		c0.105,0.213-0.21,0.596-0.575,0.596c-0.369,0-1.731-0.172-2.151-0.213c-0.418-0.043-1.31-0.426-1.625-0.512
		c-0.314-0.084-0.786-0.299-0.786-0.299l0.052,1.963c0,0,3.357-0.469,3.566-0.256c0.21,0.213,0.523,0.512,0.316,0.682
		c-0.212,0.172-3.253,0.896-3.673,0.77c-0.419-0.129-4.35-0.299-4.718-0.385c-0.366-0.086-3.723,0.129-4.089,0.299
		c-0.367,0.172-4.037,0.043-4.247-0.127c-0.209-0.172-4.142,0.299-4.562,0.127c-0.419-0.17-0.943-0.426-1.363-0.385
		c-0.42,0.043-0.471-0.469-0.158-0.469C8.052,31.264,8.628,31.434,8.628,31.434z"/>
	<path fill="#2D1B1B" d="M16.415,19.74c0,0,1.107-0.354,1.196-0.532c0.088-0.177,0.044-0.486-0.089-0.664
		c-0.133-0.177-0.384-0.617-0.605-0.794c-0.222-0.177-1.412-1.125-1.25-1.208c1.612-0.833,0.667-2.208,0.401-2.252
		c-0.266-0.044,0.879-0.262,0.968-0.572C17.124,13.407,17.587,13,17.278,13c-0.311,0-1.362,0.25-1.318-0.104
		c0.044-0.354,0.963-1.167,1.184-1.477c0.222-0.311,0.719-2.049,0.897-1.96c0.176,0.089,0.787,0.807,0.875,1.25
		c0.088,0.443,1.304,1.906,1.392,2.083c0.089,0.178-0.121,0.455-0.431,0.366c-0.311-0.088-0.354,0.262-0.488,0.396
		c-0.133,0.133,1.644,0.906,1.288,0.906c-0.354,0-1.26,0.898-1.48,0.942c-0.222,0.044-0.471,1.047-0.383,1.225
		c0.09,0.178,0.222,0.784,0.575,0.917c0.354,0.133,0.743,0.115,0.919,0.292c0.177,0.177,1.276-0.182,1.4,0.208
		c0.066,0.208-0.641,0.77-0.817,0.947c-0.178,0.177-1.236,0.915-1.502,1.137c-0.265,0.221-1.158,0.678-1.379,0.766
		C17.788,20.979,16.415,19.74,16.415,19.74z"/>
	<path fill="#2D1B1B" d="M19.615,23.067c0.118,0.033,0.235-0.131,0.353,0.131c0.118,0.263,0.079,0.427,0.275,0.525
		c0.195,0.098,0.549,0,0.667-0.066c0.118-0.065,0.588-0.459,0.588-0.327c0,0.131-0.118,0.327-0.394,0.688
		c-0.274,0.36-0.352,0.591-0.588,0.787c-0.235,0.196-0.628,0.458-0.746,0.524c-0.117,0.064-0.236,0-0.432-0.066
		c-0.196-0.064-0.745-0.326-1.099-0.523c-0.353-0.197-0.864-0.591-0.942-0.689c-0.078-0.098,0.078-0.326,0.236-0.195
		c0.157,0.131,0.51,0.032,0.824,0.163c0.315,0.131,0.51,0.131,0.785,0.131c0.275,0,0.392-0.163,0.471-0.327
		c0.079-0.164,0-0.36-0.039-0.459C19.536,23.264,19.615,23.067,19.615,23.067z"/>
	<g>
	</g>
	<g>
	</g>
	<g>
	</g>
	<g>
	</g>
	<g>
	</g>
	<g>
	</g>
	<g>
	</g>
	<g>
	</g>
	<g>
	</g>
	<g>
	</g>
	<g>
	</g>
	<g>
	</g>
	<g>
	</g>
	<g>
	</g>
	<g>
	</g>
	<g>
	</g>
	<g>
	</g>
	<g>
	</g>
</g>
</svg>
