<?xml version="1.0" encoding="utf-8"?>
<!-- Generator: Adobe Illustrator 15.0.0, SVG Export Plug-In . SVG Version: 6.00 Build 0)  -->
<!DOCTYPE svg PUBLIC "-//W3C//DTD SVG 1.1//EN" "http://www.w3.org/Graphics/SVG/1.1/DTD/svg11.dtd">
<svg version="1.1" xmlns="http://www.w3.org/2000/svg" xmlns:xlink="http://www.w3.org/1999/xlink" x="0px" y="0px" width="40px"
	 height="40px" viewBox="0 0 40 40" enable-background="new 0 0 40 40" xml:space="preserve">
<g id="Ebene_7">
	<path fill-rule="evenodd" clip-rule="evenodd" fill="#FFF48D" stroke="#FCE01A" stroke-width="2" stroke-miterlimit="10" d="
		M37.162,38.234c0,0.38-0.392,0.703-0.782,0.703H4.48c-0.387,0-1.005-0.547-1.005-0.927l0.056-18.268
		c0-0.66-1.245-0.823-1.245-0.823S19.195,1.666,19.449,1.416c0.335-0.32,0.79-0.218,1.006-0.009
		C20.621,1.567,38.36,18.958,38.36,18.958s-1.296,0.499-1.254,1.117L37.162,38.234z"/>
</g>
<g id="Ebene_9">
	<polygon fill-rule="evenodd" clip-rule="evenodd" fill="#FFFFFF" points="20,2.369 4.201,18.625 5.486,20 21.575,3.933 	"/>
</g>
<g id="Ebene_8">
	<path fill-rule="evenodd" clip-rule="evenodd" fill="#FCE61A" d="M36.103,37.915c-0.774,0.007-1.194,0.035-1.566,0.035L4.917,37.92
		C4.313,38,4.5,37.614,4.5,37.5v-6.094c0-0.202,2.107-0.936,2.107-0.936s12.561-3.924,12.872-4.022
		c0.318-0.098,0.75-0.065,0.955-0.004c0.205,0.064,14.516,4.568,14.516,4.568s1.114,0.233,1.152,0.425V37.915z"/>
</g>
<g id="Ebene_6" display="none">
	<path display="inline" fill-rule="evenodd" clip-rule="evenodd" stroke="#000000" stroke-width="0.75" stroke-miterlimit="10" d="
		M27.342,29.039c1.809,3.688,1.656,6.227,0.451,6.939c-1.188,0.755-3.901-0.794-6.72-3.937c-2.307,3.188-4.786,5.088-6.125,4.393
		c-1.339-0.696-1.792-3.807-0.524-7.568c-4.146-0.517-7.206-1.497-7.301-2.919c-0.106-1.396,2.928-2.686,7.057-3.318
		c-1.867-3.719-2.199-6.877-0.98-7.553c1.216-0.739,4.066,1.119,6.869,4.218c2.324-3.147,4.866-5.116,6.204-4.42
		c1.338,0.696,1.692,3.966,0.466,7.65c4.134,0.541,7.221,1.735,7.343,3.171C34.145,27.103,31.386,28.43,27.342,29.039z
		 M15.075,22.494c0.959-0.104,1.974-0.247,3.089-0.303c0.564-0.947,1.087-1.814,1.668-2.517c-2.628-2.875-4.494-3.705-5.544-3.078
		C13.253,17.197,13.313,19.064,15.075,22.494z M14.767,28.28c0.283-0.893,0.614-1.594,1.093-2.586
		c-0.609-0.918-1.035-1.577-1.444-2.46c-3.848,0.578-5.621,1.407-5.531,2.626C8.946,27.067,10.887,27.805,14.767,28.28z
		 M17.658,22.673c-0.932,0.052-1.602,0.163-2.377,0.263c0.379,0.732,0.636,1.439,1.085,2.173c0.164-0.382,0.338-0.844,0.557-1.266
		C17.144,23.421,17.41,23.08,17.658,22.673z M18.728,22.958c-0.352,0.2-0.876,0.681-1.084,1.206c-0.204,0.518-0.28,1.039-0.263,1.53
		c0.084,0.843,0.2,1.12,0.541,1.629c0.354,0.479,0.807,0.888,1.263,1.142c0.422,0.186,1.006,0.34,1.657,0.343
		c0.594-0.025,1.012-0.123,1.585-0.377c0.508-0.405,0.843-0.641,1.088-1.215c0.249-0.587,0.311-1.01,0.344-1.686
		c-0.136-0.625-0.262-0.886-0.589-1.391c-0.377-0.531-0.656-0.709-1.146-1.08c-0.389-0.236-1.126-0.469-1.747-0.459
		C19.725,22.6,19.204,22.703,18.728,22.958z M21.821,22.115c-0.547-0.754-1.096-1.441-1.655-2.034
		c-0.443,0.573-0.898,1.309-1.353,2.044c0.451-0.034,0.989-0.021,1.51-0.054C20.803,22.054,21.314,22.051,21.821,22.115z
		 M16.675,26.308c-0.411,0.79-0.696,1.547-0.924,2.267c0.807,0.117,1.684,0.171,2.616,0.187c-0.345-0.381-0.636-0.799-0.896-1.202
		C17.184,27.14,16.865,26.706,16.675,26.308z M20.715,31.689c-0.689-0.761-1.337-1.531-1.974-2.465
		c-1.129,0.015-2.191-0.101-3.181-0.214c-1.216,3.521-0.84,5.033,0.299,5.625S18.533,34.777,20.715,31.689z M20.455,19.663
		c0.677,0.788,1.354,1.575,2.018,2.457c1.102,0.036,2.162,0.153,3.125,0.25c1.231-3.48,1.134-5.52-0.034-6.127
		C24.452,15.664,22.641,16.646,20.455,19.663z M19.336,29.265c0.547,0.754,1.096,1.442,1.657,2.033
		c0.441-0.574,0.925-1.293,1.351-2.046c-0.465,0.061-0.974,0.066-1.481,0.069C20.354,29.324,19.816,29.315,19.336,29.265z
		 M24.51,25.088c0.369-0.779,0.698-1.548,0.896-2.281c-0.833-0.065-1.669-0.131-2.559-0.158c0.288,0.35,0.604,0.782,0.865,1.188
		C24.032,24.27,24.307,24.713,24.51,25.088z M26.48,23.124c-0.271,0.846-0.736,1.598-1.297,2.57c0.594,0.946,1.132,1.659,1.57,2.557
		c3.819-0.526,5.701-1.338,5.607-2.557C32.258,24.434,30.387,23.614,26.48,23.124z M26.248,29.175
		c-0.985,0.158-2.154-0.015-3.269,0.041c-0.521,0.936-1.063,1.76-1.601,2.452c2.661,3.023,4.528,3.618,5.577,2.993
		C28.021,34.006,28.041,32.687,26.248,29.175z M23.31,28.718c0.876-0.08,1.737-0.135,2.566-0.273
		c-0.378-0.733-0.621-1.402-1.114-2.195c-0.206,0.481-0.363,0.846-0.643,1.285C23.848,27.961,23.545,28.338,23.31,28.718z"/>
	
		<circle display="inline" fill-rule="evenodd" clip-rule="evenodd" stroke="#000000" stroke-width="0.75" stroke-miterlimit="10" cx="20.389" cy="25.895" r="0.545"/>
</g>
<g id="Ebene_10">
	<polygon fill="none" stroke="#000000" stroke-width="2" stroke-miterlimit="10" points="10.608,19.803 20.699,12.667 
		30.876,20.014 20.836,27.572 13.311,21.818 	"/>
	<path fill="none" stroke="#000000" stroke-width="2" stroke-miterlimit="10" d="M13.226,33.356c0,0,2.436,3.04,7.191,3.04
		c5.788,0,7.583-3.04,7.583-3.04V22.759l-7.096,4.813l-7.563-5.754L13.226,33.356z"/>
	<path fill="none" stroke="#000000" stroke-width="2" stroke-miterlimit="10" d="M20.396,21.212c0,0-1.713-1.898-3.03,0.328
		c-0.686,1.159-0.247,9.832-0.247,9.832"/>
</g>
<g id="Ebene_5" display="none">
	<circle display="inline" fill="#991915" cx="20.347" cy="21.19" r="5.649"/>
	<path display="inline" fill="#991915" d="M31.979,36H9c0,0,2.106-8.091,11.347-8.091C29.586,27.909,31.979,36,31.979,36z"/>
</g>
</svg>
