<?xml version="1.0" encoding="utf-8"?>
<!-- Generator: Adobe Illustrator 15.1.0, SVG Export Plug-In . SVG Version: 6.00 Build 0)  -->
<!DOCTYPE svg PUBLIC "-//W3C//DTD SVG 1.1//EN" "http://www.w3.org/Graphics/SVG/1.1/DTD/svg11.dtd">
<svg version="1.1" id="Ebene_1" xmlns="http://www.w3.org/2000/svg" xmlns:xlink="http://www.w3.org/1999/xlink" x="0px" y="0px"
	 width="113.391px" height="113.391px" viewBox="0 0 113.391 113.391" enable-background="new 0 0 113.391 113.391"
	 xml:space="preserve">
<g>
	<defs>
		<rect id="SVGID_1_" x="0" y="0.613" width="112.991" height="112.996"/>
	</defs>
	<clipPath id="SVGID_2_">
		<use xlink:href="#SVGID_1_"  overflow="visible"/>
	</clipPath>
	<path clip-path="url(#SVGID_2_)" fill="#39BEEC" d="M56.494,113.609c31.208,0,56.497-25.297,56.497-56.498
		c0-31.203-25.289-56.495-56.497-56.495c-31.203,0-56.493,25.292-56.493,56.495C0.002,88.312,25.292,113.609,56.494,113.609"/>
	<path clip-path="url(#SVGID_2_)" fill="#FFFFFF" d="M56.498,101.712c24.633,0,44.602-19.968,44.602-44.604
		c0-24.633-19.969-44.602-44.602-44.602c-24.636,0-44.605,19.969-44.605,44.602C11.893,81.744,31.862,101.712,56.498,101.712"/>
	<path clip-path="url(#SVGID_2_)" fill="#39BEEC" d="M64.442,71.246c17.811-3.476,18.984-15.357,18.984-15.357
		C87.671,78.362,64.442,71.246,64.442,71.246 M88.694,47.527c0-7.093-5.787-12.863-12.855-12.863c-2.623,0-5.061,0.758-7.156,2.175
		c-1.975-2.571-4.717-4.531-7.84-5.662c-1.926-0.697-4.006-1.072-6.133-1.072c-8.182,0-15.039,5.251-16.725,12.521
		c-7.697,0.925-13.687,7.509-13.687,15.455c0,2.66,0.671,5.166,1.853,7.358c2.629,4.885,7.787,8.217,13.718,8.217
		c1.366,0,2.718-0.178,4.022-0.532c2.165,3.277,5.573,5.237,9.247,5.237c2.902,0,5.692-1.263,7.827-3.455
		c2.945,2.247,6.514,3.455,10.305,3.455c9.461,0,17.135-7.683,17.135-17.136c0-2.448-0.512-4.879-1.564-7.113
		C88.055,52.134,88.694,49.889,88.694,47.527"/>
</g>
</svg>
