<?xml version="1.0" encoding="UTF-8" standalone="no"?>
<!-- Generator: Adobe Illustrator 15.0.0, SVG Export Plug-In . SVG Version: 6.00 Build 0)  -->

<svg
   xmlns:dc="http://purl.org/dc/elements/1.1/"
   xmlns:cc="http://creativecommons.org/ns#"
   xmlns:rdf="http://www.w3.org/1999/02/22-rdf-syntax-ns#"
   xmlns:svg="http://www.w3.org/2000/svg"
   xmlns="http://www.w3.org/2000/svg"
   xmlns:sodipodi="http://sodipodi.sourceforge.net/DTD/sodipodi-0.dtd"
   xmlns:inkscape="http://www.inkscape.org/namespaces/inkscape"
   version="1.1"
   x="0px"
   y="0px"
   width="40px"
   height="40px"
   viewBox="0 0 40 40"
   enable-background="new 0 0 40 40"
   xml:space="preserve"
   id="svg2"
   inkscape:version="0.48.3.1 r9886"
   sodipodi:docname="schoepfwerk.svg"
   inkscape:export-filename="G:\AG_GDI-HH\Icons\MRH_Tage_Industriekultur\kanal.png"
   inkscape:export-xdpi="90"
   inkscape:export-ydpi="90"><metadata
   id="metadata26"><rdf:RDF><cc:Work
       rdf:about=""><dc:format>image/svg+xml</dc:format><dc:type
         rdf:resource="http://purl.org/dc/dcmitype/StillImage" /><dc:title></dc:title></cc:Work></rdf:RDF></metadata><defs
   id="defs24" /><sodipodi:namedview
   pagecolor="#ffffff"
   bordercolor="#666666"
   borderopacity="1"
   objecttolerance="10"
   gridtolerance="10"
   guidetolerance="10"
   inkscape:pageopacity="0"
   inkscape:pageshadow="2"
   inkscape:window-width="1643"
   inkscape:window-height="1012"
   id="namedview22"
   showgrid="false"
   inkscape:zoom="20.825"
   inkscape:cx="23.120787"
   inkscape:cy="20"
   inkscape:window-x="2060"
   inkscape:window-y="34"
   inkscape:window-maximized="0"
   inkscape:current-layer="Ebene_8" />
<g
   id="Ebene_4">
	<path
   fill-rule="evenodd"
   clip-rule="evenodd"
   fill="#4389C8"
   stroke="#106FB7"
   stroke-width="2"
   stroke-miterlimit="10"
   d="   M39,33.813C39,40.098,40.098,39,33.813,39H6.5C0.214,39,1,40.035,1,33.75V6.375C1,0.089,0.089,1,6.375,1h27.438   C40.098,1,39,0.089,39,6.375V33.813z"
   id="path5"
   style="fill:#ffffff;fill-opacity:1" />
</g>
<g
   id="Ebene_8"
   transform="matrix(1,0,0,0.67798989,-0.19207683,12.698544)">
	<path
   clip-rule="evenodd"
   d="m 33.509122,30.724341 c -0.656559,0.0076 -1.012956,0.0393 -1.328454,0.0393 l -24.518333,0 C 7.1489196,30.852549 7.2029632,30.43759 7.2029632,30.311447 L 7.2336373,16.37317 33.52592,16.41295 z"
   id="path8"
   style="fill:#5cc5ed;fill-opacity:1;fill-rule:evenodd"
   inkscape:connector-curvature="0"
   sodipodi:nodetypes="csccccc" />
</g>


<rect
   style="opacity:0.98999999;fill:#008ac3;fill-opacity:1;stroke:none"
   id="rect3791-0"
   width="14.981993"
   height="3.0991857"
   x="-37.046818"
   y="3.4333744"
   transform="matrix(0,-1,1,0,0,0)" /><rect
   style="opacity:0.98999999;fill:#008ac3;fill-opacity:1;stroke:none"
   id="rect4022"
   width="32.013752"
   height="3.0233192"
   x="4.1935105"
   y="33.997932" /><rect
   style="opacity:0.98999999;fill:#008ac3;fill-opacity:1;stroke:none"
   id="rect3791-0-5"
   width="14.981993"
   height="3.0991857"
   x="-37.046818"
   y="33.779568"
   transform="matrix(0,-1,1,0,0,0)" /></svg>