<?xml version="1.0" encoding="UTF-8" standalone="no"?>
<!-- Generator: Adobe Illustrator 15.0.0, SVG Export Plug-In . SVG Version: 6.00 Build 0)  -->

<svg
   xmlns:dc="http://purl.org/dc/elements/1.1/"
   xmlns:cc="http://creativecommons.org/ns#"
   xmlns:rdf="http://www.w3.org/1999/02/22-rdf-syntax-ns#"
   xmlns:svg="http://www.w3.org/2000/svg"
   xmlns="http://www.w3.org/2000/svg"
   xmlns:sodipodi="http://sodipodi.sourceforge.net/DTD/sodipodi-0.dtd"
   xmlns:inkscape="http://www.inkscape.org/namespaces/inkscape"
   version="1.1"
   x="0px"
   y="0px"
   width="40px"
   height="40px"
   viewBox="0 0 40 40"
   enable-background="new 0 0 40 40"
   xml:space="preserve"
   id="svg2"
   inkscape:version="0.48.3.1 r9886"
   sodipodi:docname="kraftwerk.svg"
   inkscape:export-filename="G:\AG_GDI-HH\Icons\MRH_Tage_Industriekultur\kraftwerk.png"
   inkscape:export-xdpi="90"
   inkscape:export-ydpi="90"><metadata
   id="metadata26"><rdf:RDF><cc:Work
       rdf:about=""><dc:format>image/svg+xml</dc:format><dc:type
         rdf:resource="http://purl.org/dc/dcmitype/StillImage" /><dc:title></dc:title></cc:Work></rdf:RDF></metadata><defs
   id="defs24" /><sodipodi:namedview
   pagecolor="#ffffff"
   bordercolor="#666666"
   borderopacity="1"
   objecttolerance="10"
   gridtolerance="10"
   guidetolerance="10"
   inkscape:pageopacity="0"
   inkscape:pageshadow="2"
   inkscape:window-width="1643"
   inkscape:window-height="1012"
   id="namedview22"
   showgrid="false"
   inkscape:zoom="20.825"
   inkscape:cx="21.96494"
   inkscape:cy="20"
   inkscape:window-x="2140"
   inkscape:window-y="17"
   inkscape:window-maximized="0"
   inkscape:current-layer="layer1" />
<g
   id="Ebene_4">
	<path
   fill-rule="evenodd"
   clip-rule="evenodd"
   fill="#4389C8"
   stroke="#106FB7"
   stroke-width="2"
   stroke-miterlimit="10"
   d="   M39,33.813C39,40.098,40.098,39,33.813,39H6.5C0.214,39,1,40.035,1,33.75V6.375C1,0.089,0.089,1,6.375,1h27.438   C40.098,1,39,0.089,39,6.375V33.813z"
   id="path5"
   style="fill:#ffffff;fill-opacity:1" />
</g>



<g
   inkscape:groupmode="layer"
   id="layer2"
   inkscape:label="Ebene#1"
   style="display:inline"><path
     style="fill:#008ac3;fill-opacity:1;stroke:none"
     d="m 10.224242,37.623723 -0.04802,-23.533582 4.753902,5.463968 0.04802,-5.463832 5.906362,5.224006 2e-6,-5.271623 c 0,0 5.378459,6.084407 5.378153,6.136237 l -0.03512,5.93995 11.107685,0.152257 0.01988,11.351945 z"
     id="path3826"
     inkscape:connector-curvature="0"
     sodipodi:nodetypes="ccccccscccc" /></g><g
   inkscape:groupmode="layer"
   id="layer1"
   inkscape:label="Ebene"
   style="display:inline"><rect
     style="opacity:0.98999999000000005;fill:#ffffff;fill-opacity:1;stroke:#008ac3;stroke-width:1.586;stroke-miterlimit:4;stroke-opacity:1;stroke-dasharray:none"
     id="rect3859-5"
     width="15.587915"
     height="2.7036784"
     x="-26.75222"
     y="29.421333"
     transform="matrix(0,-1,1,0,0,0)" /><rect
     style="opacity:0.98999999;fill:#008ac3;fill-opacity:1;stroke:none"
     id="rect3859"
     width="8.1155663"
     height="1.5366147"
     x="26.650341"
     y="12.581033" /><rect
     style="opacity:0.98999999;fill:#008ac3;fill-opacity:1;stroke:none"
     id="rect3859-3"
     width="7.8274517"
     height="1.5366147"
     x="26.770708"
     y="15.030011" /><path
     style="fill:#ffffff;fill-opacity:1;stroke:none"
     d="m 16.9988,19.303721 -1.008404,10.084035 2.304922,-2.304923 -0.57623,4.27371 -1.968788,-0.192077 2.016807,5.42617 3.02521,-5.042017 -1.632653,-0.09604 1.20048,-8.019208 -2.256903,1.536615 0.576231,-5.426171 z"
     id="path3898"
     inkscape:connector-curvature="0"
     sodipodi:nodetypes="cccccccccccc" /></g><g
   inkscape:groupmode="layer"
   id="layer6"
   inkscape:label="Ebene#3"><rect
     style="opacity:0.98999999;fill:#5cc5ed;fill-opacity:1;stroke:none"
     id="rect3901"
     width="8.2112846"
     height="7.7791119"
     x="2.0168068"
     y="29.723888" /></g></svg>