<?xml version="1.0" encoding="UTF-8" standalone="no"?>
<!-- Generator: Adobe Illustrator 15.0.0, SVG Export Plug-In . SVG Version: 6.00 Build 0)  -->

<svg
   xmlns:dc="http://purl.org/dc/elements/1.1/"
   xmlns:cc="http://creativecommons.org/ns#"
   xmlns:rdf="http://www.w3.org/1999/02/22-rdf-syntax-ns#"
   xmlns:svg="http://www.w3.org/2000/svg"
   xmlns="http://www.w3.org/2000/svg"
   xmlns:sodipodi="http://sodipodi.sourceforge.net/DTD/sodipodi-0.dtd"
   xmlns:inkscape="http://www.inkscape.org/namespaces/inkscape"
   version="1.1"
   x="0px"
   y="0px"
   width="40px"
   height="40px"
   viewBox="0 0 40 40"
   enable-background="new 0 0 40 40"
   xml:space="preserve"
   id="svg2"
   inkscape:version="0.48.3.1 r9886"
   sodipodi:docname="hanse_uni_hell.svg"
   inkscape:export-filename="M:\Themen\Icons\Icons_MRH\Grundkonzept\Icons_MRH_neues_Konzept\neues_konzept_energie\ladesaeule.png"
   inkscape:export-xdpi="90"
   inkscape:export-ydpi="90"><metadata
   id="metadata35"><rdf:RDF><cc:Work
       rdf:about=""><dc:format>image/svg+xml</dc:format><dc:type
         rdf:resource="http://purl.org/dc/dcmitype/StillImage" /><dc:title></dc:title></cc:Work></rdf:RDF></metadata><defs
   id="defs33" /><sodipodi:namedview
   pagecolor="#ffffff"
   bordercolor="#666666"
   borderopacity="1"
   objecttolerance="10"
   gridtolerance="10"
   guidetolerance="10"
   inkscape:pageopacity="0"
   inkscape:pageshadow="2"
   inkscape:window-width="1586"
   inkscape:window-height="1000"
   id="namedview31"
   showgrid="false"
   inkscape:zoom="20.975"
   inkscape:cx="20.304638"
   inkscape:cy="20"
   inkscape:window-x="194"
   inkscape:window-y="23"
   inkscape:window-maximized="0"
   inkscape:current-layer="Ebene_1" />
<g
   id="Ebene_1">
	<g
   id="XMLID_1_">
		<g
   id="g6">
			<path
   fill="#FFFFFF"
   d="M20,1c10.49,0,19,8.51,19,19s-8.51,19-19,19S1,30.49,1,20S9.51,1,20,1z"
   id="path8"
   style="fill:#defb09;fill-opacity:1" />
		</g>
		<g
   id="g10">
			<path
   fill="none"
   stroke="#94CA37"
   stroke-width="2"
   stroke-miterlimit="10"
   d="M39,20c0,10.49-8.51,19-19,19S1,30.49,1,20     S9.51,1,20,1S39,9.51,39,20z"
   id="path12"
   style="stroke:#909d28;stroke-opacity:1" />
		</g><g
   inkscape:groupmode="layer"
   id="layer1"
   inkscape:label="Ebene" />
	</g>
	<g
   id="Ebene_6">
		<path
   fill="#D2E76A"
   d="M37.721,20.469c-0.677,9.741-8.056,17.549-17.618,17.549S1.955,29.47,1.955,20.475    c0-3.246,0.479-3.972,0.479-3.972s1.667,0.296,1.878-0.727c0.95-4.581,7.997-15.503,21.62-11.005    c0.588,0.194,1.285-1.281,1.285-1.281s1.988,0.919,3.033,1.673C30.622,5.432,38.484,9.485,37.721,20.469z"
   id="path15"
   style="fill:#c4dc0b;fill-opacity:1;stroke:none;stroke-opacity:1" />
	</g>
	<g
   id="Ebene_2">
		<path
   fill="#BCE932"
   d="M36.823,13.553c0,0,1.671,3.403,1.307,7.235c-1.228,12.915-11.927,17.413-17.364,17.365    C5.31,38.019,2.435,24.181,2.435,24.181c0-0.886,3.266-2.364,7.903-2.812c4.645-0.448,7.399,1.898,9.888,0.279    c0.438-0.285,3.713-4.138,5.81-5.419C28.916,14.47,33.307,13.553,36.823,13.553z"
   id="path18"
   style="fill:#b1c903;fill-opacity:1" />
	</g>
<g
   transform="translate(-0.67922028,-0.16359356)"
   id="Ebene_5"><g
     id="g21"><path
       style="fill:#275135;fill-opacity:1"
       inkscape:connector-curvature="0"
       d="m 6.859,21.22 c 0,-6.048 3.349,-9.048 6.698,-9.048 2.75,0 5.074,1.55 5.074,4.499 0,5.374 -8.048,4.249 -8.048,6.849 0,1.175 1.899,2.024 3.149,2.024 4.099,0 4.623434,-2.075132 4.973434,-2.075132 0.375,0 0.707282,1.239496 0.593027,1.403648 C 17.486781,27.475406 16.182,28.918 13.182,28.918 8.708,28.918 6.859,25.219 6.859,21.22 z m 3.374,-2.475 c 0,0.275 0.125,0.55 0.45,0.55 0.3,0 4.849,-1 4.849,-2.274 0,-1.225 -1.15,-1.9 -2.1,-1.9 -2.024,0 -3.199,2.175 -3.199,3.624 z"
       id="path23"
       sodipodi:nodetypes="ssssssssssssss" /></g></g><g
   transform="translate(-0.67922028,-0.16359356)"
   id="Ebene_8"><path
     style="fill:#275135;fill-opacity:1"
     inkscape:connector-curvature="0"
     d="m 17,27.19 -0.667,0.852 c 0,0 1.184,-0.395 2.708,-1.709 0.75,-0.646 1.787,-1.39 2.417,-1.75 1.167,-0.667 2.458,-1.333 2.458,-1.333 0,0 2.049,2.912 4.141,1.761 1.248,-0.688 5.538,-3.422 5.538,-3.422 l -1.514,-1.97 3.177,-2.332 c 0,0 0.763,-0.554 0.395,-0.991 -0.444,-0.532 -1.085,-0.071 -1.085,-0.071 l -3.22,2.291 -1.525,-2.189 3.311,-2.554 c 0,0 0.399,-0.541 0.146,-0.963 -0.291,-0.491 -0.793,-0.178 -0.793,-0.178 l -3.349,2.479 -1.32,-1.867 c 0,0 -3.72,2.658 -4.694,3.542 -2.077,1.881 -0.624,4.15 -0.624,4.15 0,0 -1.106,0.366 -1.958,0.896 -1.136,0.707 -1.532,1.2 -2.417,1.709 -1.17,0.673 -2.958,2.041 -2.958,2.041 L 17,27.19 z"
     id="path29" /></g></g>



<g
   style="font-size:16px;font-style:normal;font-weight:bold;line-height:125%;letter-spacing:0px;word-spacing:0px;fill:#000000;fill-opacity:1;stroke:none;font-family:Sans;-inkscape-font-specification:Sans Bold"
   id="text3786"
   transform="matrix(0.89160776,0,0,0.8902556,2.1617574,2.2012438)" /></svg>