<?xml version="1.0" encoding="UTF-8" standalone="no"?>
<!-- Generator: Adobe Illustrator 15.0.0, SVG Export Plug-In . SVG Version: 6.00 Build 0)  -->

<svg
   xmlns:dc="http://purl.org/dc/elements/1.1/"
   xmlns:cc="http://creativecommons.org/ns#"
   xmlns:rdf="http://www.w3.org/1999/02/22-rdf-syntax-ns#"
   xmlns:svg="http://www.w3.org/2000/svg"
   xmlns="http://www.w3.org/2000/svg"
   xmlns:sodipodi="http://sodipodi.sourceforge.net/DTD/sodipodi-0.dtd"
   xmlns:inkscape="http://www.inkscape.org/namespaces/inkscape"
   version="1.1"
   x="0px"
   y="0px"
   width="40px"
   height="40px"
   viewBox="0 0 40 40"
   enable-background="new 0 0 40 40"
   xml:space="preserve"
   id="svg2"
   inkscape:version="0.48.3.1 r9886"
   sodipodi:docname="schoepfwerk.svg"
   inkscape:export-filename="G:\AG_GDI-HH\Icons\MRH_Tage_Industriekultur\leuchtturm.png"
   inkscape:export-xdpi="90"
   inkscape:export-ydpi="90"><metadata
   id="metadata26"><rdf:RDF><cc:Work
       rdf:about=""><dc:format>image/svg+xml</dc:format><dc:type
         rdf:resource="http://purl.org/dc/dcmitype/StillImage" /><dc:title></dc:title></cc:Work></rdf:RDF></metadata><defs
   id="defs24" /><sodipodi:namedview
   pagecolor="#ffffff"
   bordercolor="#666666"
   borderopacity="1"
   objecttolerance="10"
   gridtolerance="10"
   guidetolerance="10"
   inkscape:pageopacity="0"
   inkscape:pageshadow="2"
   inkscape:window-width="1643"
   inkscape:window-height="1012"
   id="namedview22"
   showgrid="false"
   inkscape:zoom="20.825"
   inkscape:cx="21.262131"
   inkscape:cy="20"
   inkscape:window-x="2060"
   inkscape:window-y="34"
   inkscape:window-maximized="0"
   inkscape:current-layer="svg2" />
<g
   id="Ebene_4">
	<path
   fill-rule="evenodd"
   clip-rule="evenodd"
   fill="#4389C8"
   stroke="#106FB7"
   stroke-width="2"
   stroke-miterlimit="10"
   d="   M39,33.813C39,40.098,40.098,39,33.813,39H6.5C0.214,39,1,40.035,1,33.75V6.375C1,0.089,0.089,1,6.375,1h27.438   C40.098,1,39,0.089,39,6.375V33.813z"
   id="path5"
   style="fill:#ffffff;fill-opacity:1" />
</g>
<g
   id="Ebene_8"
   transform="matrix(1.0093986,0,0,0.67798989,-0.53614483,12.698544)">
	<path
   clip-rule="evenodd"
   d="M 36.595214,-0.20763643 16.171686,-5.7450412 c 0,0 20.416083,-6.5775358 20.436758,-6.6033008 z"
   id="path8"
   style="fill:#5cc5ed;fill-opacity:1;fill-rule:evenodd"
   inkscape:connector-curvature="0"
   sodipodi:nodetypes="cccc" />
</g>


<path
   sodipodi:type="arc"
   style="opacity:0.98999999;fill:#008ac3;fill-opacity:1;stroke:#008ac3;stroke-width:3.14344788;stroke-miterlimit:4;stroke-opacity:1;stroke-dasharray:none"
   id="path3771-1"
   sodipodi:cx="11.716686"
   sodipodi:cy="12.14886"
   sodipodi:rx="12.388955"
   sodipodi:ry="12.100841"
   d="m 24.105641,12.14886 a 12.388955,12.100841 0 1 1 -24.77790987,0 12.388955,12.100841 0 1 1 24.77790987,0 z"
   transform="matrix(0.33224119,0,0,0.22932194,7.0585348,3.9340863)" /><rect
   style="opacity:0.98999999;fill:#008ac3;fill-opacity:1;stroke:none"
   id="rect3791"
   width="9.0863047"
   height="2.4969988"
   x="6.4345741"
   y="12.677073" /><rect
   style="opacity:0.98999999;fill:#008ac3;fill-opacity:1;stroke:none"
   id="rect3791-8-6-8-9"
   width="4.3501639"
   height="9.0548849"
   x="6.682981"
   y="-15.579664"
   transform="matrix(-0.01058417,0.99994399,-0.99999998,-1.7892978e-4,0,0)" /><rect
   style="opacity:0.98999999;fill:#008ac3;fill-opacity:1;stroke:none"
   id="rect3791-9"
   width="12.159534"
   height="2.5450182"
   x="5.0606894"
   y="35.198078" /><rect
   style="opacity:0.98999999;fill:#008ac3;fill-opacity:1;stroke:none"
   id="rect3791-6"
   width="9.0863047"
   height="2.4969988"
   x="6.4052267"
   y="17.190878" /><rect
   style="opacity:0.98999999;fill:#008ac3;fill-opacity:1;stroke:none"
   id="rect3791-5"
   width="9.6625347"
   height="2.4969988"
   x="6.1651306"
   y="21.752705" /><rect
   style="opacity:0.98999999;fill:#008ac3;fill-opacity:1;stroke:none"
   id="rect3791-0"
   width="10.334804"
   height="2.4969988"
   x="5.8289967"
   y="26.362547" /><rect
   style="opacity:0.98999999;fill:#008ac3;fill-opacity:1;stroke:none"
   id="rect3791-2"
   width="11.295188"
   height="2.4969988"
   x="5.4448428"
   y="30.828331" /></svg>