<?xml version="1.0" encoding="UTF-8" standalone="no"?>
<!-- Generator: Adobe Illustrator 15.1.0, SVG Export Plug-In . SVG Version: 6.00 Build 0)  -->

<svg
   xmlns:dc="http://purl.org/dc/elements/1.1/"
   xmlns:cc="http://creativecommons.org/ns#"
   xmlns:rdf="http://www.w3.org/1999/02/22-rdf-syntax-ns#"
   xmlns:svg="http://www.w3.org/2000/svg"
   xmlns="http://www.w3.org/2000/svg"
   xmlns:xlink="http://www.w3.org/1999/xlink"
   xmlns:sodipodi="http://sodipodi.sourceforge.net/DTD/sodipodi-0.dtd"
   xmlns:inkscape="http://www.inkscape.org/namespaces/inkscape"
   version="1.1"
   id="Ebene_1"
   x="0px"
   y="0px"
   width="141.73px"
   height="141.73px"
   viewBox="0 0 141.73 141.73"
   enable-background="new 0 0 141.73 141.73"
   xml:space="preserve"
   inkscape:version="0.48.3.1 r9886"
   sodipodi:docname="erleben.svg"
   inkscape:export-filename="M:\Themen\Tourismus\Lieblingsplaetze_im_Gruenen\lpg_erleben.png"
   inkscape:export-xdpi="90"
   inkscape:export-ydpi="90"><metadata
   id="metadata27"><rdf:RDF><cc:Work
       rdf:about=""><dc:format>image/svg+xml</dc:format><dc:type
         rdf:resource="http://purl.org/dc/dcmitype/StillImage" /><dc:title></dc:title></cc:Work></rdf:RDF></metadata><defs
   id="defs25" /><sodipodi:namedview
   pagecolor="#ffffff"
   bordercolor="#666666"
   borderopacity="1"
   objecttolerance="10"
   gridtolerance="10"
   guidetolerance="10"
   inkscape:pageopacity="0"
   inkscape:pageshadow="2"
   inkscape:window-width="774"
   inkscape:window-height="614"
   id="namedview23"
   showgrid="false"
   inkscape:zoom="1.665138"
   inkscape:cx="70.864998"
   inkscape:cy="70.864998"
   inkscape:window-x="0"
   inkscape:window-y="0"
   inkscape:window-maximized="0"
   inkscape:current-layer="g3" />
<g
   id="g3">
	<defs
   id="defs5">
		<rect
   id="SVGID_1_"
   y="0"
   width="141.553"
   height="141.555" />
	</defs>
	<clipPath
   id="SVGID_2_">
		<use
   xlink:href="#SVGID_1_"
   overflow="visible"
   id="use9" />
	</clipPath>
	<path
   clip-path="url(#SVGID_2_)"
   fill="#D5CF16"
   d="M70.776,141.556c39.095,0,70.776-31.691,70.776-70.775   c0-39.091-31.682-70.776-70.776-70.776C31.686,0.004,0,31.69,0,70.781C0,109.864,31.686,141.556,70.776,141.556"
   id="path11"
   style="fill:#bbca17;fill-opacity:1" />
	<path
   clip-path="url(#SVGID_2_)"
   fill="#FFFFFF"
   d="M70.78,126.658c30.86,0,55.877-25.018,55.877-55.877   c0-30.861-25.017-55.876-55.877-55.876c-30.864,0-55.88,25.016-55.88,55.876C14.9,101.641,39.916,126.658,70.78,126.658"
   id="path13" />
	<path
   clip-path="url(#SVGID_2_)"
   fill="#D5CF16"
   d="M82.972,75.457c-0.666,0.669-1.592,1.082-2.618,1.082   c-1.022,0-1.95-0.413-2.618-1.082c-0.666-0.673-1.077-1.597-1.077-2.623c0-1.019,0.411-1.943,1.077-2.615   c0.668-0.672,1.596-1.086,2.618-1.086c1.026,0,1.952,0.415,2.618,1.086c0.668,0.672,1.087,1.596,1.087,2.615   C84.059,73.86,83.64,74.784,82.972,75.457 M80.354,62.558c-2.841,0-5.407,1.15-7.264,3.017c-1.865,1.856-3.012,4.423-3.012,7.259   c0,2.845,1.146,5.411,3.012,7.267c1.856,1.866,4.423,3.017,7.264,3.017c2.837,0,5.407-1.15,7.272-3.017   c1.856-1.855,3.008-4.422,3.008-7.267c0-2.836-1.151-5.403-3.008-7.259C85.761,63.708,83.19,62.558,80.354,62.558"
   id="path15"
   style="fill:#bbca17;fill-opacity:1" />
	<path
   clip-path="url(#SVGID_2_)"
   fill="#D5CF16"
   d="M62.558,82.202c-0.885,0.837-1.437,2.027-1.437,3.344   c0,2.546,2.062,4.604,4.603,4.604c1.095,0,2.096-0.38,2.888-1.018c-0.917-0.637-1.775-1.356-2.558-2.143   C64.654,85.59,63.47,83.977,62.558,82.202"
   id="path17"
   style="fill:#bbca17;fill-opacity:1" />
	<path
   clip-path="url(#SVGID_2_)"
   fill="#D5CF16"
   d="M89.072,81.551c-2.232,2.234-5.314,3.611-8.719,3.611s-6.49-1.377-8.714-3.611   c-2.227-2.232-3.61-5.308-3.61-8.713c0-3.405,1.383-6.486,3.61-8.714c2.224-2.233,5.31-3.61,8.714-3.61s6.486,1.381,8.719,3.61   c2.226,2.229,3.605,5.31,3.605,8.714C92.678,76.243,91.298,79.318,89.072,81.551 M80.354,54.708c-5.005,0-9.54,2.028-12.815,5.31   c-3.277,3.281-5.313,7.811-5.313,12.82c0,5.005,2.036,9.536,5.313,12.82c3.276,3.276,7.811,5.304,12.815,5.304   c5.006,0,9.541-2.027,12.816-5.304c3.286-3.284,5.313-7.815,5.313-12.82c0-5.01-2.027-9.54-5.313-12.82   C89.895,56.736,85.359,54.708,80.354,54.708"
   id="path19"
   style="fill:#bbca17;fill-opacity:1" />
</g>
<path
   fill="#D5CF16"
   d="M103.316,93.46H39.48V55h25.987h2.691l0.526-2.644l1.647-8.214h19.865l1.648,8.214L92.38,55h2.689h8.247  V93.46z M106.604,48.425h-8.838l-1.646-8.219l-0.539-2.643h-2.686H67.64h-2.694l-0.53,2.643l-1.643,8.219h-5.438v-6.251H42.111  v6.251h-5.917h-3.289v3.285V96.75v3.289h3.289h70.409h3.287V96.75V51.709v-3.285H106.604z"
   id="path21"
   style="fill:#bbca17;fill-opacity:1" />
</svg>