<?xml version="1.0" encoding="UTF-8" standalone="no"?>
<!-- Generator: Adobe Illustrator 15.1.0, SVG Export Plug-In . SVG Version: 6.00 Build 0)  -->

<svg
   xmlns:dc="http://purl.org/dc/elements/1.1/"
   xmlns:cc="http://creativecommons.org/ns#"
   xmlns:rdf="http://www.w3.org/1999/02/22-rdf-syntax-ns#"
   xmlns:svg="http://www.w3.org/2000/svg"
   xmlns="http://www.w3.org/2000/svg"
   xmlns:xlink="http://www.w3.org/1999/xlink"
   xmlns:sodipodi="http://sodipodi.sourceforge.net/DTD/sodipodi-0.dtd"
   xmlns:inkscape="http://www.inkscape.org/namespaces/inkscape"
   version="1.1"
   id="Ebene_1"
   x="0px"
   y="0px"
   width="141.73px"
   height="141.73px"
   viewBox="0 0 141.73 141.73"
   enable-background="new 0 0 141.73 141.73"
   xml:space="preserve"
   inkscape:version="0.48.3.1 r9886"
   sodipodi:docname="lpg_entspannen.svg"
   inkscape:export-filename="M:\Themen\Tourismus\Lieblingsplaetze_im_Gruenen\lpg_entspannen.png"
   inkscape:export-xdpi="90"
   inkscape:export-ydpi="90"><metadata
   id="metadata21"><rdf:RDF><cc:Work
       rdf:about=""><dc:format>image/svg+xml</dc:format><dc:type
         rdf:resource="http://purl.org/dc/dcmitype/StillImage" /><dc:title></dc:title></cc:Work></rdf:RDF></metadata><defs
   id="defs19" /><sodipodi:namedview
   pagecolor="#ffffff"
   bordercolor="#666666"
   borderopacity="1"
   objecttolerance="10"
   gridtolerance="10"
   guidetolerance="10"
   inkscape:pageopacity="0"
   inkscape:pageshadow="2"
   inkscape:window-width="1209"
   inkscape:window-height="982"
   id="namedview17"
   showgrid="false"
   inkscape:zoom="1.665138"
   inkscape:cx="-44.140485"
   inkscape:cy="70.864998"
   inkscape:window-x="1957"
   inkscape:window-y="8"
   inkscape:window-maximized="0"
   inkscape:current-layer="g3" />
<g
   id="g3">
	<defs
   id="defs5">
		<rect
   id="SVGID_1_"
   y="-0.205"
   width="141.73"
   height="141.733" />
	</defs>
	<clipPath
   id="SVGID_2_">
		<use
   xlink:href="#SVGID_1_"
   overflow="visible"
   id="use9" />
	</clipPath>
	<path
   clip-path="url(#SVGID_2_)"
   fill="#8FB94B"
   d="M70.869,141.528c39.141,0,70.862-31.729,70.862-70.864   C141.73,31.525,110.01-0.2,70.869-0.2C31.725-0.2,0.002,31.525,0.002,70.664C0.002,109.799,31.725,141.528,70.869,141.528"
   id="path11"
   style="fill:#71aa17;fill-opacity:1" />
	<path
   clip-path="url(#SVGID_2_)"
   fill="#FFFFFF"
   d="M70.869,126.606c30.901,0,55.949-25.048,55.949-55.946   S101.77,14.714,70.869,14.714c-30.903,0-55.951,25.048-55.951,55.946S39.966,126.606,70.869,126.606"
   id="path13" />
	<path
   clip-path="url(#SVGID_2_)"
   fill="#8FB94B"
   d="M70.852,28.39c-6.356,0-11.513,5.161-11.513,11.517   c0,6.356,5.157,11.513,11.513,11.513c6.364,0,11.514-5.157,11.514-11.513C82.365,33.551,77.216,28.39,70.852,28.39 M95.559,108.591   c2.827,0,5.149-2.445,5.149-5.438v-2.511c0-2.013-8.225-9.354-13.338-13.829c-5.228-4.571-4.757-5.008-4.757-14.323l0.347,0.945   c0.231,0.746,0.639,1.453,1.229,2.048l0.009-0.009l11.927,11.984c1.936,1.941,5.079,1.949,7.024,0.018   c1.944-1.937,1.953-5.084,0.026-7.028l-7.564-7.595c-6.973-7.011-6.22-20.096-13.186-19.989H71.134h-0.54H59.304   c-6.969-0.107-6.21,12.978-13.188,19.989l-7.551,7.595c-1.94,1.944-1.928,5.092,0.017,7.028c1.944,1.932,5.093,1.924,7.024-0.018   l11.924-11.984l0.009,0.009c0.591-0.595,1.002-1.302,1.234-2.048l0.343-0.945c0,9.315,0.475,9.752-4.754,14.323   c-5.114,4.475-13.338,11.816-13.338,13.829v2.511c0,2.993,2.317,5.438,5.148,5.438h11.586c-1.983-1.982-2.274-4.072-1.971-6.57   c0.999-8.043,14.156-9.393,22.585-8.904c6.587,1.208,3.722,3.234,2.158,3.19c-0.273-0.008-0.548-0.017-0.805-0.017   c-18.718-1.773-26.393,6.823-15.321,11.86C67.417,109.358,90.916,108.591,95.559,108.591"
   id="path15"
   style="fill:#71aa17;fill-opacity:1" />
</g>
</svg>