<?xml version="1.0" encoding="UTF-8" standalone="no"?>
<!-- Generator: Adobe Illustrator 15.1.0, SVG Export Plug-In . SVG Version: 6.00 Build 0)  -->

<svg
   xmlns:dc="http://purl.org/dc/elements/1.1/"
   xmlns:cc="http://creativecommons.org/ns#"
   xmlns:rdf="http://www.w3.org/1999/02/22-rdf-syntax-ns#"
   xmlns:svg="http://www.w3.org/2000/svg"
   xmlns="http://www.w3.org/2000/svg"
   xmlns:xlink="http://www.w3.org/1999/xlink"
   xmlns:sodipodi="http://sodipodi.sourceforge.net/DTD/sodipodi-0.dtd"
   xmlns:inkscape="http://www.inkscape.org/namespaces/inkscape"
   version="1.1"
   id="Ebene_1"
   x="0px"
   y="0px"
   width="141.73px"
   height="141.73px"
   viewBox="0 0 141.73 141.73"
   enable-background="new 0 0 141.73 141.73"
   xml:space="preserve"
   inkscape:version="0.48.3.1 r9886"
   sodipodi:docname="entschleunigen.svg"
   inkscape:export-filename="M:\Themen\Tourismus\Lieblingsplaetze_im_Gruenen\lpg_entschleunigen.png"
   inkscape:export-xdpi="90"
   inkscape:export-ydpi="90"><metadata
   id="metadata23"><rdf:RDF><cc:Work
       rdf:about=""><dc:format>image/svg+xml</dc:format><dc:type
         rdf:resource="http://purl.org/dc/dcmitype/StillImage" /><dc:title></dc:title></cc:Work></rdf:RDF></metadata><defs
   id="defs21" /><sodipodi:namedview
   pagecolor="#ffffff"
   bordercolor="#666666"
   borderopacity="1"
   objecttolerance="10"
   gridtolerance="10"
   guidetolerance="10"
   inkscape:pageopacity="0"
   inkscape:pageshadow="2"
   inkscape:window-width="1166"
   inkscape:window-height="873"
   id="namedview19"
   showgrid="false"
   inkscape:zoom="1.665138"
   inkscape:cx="-44.140486"
   inkscape:cy="70.864998"
   inkscape:window-x="1933"
   inkscape:window-y="7"
   inkscape:window-maximized="0"
   inkscape:current-layer="g3" />
<g
   id="g3">
	<defs
   id="defs5">
		<rect
   id="SVGID_1_"
   x="0.158"
   y="-0.159"
   width="141.572"
   height="141.577" />
	</defs>
	<clipPath
   id="SVGID_2_">
		<use
   xlink:href="#SVGID_1_"
   overflow="visible"
   id="use9" />
	</clipPath>
	<path
   clip-path="url(#SVGID_2_)"
   fill="#3B5521"
   d="M70.947,141.418c39.099,0,70.783-31.694,70.783-70.786   c0-39.096-31.685-70.786-70.783-70.786S0.16,31.536,0.16,70.632C0.16,109.724,31.849,141.418,70.947,141.418"
   id="path11"
   style="fill:#1d6b26;fill-opacity:1" />
	<path
   clip-path="url(#SVGID_2_)"
   fill="#FFFFFF"
   d="M70.947,126.517c30.867,0,55.886-25.021,55.886-55.885   c0-30.864-25.019-55.884-55.886-55.884c-30.867,0-55.887,25.02-55.887,55.884C15.061,101.496,40.081,126.517,70.947,126.517"
   id="path13" />
	<path
   clip-path="url(#SVGID_2_)"
   fill="#3B5521"
   d="M106.443,77.575c0-5.317-1.207-10.344-3.3-14.862l-0.843,1.079l-11.637,14.17   h7.648c-0.136,14.768-12.012,26.691-26.643,26.691c-14.716,0-26.646-12.065-26.646-26.948c0-14.885,11.931-26.95,26.646-26.95   c10.395,0,19.396,6.015,23.787,14.79l5.493-6.708c-6.17-9.764-16.978-16.242-29.28-16.242c-19.146,0-34.672,15.685-34.707,35.044   c0.034,19.361,15.569,35.049,34.737,35.049c13.18,0,24.636-7.419,30.528-18.346c0.116-0.223,0.214-0.458,0.329-0.68   c0.378-0.736,0.739-1.476,1.07-2.236c1.737-4.142,2.72-8.691,2.746-13.465l0.06-0.287C106.434,77.64,106.443,77.605,106.443,77.575    M71.416,83.139c2.765,0,5.001-2.265,5.001-5.063c0-1.937-1.077-3.617-2.662-4.47l-0.651-13.417c-0.085-2.118-3.291-2.118-3.374,0   l-0.653,13.417c-1.583,0.853-2.665,2.533-2.665,4.47C66.412,80.874,68.651,83.139,71.416,83.139"
   id="path15"
   style="fill:#1d6b26;fill-opacity:1" />
	<path
   clip-path="url(#SVGID_2_)"
   fill="#3B5521"
   d="M66.882,37.933v2.464c3.278-0.436,6.1-0.445,9.377-0.021v-2.442h3.349   c0.703,0,1.284-0.582,1.284-1.297v-7.504c0-0.714-0.573-1.301-1.284-1.301h-16.07c-0.711,0-1.284,0.586-1.284,1.301v7.504   c0,0.715,0.577,1.297,1.284,1.297H66.882z M48.453,39.177l-4.376,3.025c-0.584,0.411-0.738,1.219-0.334,1.81l2.905,4.291   c0.398,0.59,1.205,0.745,1.787,0.338l4.376-3.029c0.584-0.402,0.736-1.219,0.333-1.81l-2.9-4.283   C49.842,38.924,49.035,38.771,48.453,39.177"
   id="path17"
   style="fill:#1d6b26;fill-opacity:1" />
</g>
</svg>