<svg width="29" height="33" viewBox="0 0 38 43" xmlns="http://www.w3.org/2000/svg"><title>0A6F4952-4A5A-4E86-88E4-4B3D2EA1E3DF</title><g stroke="#FFF" stroke-width="2" fill="#005CA9" fill-rule="nonzero"><path d="M22.584 1C15.101 1 9 7.101 9 14.584c0 8.103 7.865 20.448 11.63 25.93a2.36 2.36 0 0 0 3.908 0c3.766-5.482 11.63-17.922 11.63-25.93C36.168 7.054 30.068 1 22.584 1z"/><path d="M18.584 1C11.101 1 5 7.101 5 14.584c0 8.103 7.865 20.448 11.63 25.93a2.36 2.36 0 0 0 3.908 0c3.766-5.482 11.63-17.922 11.63-25.93C32.168 7.054 26.068 1 18.584 1z"/><path d="M14.584 1C7.101 1 1 7.101 1 14.584c0 8.103 7.865 20.448 11.63 25.93a2.36 2.36 0 0 0 3.908 0c3.766-5.482 11.63-17.922 11.63-25.93C28.168 7.054 22.068 1 14.584 1z"/></g></svg>
