<?xml version="1.0" encoding="UTF-8" standalone="no"?>
<!-- Generator: Adobe Illustrator 15.0.0, SVG Export Plug-In . SVG Version: 6.00 Build 0)  -->

<svg
   xmlns:dc="http://purl.org/dc/elements/1.1/"
   xmlns:cc="http://creativecommons.org/ns#"
   xmlns:rdf="http://www.w3.org/1999/02/22-rdf-syntax-ns#"
   xmlns:svg="http://www.w3.org/2000/svg"
   xmlns="http://www.w3.org/2000/svg"
   xmlns:sodipodi="http://sodipodi.sourceforge.net/DTD/sodipodi-0.dtd"
   xmlns:inkscape="http://www.inkscape.org/namespaces/inkscape"
   version="1.1"
   id="Ebene_1"
   x="0px"
   y="0px"
   width="40px"
   height="40px"
   viewBox="0 0 40 40"
   enable-background="new 0 0 40 40"
   xml:space="preserve"
   inkscape:version="0.48.3.1 r9886"
   sodipodi:docname="moor.svg"
   inkscape:export-filename="R:\Themen\Icons\Icons_MRH\Grundkonzept\Icons_MRH_neues_Konzept\neues_konzept_sport_natur\moor.png"
   inkscape:export-xdpi="90"
   inkscape:export-ydpi="90"><metadata
   id="metadata22"><rdf:RDF><cc:Work
       rdf:about=""><dc:format>image/svg+xml</dc:format><dc:type
         rdf:resource="http://purl.org/dc/dcmitype/StillImage" /><dc:title></dc:title></cc:Work></rdf:RDF></metadata><defs
   id="defs20" /><sodipodi:namedview
   pagecolor="#ffffff"
   bordercolor="#666666"
   borderopacity="1"
   objecttolerance="10"
   gridtolerance="10"
   guidetolerance="10"
   inkscape:pageopacity="0"
   inkscape:pageshadow="2"
   inkscape:window-width="1062"
   inkscape:window-height="929"
   id="namedview18"
   showgrid="false"
   inkscape:zoom="5.9"
   inkscape:cx="15.438894"
   inkscape:cy="20"
   inkscape:window-x="1365"
   inkscape:window-y="33"
   inkscape:window-maximized="0"
   inkscape:current-layer="layer1" />
<g
   id="XMLID_1_">
	<g
   id="g4">
		<path
   fill="#FCF7E3"
   d="M20,1c10.49,0,19,8.51,19,19s-8.51,19-19,19S1,30.49,1,20S9.51,1,20,1z"
   id="path6" />
	</g>
	<g
   id="g8">
		<path
   fill="none"
   stroke="#463D16"
   stroke-width="2"
   stroke-miterlimit="10"
   d="M39,20c0,10.49-8.51,19-19,19S1,30.49,1,20    S9.51,1,20,1S39,9.51,39,20z"
   id="path10" />
	</g>
</g>
<g
   id="Ebene_6">
	<path
   fill="#B5A96D"
   d="M37.721,20.469c-0.677,9.741-8.056,17.549-17.618,17.549S1.955,29.47,1.955,20.475   c0-3.246,0.479-3.972,0.479-3.972s1.667,0.296,1.878-0.727c0.95-4.581,7.997-15.503,21.62-11.005   c0.588,0.194,1.285-1.281,1.285-1.281s1.988,0.919,3.033,1.673C30.622,5.432,38.484,9.485,37.721,20.469z"
   id="path13" />
</g>
<g
   id="Ebene_2">
	<path
   fill="#9B8C42"
   d="M36.823,13.553c0,0,1.671,3.403,1.307,7.235c-1.228,12.915-11.927,17.413-17.364,17.365   C5.31,38.019,2.435,24.181,2.435,24.181c0-0.886,3.266-2.364,7.903-2.812c4.645-0.448,7.399,1.898,9.888,0.279   c0.438-0.285,3.713-4.138,5.81-5.419C28.916,14.47,33.307,13.553,36.823,13.553z"
   id="path16" />
</g>
<g
   inkscape:groupmode="layer"
   id="layer1"
   inkscape:label="moor"><path
     style="fill:none;stroke:#3e000d;stroke-width:2;stroke-linecap:butt;stroke-linejoin:miter;stroke-miterlimit:4;stroke-opacity:1;stroke-dasharray:none"
     d="m 7.4576272,20.847458 13.0508478,0"
     id="path3002"
     inkscape:connector-curvature="0" /><path
     style="fill:none;stroke:#3e000d;stroke-width:2;stroke-linecap:butt;stroke-linejoin:miter;stroke-miterlimit:4;stroke-opacity:1;stroke-dasharray:none"
     d="m 13.898305,25.762712 18.644068,0"
     id="path3004"
     inkscape:connector-curvature="0" /><path
     style="fill:none;stroke:#3e000d;stroke-width:2;stroke-linecap:butt;stroke-linejoin:miter;stroke-miterlimit:0;stroke-opacity:1;stroke-dasharray:none"
     d="m 11.864406,15.932204 c 0.903955,0 1.80791,0 2.711864,0 2.316385,0 4.632769,0 6.949153,0 0.960452,0 1.920904,0 2.881356,0 0.282486,0 0.564972,0 0.847458,0 0.112994,0 0.225988,0 0.338983,0 0.0565,0 0.169491,-0.0565 0.169491,0 0,0.0565 -0.112994,0 -0.169491,0 -0.169492,0 -0.338983,0 -0.508475,0 -0.169492,0 -0.338983,0 -0.508475,0 -0.0565,0 -0.169491,0.0565 -0.169491,0 0,-0.0565 0.112994,0 0.169491,0 0.0565,0 0.169492,-0.0565 0.169492,0 0,0.0565 -0.112994,0 -0.169492,0"
     id="path3780"
     inkscape:connector-curvature="0" /></g></svg>