<?xml version="1.0" encoding="UTF-8" standalone="no"?>
<!-- Generator: Adobe Illustrator 15.0.0, SVG Export Plug-In . SVG Version: 6.00 Build 0)  -->

<svg
   xmlns:dc="http://purl.org/dc/elements/1.1/"
   xmlns:cc="http://creativecommons.org/ns#"
   xmlns:rdf="http://www.w3.org/1999/02/22-rdf-syntax-ns#"
   xmlns:svg="http://www.w3.org/2000/svg"
   xmlns="http://www.w3.org/2000/svg"
   xmlns:sodipodi="http://sodipodi.sourceforge.net/DTD/sodipodi-0.dtd"
   xmlns:inkscape="http://www.inkscape.org/namespaces/inkscape"
   version="1.1"
   x="0px"
   y="0px"
   width="40px"
   height="40px"
   viewBox="0 0 40 40"
   enable-background="new 0 0 40 40"
   xml:space="preserve"
   id="svg2"
   inkscape:version="0.48.3.1 r9886"
   sodipodi:docname="museum.svg"
   inkscape:export-filename="G:\AG_GDI-HH\Icons\MRH_Tage_Industriekultur\museum.png"
   inkscape:export-xdpi="90"
   inkscape:export-ydpi="90"><metadata
   id="metadata26"><rdf:RDF><cc:Work
       rdf:about=""><dc:format>image/svg+xml</dc:format><dc:type
         rdf:resource="http://purl.org/dc/dcmitype/StillImage" /><dc:title></dc:title></cc:Work></rdf:RDF></metadata><defs
   id="defs24" /><sodipodi:namedview
   pagecolor="#ffffff"
   bordercolor="#666666"
   borderopacity="1"
   objecttolerance="10"
   gridtolerance="10"
   guidetolerance="10"
   inkscape:pageopacity="0"
   inkscape:pageshadow="2"
   inkscape:window-width="1643"
   inkscape:window-height="1012"
   id="namedview22"
   showgrid="false"
   inkscape:zoom="20.825"
   inkscape:cx="13.925109"
   inkscape:cy="20"
   inkscape:window-x="2060"
   inkscape:window-y="34"
   inkscape:window-maximized="0"
   inkscape:current-layer="svg2" />
<g
   id="Ebene_4">
	<path
   fill-rule="evenodd"
   clip-rule="evenodd"
   fill="#4389C8"
   stroke="#106FB7"
   stroke-width="2"
   stroke-miterlimit="10"
   d="   M39,33.813C39,40.098,40.098,39,33.813,39H6.5C0.214,39,1,40.035,1,33.75V6.375C1,0.089,0.089,1,6.375,1h27.438   C40.098,1,39,0.089,39,6.375V33.813z"
   id="path5"
   style="fill:#ffffff;fill-opacity:1" />
</g>
<g
   id="Ebene_8"
   transform="matrix(1,0,0,0.67798989,-0.19207683,12.698544)">
	
</g>


<rect
   style="opacity:0.98999999;fill:#008ac3;fill-opacity:1;stroke:none"
   id="rect4022"
   width="32.013752"
   height="3.0233192"
   x="4.1935105"
   y="33.997932" /><path
   sodipodi:type="star"
   style="opacity:0.98999999;fill:none;stroke:none"
   id="path2988"
   sodipodi:sides="4"
   sodipodi:cx="10.948379"
   sodipodi:cy="10.036014"
   sodipodi:r1="19.059513"
   sodipodi:r2="13.477111"
   sodipodi:arg1="0.87638063"
   sodipodi:arg2="1.6617788"
   inkscape:flatsided="true"
   inkscape:rounded="0"
   inkscape:randomized="0"
   d="M 23.145258,24.681872 -3.6974802,22.232893 -1.2485006,-4.6098452 25.594237,-2.1608655 z" /><g
   transform="scale(0.9465142,1.0565082)"
   style="font-size:40.52567673px;font-style:normal;font-weight:bold;line-height:125%;letter-spacing:0px;word-spacing:0px;fill:#008ac3;fill-opacity:1;stroke:none;font-family:Sans;-inkscape-font-specification:Sans Bold"
   id="text3766"><path
     d="M 4.7535422,31.08839 5.2482404,27.091229 6.475092,13.219891 7.0885177,4.0778685 c 2.4273129,0.026411 4.3335483,0.039603 5.7187113,0.039576 1.147689,2.69e-5 2.902217,-0.013165 5.263589,-0.039576 0.17148,1.1345338 0.316592,1.9953078 0.435334,2.5823246 0.118712,0.5870657 0.412233,1.7347644 0.880563,3.4430999 0.468298,1.708377 0.844268,3.185874 1.127912,4.432496 0.283609,1.246654 0.709049,3.38045 1.276321,6.401394 0.580427,-2.071124 1.108105,-3.852036 1.583035,-5.34274 0.474889,-1.490674 1.068526,-3.185838 1.780913,-5.085498 0.712343,-1.8996185 1.164167,-3.1429587 1.355473,-3.7300243 0.19126,-0.587017 0.451801,-1.4873668 0.781623,-2.7010522 1.978767,0.026411 3.917982,0.039603 5.817651,0.039576 1.29278,2.69e-5 3.086884,-0.013165 5.382317,-0.039576 -0.250682,4.4457104 -0.415582,8.2647765 -0.494699,11.4572105 -0.17153,6.252994 -0.257277,10.553567 -0.257243,12.901729 -3.4e-5,0.488104 0.01316,1.371964 0.03958,2.651582 -1.74137,-0.02638 -2.961625,-0.03957 -3.660767,-0.03958 -1.01581,1e-6 -2.262448,0.01319 -3.739918,0.03958 0.105508,-1.187274 0.237428,-4.013647 0.395759,-8.479127 0.158275,-4.465463 0.237427,-7.318219 0.237455,-8.558279 -2.8e-5,-0.540852 -0.01322,-1.292793 -0.03958,-2.255824 l -2.592219,8.053687 -3.72013,11.239543 c -1.714974,-0.02638 -2.895652,-0.03957 -3.542039,-0.03958 -0.817918,1e-6 -2.071153,0.01319 -3.759707,0.03958 L 14.924537,20.20503 13.499806,14.407167 c -0.05278,-0.224246 -0.112141,-0.501277 -0.178091,-0.831093 -0.06597,-0.329781 -0.171505,-0.910226 -0.316607,-1.741338 l -0.494698,5.481256 -0.653002,11.239544 -0.05936,2.532854 c -1.8204965,-0.02638 -2.9813871,-0.03957 -3.4826757,-0.03958 -0.6859859,1e-6 -1.8732604,0.01319 -3.5618271,0.03958 z"
     style="font-variant:normal;font-weight:normal;font-stretch:normal;fill:#008ac3;font-family:Eras Bold ITC;-inkscape-font-specification:Eras Bold ITC"
     id="path2989" /></g>
</svg>