<?xml version="1.0" encoding="UTF-8" standalone="no"?>
<!-- Generator: Adobe Illustrator 15.0.0, SVG Export Plug-In . SVG Version: 6.00 Build 0)  -->

<svg
   xmlns:dc="http://purl.org/dc/elements/1.1/"
   xmlns:cc="http://creativecommons.org/ns#"
   xmlns:rdf="http://www.w3.org/1999/02/22-rdf-syntax-ns#"
   xmlns:svg="http://www.w3.org/2000/svg"
   xmlns="http://www.w3.org/2000/svg"
   xmlns:sodipodi="http://sodipodi.sourceforge.net/DTD/sodipodi-0.dtd"
   xmlns:inkscape="http://www.inkscape.org/namespaces/inkscape"
   version="1.1"
   id="Ebene_1"
   x="0px"
   y="0px"
   width="40px"
   height="40px"
   viewBox="0 0 40 40"
   enable-background="new 0 0 40 40"
   xml:space="preserve"
   inkscape:version="0.48.3.1 r9886"
   sodipodi:docname="button_kultur.svg"
   inkscape:export-filename="M:\Themen\Icons\Icons_MRH\Grundkonzept\Icons_MRH_neues_Konzept\neues_konzept_kultur\museum_rund.png"
   inkscape:export-xdpi="90"
   inkscape:export-ydpi="90"><metadata
   id="metadata22"><rdf:RDF><cc:Work
       rdf:about=""><dc:format>image/svg+xml</dc:format><dc:type
         rdf:resource="http://purl.org/dc/dcmitype/StillImage" /><dc:title></dc:title></cc:Work></rdf:RDF></metadata><defs
   id="defs20" /><sodipodi:namedview
   pagecolor="#ffffff"
   bordercolor="#666666"
   borderopacity="1"
   objecttolerance="10"
   gridtolerance="10"
   guidetolerance="10"
   inkscape:pageopacity="0"
   inkscape:pageshadow="2"
   inkscape:window-width="1108"
   inkscape:window-height="884"
   id="namedview18"
   showgrid="false"
   inkscape:zoom="5.9"
   inkscape:cx="0.50847458"
   inkscape:cy="20"
   inkscape:window-x="489"
   inkscape:window-y="52"
   inkscape:window-maximized="0"
   inkscape:current-layer="layer1" />
<g
   id="XMLID_1_">
	<g
   id="g4">
		<path
   fill="#F4BBA2"
   d="M20,1c10.49,0,19,8.51,19,19s-8.51,19-19,19S1,30.49,1,20S9.51,1,20,1z"
   id="path6" />
	</g>
	<g
   id="g8">
		<path
   fill="none"
   stroke="#993300"
   stroke-width="2"
   stroke-miterlimit="10"
   d="M39,20c0,10.49-8.51,19-19,19S1,30.49,1,20    S9.51,1,20,1S39,9.51,39,20z"
   id="path10" />
	</g>
</g>
<g
   id="Ebene_6">
	<path
   fill="#B76649"
   d="M37.418,20.336c-0.961,9.717-7.753,17.682-17.315,17.682S1.955,29.47,1.955,20.475   c0-6.435,2.183-2.926,2.358-4.587C4.76,11.643,12.246,0,25.989,4.827c0.779,0.274,1.261-1.136,2.122-0.838   C29.564,4.492,38.548,8.911,37.418,20.336z"
   id="path13" />
</g>
<g
   id="Ebene_2">
	<path
   fill="#AA5733"
   d="M36.823,13.553c0,0,1.671,3.403,1.307,7.235c-1.228,12.915-11.927,17.413-17.364,17.365   C5.31,38.019,2.435,24.181,2.435,24.181c0-0.886,3.266-2.364,7.903-2.812c4.645-0.448,7.399,1.898,9.888,0.279   c0.438-0.285,3.713-4.138,5.81-5.419C28.916,14.47,33.307,13.553,36.823,13.553z"
   id="path16" />
</g>
<g
   inkscape:groupmode="layer"
   id="layer1"
   inkscape:label="Ebene"><g
     transform="translate(-0.61851653,-5.0134492)"
     id="Ebene_4"><polygon
       style="fill:#ffffff"
       points="31.15,22 10.313,22 20.196,12.993 "
       id="polygon14" /><rect
       style="fill:#ffffff"
       x="13"
       y="23"
       width="3"
       height="10"
       id="rect16" /><rect
       style="fill:#ffffff"
       x="19"
       y="23"
       width="4"
       height="10"
       id="rect18" /><rect
       style="fill:#ffffff"
       x="26"
       y="23"
       width="3"
       height="10"
       id="rect20" /><polygon
       style="fill:#ffffff"
       points="11.592,33 30.322,33 31.602,35 10.313,35 "
       id="polygon22" /></g></g></svg>