<?xml version="1.0" encoding="UTF-8" standalone="no"?>
<!-- Generator: Adobe Illustrator 15.0.0, SVG Export Plug-In . SVG Version: 6.00 Build 0)  -->

<svg
   xmlns:dc="http://purl.org/dc/elements/1.1/"
   xmlns:cc="http://creativecommons.org/ns#"
   xmlns:rdf="http://www.w3.org/1999/02/22-rdf-syntax-ns#"
   xmlns:svg="http://www.w3.org/2000/svg"
   xmlns="http://www.w3.org/2000/svg"
   xmlns:sodipodi="http://sodipodi.sourceforge.net/DTD/sodipodi-0.dtd"
   xmlns:inkscape="http://www.inkscape.org/namespaces/inkscape"
   version="1.1"
   x="0px"
   y="0px"
   width="40px"
   height="40px"
   viewBox="0 0 40 40"
   enable-background="new 0 0 40 40"
   xml:space="preserve"
   id="svg2"
   inkscape:version="0.48.3.1 r9886"
   sodipodi:docname="button_wasser_blau.svg"
   inkscape:export-filename="R:\Themen\Icons\Icons_MRH\Grundkonzept\Icons_MRH_neues_Konzept\neues_konzept_draussenimgruenen\nordsee.png"
   inkscape:export-xdpi="90"
   inkscape:export-ydpi="90"><metadata
   id="metadata28"><rdf:RDF><cc:Work
       rdf:about=""><dc:format>image/svg+xml</dc:format><dc:type
         rdf:resource="http://purl.org/dc/dcmitype/StillImage" /><dc:title></dc:title></cc:Work></rdf:RDF></metadata><defs
   id="defs26" /><sodipodi:namedview
   pagecolor="#ffffff"
   bordercolor="#666666"
   borderopacity="1"
   objecttolerance="10"
   gridtolerance="10"
   guidetolerance="10"
   inkscape:pageopacity="0"
   inkscape:pageshadow="2"
   inkscape:window-width="1250"
   inkscape:window-height="938"
   id="namedview24"
   showgrid="false"
   inkscape:zoom="5.9"
   inkscape:cx="-10.084746"
   inkscape:cy="20"
   inkscape:window-x="17"
   inkscape:window-y="37"
   inkscape:window-maximized="0"
   inkscape:current-layer="layer1" />
<g
   id="Ebene_1"
   transform="translate(-0.16949153,0)">
	<g
   id="XMLID_1_"
   style="fill:#729ad8;fill-opacity:1;stroke:#2a2f87;stroke-opacity:1">
		<g
   id="g6"
   style="fill:#729ad8;fill-opacity:1;stroke:#2a2f87;stroke-opacity:1">
			<path
   d="M 20,1 C 30.49,1 39,9.51 39,20 39,30.49 30.49,39 20,39 9.51,39 1,30.49 1,20 1,9.51 9.51,1 20,1 z"
   id="path8"
   style="fill:#729ad8;fill-opacity:1;stroke:#2a2f87;stroke-opacity:1"
   inkscape:connector-curvature="0" />
		</g>
		<g
   id="g10"
   style="fill:#729ad8;fill-opacity:1;stroke:#2a2f87;stroke-opacity:1">
			<path
   stroke-miterlimit="10"
   d="M 39,20 C 39,30.49 30.49,39 20,39 9.51,39 1,30.49 1,20 1,9.51 9.51,1 20,1 30.49,1 39,9.51 39,20 z"
   id="path12"
   style="fill:#729ad8;fill-opacity:1;stroke:#2a2f87;stroke-width:2;stroke-miterlimit:10;stroke-opacity:1"
   inkscape:connector-curvature="0" />
		</g>
	</g>
	<g
   id="Ebene_6"
   style="fill:#2743d8;fill-opacity:1">
		<path
   d="m 37.721,20.469 c -0.677,9.741 -8.056,17.549 -17.618,17.549 -9.562,0 -18.148,-8.548 -18.148,-17.543 0,-3.246 0.479,-3.972 0.479,-3.972 0,0 1.667,0.296 1.878,-0.727 0.95,-4.581 7.997,-15.503 21.62,-11.005 0.588,0.194 1.285,-1.281 1.285,-1.281 0,0 1.988,0.919 3.033,1.673 0.372,0.269 8.234,4.322 7.471,15.306 z"
   id="path15"
   style="fill:#2743d8;fill-opacity:1"
   inkscape:connector-curvature="0" />
	</g>
	<g
   id="Ebene_2"
   style="fill:#1f39b8;fill-opacity:1">
		<path
   d="m 36.823,13.553 c 0,0 1.671,3.403 1.307,7.235 C 36.902,33.703 26.203,38.201 20.766,38.153 5.31,38.019 2.435,24.181 2.435,24.181 c 0,-0.886 3.266,-2.364 7.903,-2.812 4.645,-0.448 7.399,1.898 9.888,0.279 0.438,-0.285 3.713,-4.138 5.81,-5.419 2.88,-1.759 7.271,-2.676 10.787,-2.676 z"
   id="path18"
   style="fill:#1f39b8;fill-opacity:1"
   inkscape:connector-curvature="0" />
	</g>
</g><g
   inkscape:groupmode="layer"
   id="layer1"
   inkscape:label="Ebene"
   style="display:inline"><path
     style="fill:none;stroke:#ffffff;stroke-width:1.374;stroke-linecap:butt;stroke-linejoin:miter;stroke-miterlimit:4;stroke-opacity:1;stroke-dasharray:none"
     d="m 4.7566013,21.912421 c 1.324289,0 3.583162,-4.317637 4.576378,-5.252383 0.9932177,-0.934747 3.2339577,-2.733373 4.8986347,-2.918391 8.2649,-0.918592 2.365413,5.142179 2.365413,5.142179 0,0 1.732404,-2.661751 -0.839953,-2.754341 -3.438563,-0.123768 -5.253069,5.395513 -5.253069,6.096572 0,1.157606 2.8623,-0.360544 4.628019,-0.204753 1.765718,0.15579 3.081276,1.304287 3.853778,0.369539 0.772502,-0.934747 2.780389,-5.924289 6.012934,-7.735988 2.98349,-2.231531 9.236067,-0.340223 4.695555,3.861031 -0.574352,-6.28461 -7.675388,1.177043 -4.846909,4.288204 0.551787,0.467374 3.061646,-0.243019 3.944505,-0.243019 0.88286,0 4.587106,-2.018462 4.587106,-2.018462"
     id="path3828"
     inkscape:connector-curvature="0"
     sodipodi:nodetypes="csscsssscccsc" /><path
     style="fill:none;stroke:#ffffff;stroke-width:1.39999998;stroke-linecap:butt;stroke-linejoin:miter;stroke-miterlimit:4;stroke-opacity:1;stroke-dasharray:none"
     d="m 6.9491525,28.135594 c 1.8644068,-1.016949 3.3898305,-2.033899 5.9322035,-1.864408 2.542373,0.169492 4.067797,2.033899 7.288136,2.203391 3.220339,0.169491 3.898304,-2.033899 7.288134,-2.033899 3.389832,0 5.254238,1.694915 5.254238,1.694915"
     id="path3848"
     inkscape:connector-curvature="0"
     sodipodi:nodetypes="csssc"
     inkscape:export-filename="R:\Themen\Icons\Icons_MRH\Grundkonzept\Icons_MRH_neues_Konzept\neues_konzept_draussenimgruenen\nordsee.png"
     inkscape:export-xdpi="90"
     inkscape:export-ydpi="90" /></g>
<g
   id="Ebene_5">
</g>
<g
   id="Ebene_3"
   display="none">
	<circle
   display="inline"
   fill="#FFD64D"
   stroke="#F9B02A"
   stroke-width="2"
   stroke-miterlimit="10"
   cx="20"
   cy="20"
   r="19"
   id="circle22" />
</g>
</svg>