<?xml version="1.0" encoding="UTF-8" standalone="no"?>
<!-- Generator: Adobe Illustrator 15.0.0, SVG Export Plug-In . SVG Version: 6.00 Build 0)  -->

<svg
   xmlns:dc="http://purl.org/dc/elements/1.1/"
   xmlns:cc="http://creativecommons.org/ns#"
   xmlns:rdf="http://www.w3.org/1999/02/22-rdf-syntax-ns#"
   xmlns:svg="http://www.w3.org/2000/svg"
   xmlns="http://www.w3.org/2000/svg"
   xmlns:sodipodi="http://sodipodi.sourceforge.net/DTD/sodipodi-0.dtd"
   xmlns:inkscape="http://www.inkscape.org/namespaces/inkscape"
   version="1.1"
   x="0px"
   y="0px"
   width="40px"
   height="40px"
   viewBox="0 0 40 40"
   enable-background="new 0 0 40 40"
   xml:space="preserve"
   id="svg2"
   inkscape:version="0.48.3.1 r9886"
   sodipodi:docname="best_zea_1.svg"
   inkscape:export-filename="L:\Projekte\Flüchtlingsunterbringung\Icons\best_zea_1.png"
   inkscape:export-xdpi="90"
   inkscape:export-ydpi="90"><metadata
   id="metadata24"><rdf:RDF><cc:Work
       rdf:about=""><dc:format>image/svg+xml</dc:format><dc:type
         rdf:resource="http://purl.org/dc/dcmitype/StillImage" /><dc:title></dc:title></cc:Work></rdf:RDF></metadata><defs
   id="defs22" /><sodipodi:namedview
   pagecolor="#ffffff"
   bordercolor="#666666"
   borderopacity="1"
   objecttolerance="10"
   gridtolerance="10"
   guidetolerance="10"
   inkscape:pageopacity="0"
   inkscape:pageshadow="2"
   inkscape:window-width="1509"
   inkscape:window-height="965"
   id="namedview20"
   showgrid="false"
   inkscape:zoom="17.797186"
   inkscape:cx="17.504943"
   inkscape:cy="19.925691"
   inkscape:window-x="747"
   inkscape:window-y="39"
   inkscape:window-maximized="0"
   inkscape:current-layer="text2988" />
<g
   id="Ebene_7">
	<path
   fill-rule="evenodd"
   clip-rule="evenodd"
   fill="#F4B06C"
   stroke="#DE7E0D"
   stroke-width="2"
   stroke-miterlimit="10"
   d="   M37.162,38.234c0,0.38-0.392,0.703-0.782,0.703H5.313c-0.387,0-1.111-0.607-1.111-0.987L3.938,20C3.938,19.34,2,19.125,2,19.125   S19.195,1.666,19.449,1.416c0.335-0.32,0.79-0.218,1.006-0.009C20.621,1.567,38.36,18.958,38.36,18.958s-1.296,0.499-1.254,1.117   L37.162,38.234z"
   id="path5"
   style="stroke:#00734c;stroke-opacity:1;fill:#009864;fill-opacity:1" />
</g>
<g
   id="Ebene_9">
	<polygon
   fill-rule="evenodd"
   clip-rule="evenodd"
   fill="#F9E7CD"
   points="20,2.369 3.958,18.583 5.486,20 21.575,3.933  "
   id="polygon8"
   style="fill:#17c386;fill-opacity:1" />
</g>
<g
   id="Ebene_8"
   transform="matrix(1.0018114,0,0,1,-0.00920719,0)">
	<path
   clip-rule="evenodd"
   d="m 36.103,37.915 c -0.774,0.007 -1.194,0.035 -1.566,0.035 H 5.625 C 5.02,38.03 5.083,37.656 5.083,37.542 l 0.042,-6.25 c 0,-0.202 1.482,-0.821 1.482,-0.821 0,0 12.561,-3.924 12.872,-4.022 0.318,-0.098 0.75,-0.065 0.955,-0.004 0.205,0.064 14.516,4.568 14.516,4.568 0,0 1.114,0.233 1.152,0.425 v 6.477 z"
   id="path11"
   style="fill:#00734c;fill-opacity:1;fill-rule:evenodd"
   inkscape:connector-curvature="0" />
</g>

<g
   inkscape:groupmode="layer"
   id="layer1"
   inkscape:label="Ebene" /><g
   transform="scale(0.9136512,1.0945096)"
   style="font-size:15.40731144px;font-style:normal;font-weight:bold;line-height:125%;letter-spacing:0px;word-spacing:0px;fill:#ffffff;fill-opacity:1;stroke:none;font-family:Sans;-inkscape-font-specification:Sans Bold"
   id="text2988"><g
     transform="translate(-0.01274953,-0.02994425)"
     style="font-size:15.40731144px;font-style:normal;font-weight:bold;line-height:125%;letter-spacing:0px;word-spacing:0px;fill:#00734c;fill-opacity:1;stroke:none;font-family:Sans;-inkscape-font-specification:Sans Bold"
     id="text2988-1"><path
       d="m 12.644192,29.666912 0,-11.028868 8.529264,0 0,1.86573 -6.206668,0 0,2.445008 5.775105,0 0,1.858206 -5.775105,0 0,3.001718 6.426373,0 0,1.858206 z"
       style="font-variant:normal;font-stretch:normal;fill:#ffffff;fill-opacity:1;stroke:none;font-family:Arial;-inkscape-font-specification:Arial Bold"
       id="path3763"
       inkscape:connector-curvature="0" /><path
       d="m 33.751572,29.666912 -2.526607,0 -1.004367,-2.505193 -4.598113,0 -0.94944,2.505193 -2.463836,0 4.480414,-11.028868 2.455989,0 z m -4.276402,-4.363399 -1.585015,-4.092567 -1.553628,4.092567 z"
       style="font-variant:normal;font-stretch:normal;fill:#ffffff;fill-opacity:1;font-family:Arial;-inkscape-font-specification:Arial Bold"
       id="path3765"
       inkscape:connector-curvature="0" /></g></g></svg>