<?xml version="1.0" encoding="UTF-8" standalone="no"?>
<!-- Generator: Adobe Illustrator 15.0.0, SVG Export Plug-In . SVG Version: 6.00 Build 0)  -->

<svg
   xmlns:dc="http://purl.org/dc/elements/1.1/"
   xmlns:cc="http://creativecommons.org/ns#"
   xmlns:rdf="http://www.w3.org/1999/02/22-rdf-syntax-ns#"
   xmlns:svg="http://www.w3.org/2000/svg"
   xmlns="http://www.w3.org/2000/svg"
   xmlns:sodipodi="http://sodipodi.sourceforge.net/DTD/sodipodi-0.dtd"
   xmlns:inkscape="http://www.inkscape.org/namespaces/inkscape"
   version="1.1"
   x="0px"
   y="0px"
   width="40px"
   height="40px"
   viewBox="0 0 40 40"
   enable-background="new 0 0 40 40"
   xml:space="preserve"
   id="svg2"
   inkscape:version="0.48.3.1 r9886"
   sodipodi:docname="geplant_folgeunterkunft_portal.svg"
   inkscape:export-filename="L:\Projekte\Flüchtlingsunterbringung\Icons\geplant_folgeunterkunft_portal_1.png"
   inkscape:export-xdpi="90"
   inkscape:export-ydpi="90"><metadata
   id="metadata24"><rdf:RDF><cc:Work
       rdf:about=""><dc:format>image/svg+xml</dc:format><dc:type
         rdf:resource="http://purl.org/dc/dcmitype/StillImage" /><dc:title></dc:title></cc:Work></rdf:RDF></metadata><defs
   id="defs22" /><sodipodi:namedview
   pagecolor="#ffffff"
   bordercolor="#666666"
   borderopacity="1"
   objecttolerance="10"
   gridtolerance="10"
   guidetolerance="10"
   inkscape:pageopacity="0"
   inkscape:pageshadow="2"
   inkscape:window-width="1509"
   inkscape:window-height="951"
   id="namedview20"
   showgrid="false"
   inkscape:zoom="17.797186"
   inkscape:cx="29.602283"
   inkscape:cy="19.925691"
   inkscape:window-x="104"
   inkscape:window-y="0"
   inkscape:window-maximized="0"
   inkscape:current-layer="svg2" />
<g
   id="Ebene_7">
	<path
   fill-rule="evenodd"
   clip-rule="evenodd"
   fill="#F4B06C"
   stroke="#DE7E0D"
   stroke-width="2"
   stroke-miterlimit="10"
   d="   M37.162,38.234c0,0.38-0.392,0.703-0.782,0.703H5.313c-0.387,0-1.111-0.607-1.111-0.987L3.938,20C3.938,19.34,2,19.125,2,19.125   S19.195,1.666,19.449,1.416c0.335-0.32,0.79-0.218,1.006-0.009C20.621,1.567,38.36,18.958,38.36,18.958s-1.296,0.499-1.254,1.117   L37.162,38.234z"
   id="path5"
   style="stroke:#4d0074;stroke-opacity:1;fill:#f1e5f8;fill-opacity:1" />
</g>
<g
   id="Ebene_9">
	<polygon
   fill-rule="evenodd"
   clip-rule="evenodd"
   fill="#F9E7CD"
   points="20,2.369 3.958,18.583 5.486,20 21.575,3.933  "
   id="polygon8"
   style="fill:#e6d2ff;fill-opacity:1" />
</g>
<g
   id="Ebene_8"
   transform="matrix(1.0018114,0,0,1,-0.00920719,0)">
	<path
   clip-rule="evenodd"
   d="m 36.103,37.915 c -0.774,0.007 -1.194,0.035 -1.566,0.035 H 5.625 C 5.02,38.03 5.083,37.656 5.083,37.542 l 0.042,-6.25 c 0,-0.202 1.482,-0.821 1.482,-0.821 0,0 12.561,-3.924 12.872,-4.022 0.318,-0.098 0.75,-0.065 0.955,-0.004 0.205,0.064 14.516,4.568 14.516,4.568 0,0 1.114,0.233 1.152,0.425 v 6.477 z"
   id="path11"
   style="fill:#e4ccff;fill-opacity:1;fill-rule:evenodd"
   inkscape:connector-curvature="0" />
</g>

<g
   inkscape:groupmode="layer"
   id="layer1"
   inkscape:label="Ebene" /><g
   transform="scale(0.9619607,1.0395435)"
   style="font-size:6.2372613px;font-style:normal;font-weight:bold;line-height:125%;letter-spacing:0px;word-spacing:0px;fill:#4d0074;fill-opacity:1;stroke:none;font-family:Sans;-inkscape-font-specification:Sans Bold"
   id="text2991"><path
     d="m 8.3177391,27.921177 c -6e-7,-0.757995 0.1867921,-1.49163 0.5603789,-2.200908 0.3735844,-0.709265 0.9028306,-1.250693 1.58774,-1.624287 0.684904,-0.373577 1.449672,-0.56037 2.294305,-0.560379 1.304838,9e-6 2.374159,0.423677 3.207967,1.271005 0.833791,0.847343 1.250691,1.918017 1.2507,3.212027 -9e-6,1.304846 -0.42097,2.386349 -1.262883,3.244512 -0.841929,0.858165 -1.901775,1.287247 -3.179541,1.287248 -0.79049,-1e-6 -1.544429,-0.178672 -2.261819,-0.536015 C 9.7971915,31.657038 9.2517024,31.133206 8.878118,30.442883 8.5045312,29.752563 8.3177385,28.911996 8.3177391,27.921177 z m 2.3389729,0.121822 c -3e-6,0.855461 0.203033,1.510589 0.609108,1.965387 0.406067,0.454802 0.906888,0.682202 1.502465,0.6822 0.595566,2e-6 1.095034,-0.227398 1.498404,-0.6822 0.403358,-0.454798 0.60504,-1.11534 0.605047,-1.98163 -7e-6,-0.844624 -0.201689,-1.494338 -0.605047,-1.949144 -0.40337,-0.454794 -0.902838,-0.682193 -1.498404,-0.6822 -0.595577,7e-6 -1.096398,0.227406 -1.502465,0.6822 -0.406075,0.454806 -0.609111,1.109934 -0.609108,1.965387 z m -0.6903218,-5.839311 0,-1.957265 1.9572658,0 0,1.957265 z m 3.4922168,0 0,-1.957265 1.965387,0 0,1.957265 z"
     style="font-size:16.63269615px;fill:#4d0074"
     id="path3764" /><path
     d="m 21.198333,32.35548 -2.282123,0 0,-8.624962 2.119694,0 0,1.226336 c 0.362754,-0.579321 0.688964,-0.961028 0.978633,-1.145122 0.28966,-0.184077 0.618577,-0.27612 0.986754,-0.276129 0.519766,9e-6 1.020587,0.143488 1.502465,0.430436 l -0.706565,1.989751 c -0.38442,-0.24905 -0.741763,-0.373579 -1.072029,-0.373585 -0.319448,6e-6 -0.590162,0.08799 -0.812143,0.263946 -0.22199,0.175971 -0.396601,0.49406 -0.523833,0.954269 -0.127239,0.460219 -0.190857,1.423962 -0.190853,2.89123 z"
     style="font-size:16.63269615px;fill:#4d0074"
     id="path3766" /><path
     d="m 25.478328,20.449458 2.403945,0 0,6.448419 c -4e-6,1.023305 0.02977,1.686555 0.08934,1.989751 0.102867,0.487289 0.347864,0.878471 0.734989,1.173547 0.387117,0.295081 0.916363,0.44262 1.587741,0.442618 0.682193,2e-6 1.19655,-0.139416 1.543072,-0.418254 0.346507,-0.278833 0.554957,-0.621286 0.62535,-1.027361 0.07038,-0.406068 0.105571,-1.080146 0.105579,-2.022237 l 0,-6.586483 2.403944,0 0,6.253504 c -1e-5,1.429377 -0.06498,2.439141 -0.194914,3.029295 -0.129953,0.59016 -0.369535,1.088274 -0.718747,1.494344 -0.349231,0.406072 -0.816213,0.729576 -1.400947,0.970511 -0.584751,0.240936 -1.348165,0.361404 -2.290244,0.361404 -1.137006,0 -1.999231,-0.131297 -2.586677,-0.393889 C 27.193302,31.902034 26.729027,31.560934 26.387929,31.141326 26.046827,30.72172 25.822134,30.28181 25.71385,29.821593 25.556834,29.139396 25.478327,28.132339 25.478328,26.80042 z"
     style="font-size:16.63269615px;fill:#4d0074"
     id="path3768" /></g></svg>