<svg width="22" height="23" viewBox="0 0 22 23" xmlns="http://www.w3.org/2000/svg"><title>B0B65077-5ED6-4E56-AA0E-1C7CDF3552D2</title><g fill="none" fill-rule="evenodd"><path fill="#4c4c4c" opacity=".1" d="M-13-14.455h50v50h-50z"/><path d="M11 .545c-6.065 0-11 4.935-11 11 0 6.066 4.935 11 11 11s11-4.934 11-11c0-6.065-4.935-11-11-11zm.887 20.183v-2.973h-1.774v2.973a9.24 9.24 0 0 1-8.295-8.296H4.79v-1.774H1.818a9.24 9.24 0 0 1 8.295-8.295v2.973h1.774V2.363a9.24 9.24 0 0 1 8.295 8.295H17.21v1.774h2.972a9.24 9.24 0 0 1-8.295 8.296z" fill="#a6a6a6" fill-rule="nonzero"/></g></svg>
