<?xml version="1.0" encoding="UTF-8" standalone="no"?>
<!-- Generator: Adobe Illustrator 15.0.0, SVG Export Plug-In . SVG Version: 6.00 Build 0)  -->

<svg
   xmlns:dc="http://purl.org/dc/elements/1.1/"
   xmlns:cc="http://creativecommons.org/ns#"
   xmlns:rdf="http://www.w3.org/1999/02/22-rdf-syntax-ns#"
   xmlns:svg="http://www.w3.org/2000/svg"
   xmlns="http://www.w3.org/2000/svg"
   xmlns:sodipodi="http://sodipodi.sourceforge.net/DTD/sodipodi-0.dtd"
   xmlns:inkscape="http://www.inkscape.org/namespaces/inkscape"
   version="1.1"
   x="0px"
   y="0px"
   width="40px"
   height="40px"
   viewBox="0 0 40 40"
   enable-background="new 0 0 40 40"
   xml:space="preserve"
   id="svg2"
   inkscape:version="0.48.3.1 r9886"
   sodipodi:docname="otterzentrum.svg"
   inkscape:export-filename="R:\Themen\Icons\Icons_MRH\Grundkonzept\Icons_MRH_neues_Konzept\neues_konzept_draussenimgruenen\otterzentrum.png"
   inkscape:export-xdpi="90"
   inkscape:export-ydpi="90"><metadata
   id="metadata28"><rdf:RDF><cc:Work
       rdf:about=""><dc:format>image/svg+xml</dc:format><dc:type
         rdf:resource="http://purl.org/dc/dcmitype/StillImage" /><dc:title></dc:title></cc:Work></rdf:RDF></metadata><defs
   id="defs26" /><sodipodi:namedview
   pagecolor="#ffffff"
   bordercolor="#666666"
   borderopacity="1"
   objecttolerance="10"
   gridtolerance="10"
   guidetolerance="10"
   inkscape:pageopacity="0"
   inkscape:pageshadow="2"
   inkscape:window-width="1192"
   inkscape:window-height="920"
   id="namedview24"
   showgrid="false"
   inkscape:zoom="13.099153"
   inkscape:cx="13.868531"
   inkscape:cy="24.77855"
   inkscape:window-x="0"
   inkscape:window-y="0"
   inkscape:window-maximized="0"
   inkscape:current-layer="layer4" />
<g
   id="Ebene_1">
	<g
   id="XMLID_1_">
		<g
   id="g6">
			<path
   d="M 20,1 C 30.49,1 39,9.51 39,20 39,30.49 30.49,39 20,39 9.51,39 1,30.49 1,20 1,9.51 9.51,1 20,1 z"
   id="path8"
   inkscape:connector-curvature="0"
   style="fill:#c3f2bb" />
		</g>
		<g
   id="g10">
			<path
   stroke-miterlimit="10"
   d="M 39,20 C 39,30.49 30.49,39 20,39 9.51,39 1,30.49 1,20 1,9.51 9.51,1 20,1 30.49,1 39,9.51 39,20 z"
   id="path12"
   inkscape:connector-curvature="0"
   style="fill:none;stroke:#0e5b1b;stroke-width:2;stroke-miterlimit:10" />
		</g>
	</g>
	<g
   id="Ebene_6">
		<path
   d="m 37.721,20.469 c -0.677,9.741 -8.056,17.549 -17.618,17.549 -9.562,0 -18.148,-8.548 -18.148,-17.543 0,-3.246 0.479,-3.972 0.479,-3.972 0,0 1.667,0.296 1.878,-0.727 0.95,-4.581 7.997,-15.503 21.62,-11.005 0.588,0.194 1.285,-1.281 1.285,-1.281 0,0 1.988,0.919 3.033,1.673 0.372,0.269 8.234,4.322 7.471,15.306 z"
   id="path15"
   inkscape:connector-curvature="0"
   style="fill:#4d7a44" />
	</g>
	<g
   id="Ebene_2">
		<path
   d="m 36.823,13.553 c 0,0 1.671,3.403 1.307,7.235 C 36.902,33.703 26.203,38.201 20.766,38.153 5.31,38.019 2.435,24.181 2.435,24.181 c 0,-0.886 3.266,-2.364 7.903,-2.812 4.645,-0.448 7.399,1.898 9.888,0.279 0.438,-0.285 3.713,-4.138 5.81,-5.419 2.88,-1.759 7.271,-2.676 10.787,-2.676 z"
   id="path18"
   inkscape:connector-curvature="0"
   style="fill:#16631f" />
	</g>
</g>
<g
   id="Ebene_5">
</g>
<g
   id="Ebene_3"
   display="none">
	<circle
   display="inline"
   fill="#FFD64D"
   stroke="#F9B02A"
   stroke-width="2"
   stroke-miterlimit="10"
   cx="20"
   cy="20"
   r="19"
   id="circle22" />
</g>
<g
   inkscape:groupmode="layer"
   id="layer1"
   inkscape:label="Ebene"
   style="display:none"><g
     transform="translate(-0.00421973,0.13876333)"
     id="Ebene_4"><path
       style="fill:#ffffff;fill-opacity:1"
       inkscape:connector-curvature="0"
       d="m 18.508229,26.60543 c 0.05144,-0.259798 0.148814,-4.317869 0.148814,-4.317869 -5.793641,-0.935833 -6.049931,-0.935833 -7.178897,-1.612799 -1.201535,-0.7198 -1.6240935,-2.479725 -0.466651,-4.213577 1.180407,-1.768306 3.209605,-5.040463 5.496013,-5.826376 2.723663,-0.936764 5.562153,-1.7738924 8.051572,-1.8204513 2.771431,-0.052146 5.705455,2.9779043 4.983431,5.3579933 -1.231849,4.05714 -8.524653,7.646828 -8.524653,7.646828 0,0 -0.610872,0.832473 0.158919,2.236688 0.76979,1.404215 2.514221,2.288834 2.514221,2.288834 0,0 1.664512,0.01676 5.234211,-0.988911 3.694629,-1.040125 4.721629,-1.299923 6.260292,-3.06916 1.453233,-1.669601 1.693908,-3.485397 1.693908,-3.485397 0,0 0.180965,1.406078 0.102883,2.652925 -0.05236,0.832472 -0.09737,1.288749 -0.308651,1.71709 -0.359175,0.72725 -0.409698,0.676035 -1.282372,1.35207 -0.383977,0.297045 -0.774384,1.040125 -3.340966,2.132396 -2.843082,1.209599 -5.707293,1.881909 -8.4677,2.497417 -2.565664,0.571743 -3.33821,0.254212 -5.95256,0.572674 -2.565663,0.311945 -4.819001,-0.05308 -5.896525,1.404216 -1.077523,1.457292 1.744431,5.202487 1.744431,5.202487 0,0 -0.901151,-0.027 -4.46442,-3.017014 -1.4881399,-1.248709 -2.6171053,-3.328959 -2.6171053,-3.328959 0,0 1.0270003,-1.873529 2.8228728,-2.601709 1.8390475,-0.745873 1.8987565,-0.676035 3.4383385,-0.883688 1.475279,-0.199272 5.850594,0.104292 5.850594,0.104292 z"
       id="path21"
       inkscape:export-filename="R:\Themen\Icons\Icons_MRH\Grundkonzept\Icons_MRH_neues_Konzept\neues_konzept_draussenimgruenen\wald_regionalpark.png"
       inkscape:export-xdpi="90"
       inkscape:export-ydpi="90" /></g><g
     inkscape:groupmode="layer"
     id="layer2"
     inkscape:label="2"
     style="display:none" /><g
     inkscape:groupmode="layer"
     id="layer3"
     inkscape:label="3"
     style="display:none" /></g><g
   inkscape:groupmode="layer"
   id="layer4"
   inkscape:label="otter"
   style="display:inline"><path
     style="fill:#fdffff;fill-opacity:1;stroke:none"
     d="m 10.484229,14.159633 c 0,0 -2.0230313,-0.877919 -2.0230313,-1.946691 0,-1.068771 0.8779194,-2.4810759 2.0230313,-2.9391205 1.145112,-0.458045 3.206314,0.076341 3.893381,0.6870679 0.687067,0.6107256 0.992431,2.7482686 1.374135,3.2063136 0.381704,0.458045 1.526816,0.648897 3.206314,0.95426 1.679498,0.305364 3.053633,0.496215 3.969722,1.717668 0.91609,1.221453 1.564987,1.679498 1.83218,4.809472 0.05844,0.684577 -0.458045,1.564986 0,2.404735 0.458045,0.839749 2.748269,2.481077 3.893381,3.168144 1.145113,0.687067 2.366566,3.817041 2.366566,4.275086 0,0.458045 0.534385,1.603157 -0.07634,1.832179 -0.610727,0.229023 -2.595587,-0.152681 -3.435336,-0.610726 -0.839749,-0.458045 -1.374135,-1.450476 -2.061203,-2.74827 -0.687067,-1.297794 -1.412305,-3.053633 -1.564987,-3.358996 -0.152681,-0.305363 -0.11451,-1.603157 -1.0306,-1.374134 -0.91609,0.229022 -1.984861,0.07634 -2.442906,-0.07634 -0.458045,-0.152682 -1.030601,0.343534 -1.030601,0.343534 0,0 -1.038394,0.420724 -1.448558,0.392883 -1.056468,-0.07171 -1.965213,-0.644662 -1.965213,-0.644662 0,0 -0.374362,0.652007 -0.832407,0.652007 -0.458045,0 -0.655737,-0.227692 -0.753864,-0.417677 -0.07645,-0.148013 -0.04913,-0.148428 -0.22168,0.02412 -0.267195,0.267189 -0.521755,0.329479 -0.514226,0.130607 0.02071,-0.547031 -0.06025,-0.36423 -0.338505,-0.207623 -0.412457,0.232134 -1.252186,0.437908 -1.947882,-0.736649 -0.549635,-0.92796 0.0725,-1.383396 0.804291,-1.10423 0.797458,0.30422 1.128497,0.157148 1.728054,0.04088 0.556746,-0.107962 1.024052,-0.152682 1.024052,-0.687067 0,-0.534386 -0.152682,-0.458045 -0.458045,-0.458045 -0.305363,0 -0.687067,-10e-7 -1.297794,-0.992432 -0.610726,-0.99243 -0.381704,-1.603156 -0.534385,-2.137542 -0.152682,-0.534385 -0.687068,-1.526816 -0.687068,-0.839749 0,0.687068 -0.07634,2.366566 -0.07634,2.900951 0,0.534386 -0.458045,0.725238 -0.91609,0.190852 -0.458044,-0.534386 -0.687067,-1.183282 -0.687067,-1.94669 0,-0.763409 0.07634,-1.297794 0.305364,-1.679498 0.229022,-0.381704 0.267193,-1.068772 0.458045,-1.412305 0.185372,-0.33367 -0.534386,-1.412306 -0.534388,-1.412313 z"
     id="path3039"
     inkscape:connector-curvature="0"
     sodipodi:nodetypes="csssssssssssssssscscssssssssssssssssssc"
     inkscape:export-filename="R:\Themen\Icons\Icons_MRH\Grundkonzept\Icons_MRH_neues_Konzept\neues_konzept_draussenimgruenen\otterzentrum.png"
     inkscape:export-xdpi="90"
     inkscape:export-ydpi="90" /></g></svg>