<?xml version="1.0" encoding="UTF-8" standalone="no"?>
<!-- Generator: Adobe Illustrator 15.0.0, SVG Export Plug-In . SVG Version: 6.00 Build 0)  -->

<svg
   xmlns:dc="http://purl.org/dc/elements/1.1/"
   xmlns:cc="http://creativecommons.org/ns#"
   xmlns:rdf="http://www.w3.org/1999/02/22-rdf-syntax-ns#"
   xmlns:svg="http://www.w3.org/2000/svg"
   xmlns="http://www.w3.org/2000/svg"
   xmlns:sodipodi="http://sodipodi.sourceforge.net/DTD/sodipodi-0.dtd"
   xmlns:inkscape="http://www.inkscape.org/namespaces/inkscape"
   version="1.1"
   x="0px"
   y="0px"
   width="43"
   height="40"
   viewBox="0 0 43 40"
   enable-background="new 0 0 40 40"
   xml:space="preserve"
   id="svg2"
   inkscape:version="0.91 r13725"
   sodipodi:docname="geplant_perspektive_wohnen_portal.svg"
   inkscape:export-filename="G:\AG_GDI-HH\Icons\fluechtlinge\geplant_perspektive_wohnen_portal.png"
   inkscape:export-xdpi="90"
   inkscape:export-ydpi="90"><metadata
     id="metadata24"><rdf:RDF><cc:Work
         rdf:about=""><dc:format>image/svg+xml</dc:format><dc:type
           rdf:resource="http://purl.org/dc/dcmitype/StillImage" /><dc:title></dc:title></cc:Work></rdf:RDF></metadata><defs
     id="defs22" /><sodipodi:namedview
     pagecolor="#ffffff"
     bordercolor="#666666"
     borderopacity="1"
     objecttolerance="10"
     gridtolerance="10"
     guidetolerance="10"
     inkscape:pageopacity="0"
     inkscape:pageshadow="2"
     inkscape:window-width="1800"
     inkscape:window-height="1002"
     id="namedview20"
     showgrid="false"
     inkscape:zoom="17.797186"
     inkscape:cx="28.257266"
     inkscape:cy="13.669694"
     inkscape:window-x="1935"
     inkscape:window-y="32"
     inkscape:window-maximized="0"
     inkscape:current-layer="svg2" /><g
     id="Ebene_7"
     style="fill:#f8d6f6;fill-opacity:1"
     transform="matrix(1.074786,0,0,0.9946966,-0.06622253,0.05049437)"><path
       stroke-miterlimit="10"
       d="m 1.6628681,38.959596 c 0,0 17.5321319,-37.293596 17.7861319,-37.543596 0.335,-0.32 0.79,-0.218 1.006,-0.009 0.166,0.16 17.961189,37.610351 17.961189,37.610351 z"
       id="path5"
       style="clip-rule:evenodd;fill:#e9c6fd;fill-opacity:1;fill-rule:evenodd;stroke:#9a07ed;stroke-width:2;stroke-miterlimit:10;stroke-opacity:1"
       inkscape:connector-curvature="0"
       sodipodi:nodetypes="ccccc" /></g><g
     id="Ebene_9"
     transform="matrix(0.97609593,-0.21734014,0.12721857,0.57135111,0.88706219,6.9240138)"><polygon
       points="20,2.369 3.958,18.583 5.486,20 21.575,3.933 "
       id="polygon8"
       style="clip-rule:evenodd;fill:#e0adfc;fill-opacity:1;fill-rule:evenodd"
       transform="matrix(0.9449333,-0.32726299,0.32726299,0.9449333,0.02073498,7.2661976)" /></g><g
     id="Ebene_8"
     transform="matrix(1.0538768,0,0,1,0.21389397,0)"
     style="fill:#e0adfc;fill-opacity:1"><path
       d="M 36.724395,37.95 3.2693434,37.893811 c 5.2450617,-10.9291 0.9568979,-4.984842 13.4613906,-8.017303 0.318,-0.098 7.648709,-4.728658 12.957631,-2.139169 3.116609,1.414865 4.230247,3.729872 7.03603,10.212661 z"
       id="path11"
       style="clip-rule:evenodd;fill:#e0adfc;fill-opacity:1;fill-rule:evenodd"
       inkscape:connector-curvature="0"
       sodipodi:nodetypes="ccccc" /></g><g
     inkscape:groupmode="layer"
     id="layer1"
     inkscape:label="Ebene" /><g
     transform="matrix(0.76944314,0,0,1.096956,1.1017203,1.723336)"
     style="font-style:normal;font-weight:bold;font-size:6.07757235px;line-height:125%;font-family:Sans;-inkscape-font-specification:'Sans Bold';letter-spacing:0px;word-spacing:0px;fill:#5d048e;fill-opacity:1;stroke:none;stroke-width:1px;stroke-linecap:butt;stroke-linejoin:miter;stroke-opacity:1"
     id="text4142"><path
       d="m 12.294534,22.741292 1.829998,0 0,4.908847 q 0,1.168478 0.06801,1.514694 0.117466,0.556419 0.556418,0.896452 0.445135,0.333851 1.211756,0.333851 0.778986,0 1.174661,-0.315304 0.395675,-0.321486 0.476047,-0.785168 0.08037,-0.463682 0.08037,-1.539424 l 0,-5.013948 1.829998,0 0,4.760469 q 0,1.63216 -0.148378,2.306045 -0.148379,0.673884 -0.550236,1.137566 -0.395676,0.463682 -1.063378,0.741891 -0.667702,0.272027 -1.743444,0.272027 -1.29831,0 -1.972194,-0.296756 -0.667702,-0.302939 -1.057195,-0.778986 -0.389493,-0.482229 -0.513142,-1.007736 -0.17929,-0.778985 -0.17929,-2.299862 l 0,-4.834658 z"
       style="font-style:normal;font-variant:normal;font-weight:bold;font-stretch:normal;font-size:12.66160965px;font-family:Arial;-inkscape-font-specification:'Arial Bold';fill:#5d048e;fill-opacity:1;stroke:none;stroke-opacity:1"
       id="path4147"
       inkscape:connector-curvature="0" /><path
       d="m 21.45689,31.804729 0,-9.063437 2.936653,0 q 1.669255,0 2.176214,0.136013 0.778986,0.204021 1.304492,0.89027 0.525506,0.680067 0.525506,1.761991 0,0.834628 -0.302939,1.403411 -0.302939,0.568784 -0.772803,0.896452 -0.463682,0.321486 -0.945911,0.426588 -0.655338,0.129831 -1.898005,0.129831 l -1.193209,0 0,3.418881 -1.829998,0 z m 1.829998,-7.530195 0,2.571889 1.001553,0 q 1.081925,0 1.446688,-0.142195 0.364763,-0.142196 0.568783,-0.445135 0.210203,-0.302939 0.210203,-0.704797 0,-0.494594 -0.290574,-0.81608 -0.290574,-0.321486 -0.735709,-0.401858 -0.327668,-0.06182 -1.316857,-0.06182 l -0.884087,0 z"
       style="font-style:normal;font-variant:normal;font-weight:bold;font-stretch:normal;font-size:12.66160965px;font-family:Arial;-inkscape-font-specification:'Arial Bold';fill:#5d048e;fill-opacity:1;stroke:none;stroke-opacity:1"
       id="path4149"
       inkscape:connector-curvature="0" /><path
       d="m 31.200395,31.804729 -2.163849,-9.063437 1.873275,0 1.366316,6.225704 1.656891,-6.225704 2.176214,0 1.588884,6.330805 1.391046,-6.330805 1.842363,0 -2.200944,9.063437 -1.941282,0 -1.805269,-6.775939 -1.799086,6.775939 -1.984559,0 z"
       style="font-style:normal;font-variant:normal;font-weight:bold;font-stretch:normal;font-size:12.66160965px;font-family:Arial;-inkscape-font-specification:'Arial Bold';fill:#5d048e;fill-opacity:1;stroke:none;stroke-opacity:1"
       id="path4151"
       inkscape:connector-curvature="0" /></g></svg>