<?xml version="1.0" encoding="UTF-8" standalone="no"?>
<!-- Generator: Adobe Illustrator 15.0.0, SVG Export Plug-In . SVG Version: 6.00 Build 0)  -->

<svg
   xmlns:dc="http://purl.org/dc/elements/1.1/"
   xmlns:cc="http://creativecommons.org/ns#"
   xmlns:rdf="http://www.w3.org/1999/02/22-rdf-syntax-ns#"
   xmlns:svg="http://www.w3.org/2000/svg"
   xmlns="http://www.w3.org/2000/svg"
   xmlns:sodipodi="http://sodipodi.sourceforge.net/DTD/sodipodi-0.dtd"
   xmlns:inkscape="http://www.inkscape.org/namespaces/inkscape"
   version="1.1"
   x="0px"
   y="0px"
   width="40px"
   height="40px"
   viewBox="0 0 40 40"
   enable-background="new 0 0 40 40"
   xml:space="preserve"
   id="svg2"
   inkscape:version="0.48.3.1 r9886"
   sodipodi:docname="veranstaltung.svg"
   inkscape:export-filename="M:\Themen\Icons\Icons_MRH\Grundkonzept\Icons_MRH_neues_Konzept\neues_konzept_sport_natur\veranstaltung_rot.png"
   inkscape:export-xdpi="90"
   inkscape:export-ydpi="90"><metadata
   id="metadata29"><rdf:RDF><cc:Work
       rdf:about=""><dc:format>image/svg+xml</dc:format><dc:type
         rdf:resource="http://purl.org/dc/dcmitype/StillImage" /><dc:title></dc:title></cc:Work></rdf:RDF></metadata><defs
   id="defs27" /><sodipodi:namedview
   pagecolor="#ffffff"
   bordercolor="#666666"
   borderopacity="1"
   objecttolerance="10"
   gridtolerance="10"
   guidetolerance="10"
   inkscape:pageopacity="0"
   inkscape:pageshadow="2"
   inkscape:window-width="1205"
   inkscape:window-height="931"
   id="namedview25"
   showgrid="false"
   inkscape:zoom="18.8"
   inkscape:cx="9.8138298"
   inkscape:cy="20"
   inkscape:window-x="1300"
   inkscape:window-y="7"
   inkscape:window-maximized="0"
   inkscape:current-layer="g10" />
<g
   id="Ebene_1">
	<g
   id="XMLID_1_">
		<g
   id="g6">
			<path
   fill="#F2F9D7"
   d="M20,1c10.49,0,19,8.51,19,19s-8.51,19-19,19S1,30.49,1,20S9.51,1,20,1z"
   id="path8"
   style="fill:#fae0e0;fill-opacity:1;stroke:#000000;stroke-opacity:1" />
		</g>
		<g
   id="g10">
			<path
   fill="none"
   stroke="#4D6523"
   stroke-width="2"
   stroke-miterlimit="10"
   d="M39,20c0,10.49-8.51,19-19,19S1,30.49,1,20     S9.51,1,20,1S39,9.51,39,20z"
   id="path12"
   style="stroke:#950808;stroke-opacity:1" />
		</g>
	</g>
	<g
   id="Ebene_6">
		<path
   fill="#85A044"
   d="M37.721,20.469c-0.677,9.741-8.056,17.549-17.618,17.549S1.955,29.47,1.955,20.475    c0-3.246,0.479-3.972,0.479-3.972s1.667,0.296,1.878-0.727c0.95-4.581,7.997-15.503,21.62-11.005    c0.588,0.194,1.285-1.281,1.285-1.281s1.988,0.919,3.033,1.673C30.622,5.432,38.484,9.485,37.721,20.469z"
   id="path15"
   style="fill:#ff5c5c;fill-opacity:1" />
	</g>
	<g
   id="Ebene_2">
		<path
   fill="#6E8630"
   d="M36.823,13.553c0,0,1.671,3.403,1.307,7.235c-1.228,12.915-11.927,17.413-17.364,17.365    C5.31,38.019,2.435,24.181,2.435,24.181c0-0.886,3.266-2.364,7.903-2.812c4.645-0.448,7.399,1.898,9.888,0.279    c0.438-0.285,3.713-4.138,5.81-5.419C28.916,14.47,33.307,13.553,36.823,13.553z"
   id="path18"
   style="fill:#cd0004;fill-opacity:0.94980693" />
	</g>
</g>

<rect
   style="opacity:0.98999999;fill:#ffffff;fill-opacity:1;stroke:none"
   id="rect2991"
   width="1.6489362"
   height="26.75532"
   x="19.716787"
   y="3.2254753"
   transform="matrix(0.97404903,0.2263371,-0.2263371,0.97404903,0,0)" /><path
   style="fill:#ffffff;fill-opacity:1;stroke:none"
   d="m 21.328118,8.2442358 c 0,0 3.271497,-1.0710658 5.029766,2.1540762 1.75827,3.225143 2.328929,6.662803 4.88345,6.120522 1.999504,-0.424461 3.96351,0.304572 3.96351,0.304572 0.04348,0.376542 -2.058187,6.04266 -5.47429,6.825673 -3.522102,0.80731 -3.978167,-3.662288 -6.766764,-4.720718 -2.788598,-1.058428 -4.573914,2.335065 -4.573914,2.335065 z"
   id="path3761"
   inkscape:connector-curvature="0"
   sodipodi:nodetypes="cssssscc" /></svg>