<?xml version="1.0" encoding="utf-8"?>
<!-- Generator: Adobe Illustrator 15.0.0, SVG Export Plug-In . SVG Version: 6.00 Build 0)  -->
<!DOCTYPE svg PUBLIC "-//W3C//DTD SVG 1.1//EN" "http://www.w3.org/Graphics/SVG/1.1/DTD/svg11.dtd">
<svg version="1.1" id="Ebene_2" xmlns="http://www.w3.org/2000/svg" xmlns:xlink="http://www.w3.org/1999/xlink" x="0px" y="0px"
	 width="50px" height="50px" viewBox="0 0 50 50" enable-background="new 0 0 50 50" xml:space="preserve">
<path fill="#B76649" stroke="#993300" stroke-width="2" stroke-miterlimit="10" d="M23.471,48.235L1.705,26.492
	c0,0-0.924-0.929-0.086-1.813c1.063-1.122,15.926-16.895,21.91-22.973c1.478-1.501,2.588-0.154,2.588-0.154S42.624,18.751,47.845,24
	C49.37,25.534,48,26.706,48,26.706S31.235,43,26,48.235C24.81,49.426,23.471,48.235,23.471,48.235z"/>
<polygon fill="#F4BBA2" points="6.923,24.561 2.339,25.505 24.981,1.912 26.866,3.876 "/>
<path fill="#AA5733" d="M47.647,25.471c-0.776,1.284-16.722,16.043-21.177,20.883c-1.062,1.153-1.554,1.882-2.706,0.704
	c-3.76-3.845-21.349-21.41-21.349-21.41c-0.462-0.494,1.613-1.904,3.563-0.892l3.481,1.342c2.004,1.162,7.821,1.741,16.372-3.215
	c9.53-6,15.992-3.588,15.992-3.588L47.647,25.471z"/>
</svg>
