<?xml version="1.0" encoding="UTF-8" standalone="no"?>
<!-- Generator: Adobe Illustrator 15.0.0, SVG Export Plug-In . SVG Version: 6.00 Build 0)  -->

<svg
   xmlns:dc="http://purl.org/dc/elements/1.1/"
   xmlns:cc="http://creativecommons.org/ns#"
   xmlns:rdf="http://www.w3.org/1999/02/22-rdf-syntax-ns#"
   xmlns:svg="http://www.w3.org/2000/svg"
   xmlns="http://www.w3.org/2000/svg"
   xmlns:sodipodi="http://sodipodi.sourceforge.net/DTD/sodipodi-0.dtd"
   xmlns:inkscape="http://www.inkscape.org/namespaces/inkscape"
   version="1.1"
   x="0px"
   y="0px"
   width="40px"
   height="40px"
   viewBox="0 0 40 40"
   enable-background="new 0 0 40 40"
   xml:space="preserve"
   id="svg2"
   inkscape:version="0.48.3.1 r9886"
   sodipodi:docname="wassermuehle.svg"
   inkscape:export-filename="G:\AG_GDI-HH\Icons\MRH_Tage_Industriekultur\schoepfwerk.png"
   inkscape:export-xdpi="90"
   inkscape:export-ydpi="90"><metadata
   id="metadata26"><rdf:RDF><cc:Work
       rdf:about=""><dc:format>image/svg+xml</dc:format><dc:type
         rdf:resource="http://purl.org/dc/dcmitype/StillImage" /><dc:title></dc:title></cc:Work></rdf:RDF></metadata><defs
   id="defs24" /><sodipodi:namedview
   pagecolor="#ffffff"
   bordercolor="#666666"
   borderopacity="1"
   objecttolerance="10"
   gridtolerance="10"
   guidetolerance="10"
   inkscape:pageopacity="0"
   inkscape:pageshadow="2"
   inkscape:window-width="1643"
   inkscape:window-height="1012"
   id="namedview22"
   showgrid="false"
   inkscape:zoom="20.825"
   inkscape:cx="23.120787"
   inkscape:cy="20"
   inkscape:window-x="2060"
   inkscape:window-y="34"
   inkscape:window-maximized="0"
   inkscape:current-layer="svg2" />
<g
   id="Ebene_4">
	<path
   fill-rule="evenodd"
   clip-rule="evenodd"
   fill="#4389C8"
   stroke="#106FB7"
   stroke-width="2"
   stroke-miterlimit="10"
   d="   M39,33.813C39,40.098,40.098,39,33.813,39H6.5C0.214,39,1,40.035,1,33.75V6.375C1,0.089,0.089,1,6.375,1h27.438   C40.098,1,39,0.089,39,6.375V33.813z"
   id="path5"
   style="fill:#ffffff;fill-opacity:1" />
</g>
<g
   id="Ebene_8"
   transform="matrix(1,0,0,0.67798989,-0.19207683,12.698544)">
	<path
   clip-rule="evenodd"
   d="m 38.218096,37.400888 c -0.899,0.0091 -1.387,0.04733 -1.819,0.04733 l -33.572,0 c -0.703,0.107118 -0.629,-0.392766 -0.629,-0.544723 l 0.042,-16.790704 36.001,0.04793 z"
   id="path8"
   style="fill:#5cc5ed;fill-opacity:1;fill-rule:evenodd"
   inkscape:connector-curvature="0"
   sodipodi:nodetypes="csccccc" />
<path
   clip-rule="evenodd"
   d="m 38.184998,20.193406 c -0.222333,0.0097 -0.343021,0.05062 -0.449859,0.05062 l -8.302727,0 c -0.173859,0.114565 -0.155558,-0.420046 -0.155558,-0.582556 l 0.01039,-17.9569114 8.903445,0.051259 z"
   id="path8-8"
   style="fill:#5cc5ed;fill-opacity:1;fill-rule:evenodd"
   inkscape:connector-curvature="0"
   sodipodi:nodetypes="csccccc" /></g>


<path
   sodipodi:type="arc"
   style="opacity:0.98999999;fill:none;stroke:#008ac3;stroke-width:3.14344788;stroke-miterlimit:4;stroke-opacity:1;stroke-dasharray:none"
   id="path3771-1"
   sodipodi:cx="11.716686"
   sodipodi:cy="12.14886"
   sodipodi:rx="12.388955"
   sodipodi:ry="12.100841"
   d="m 24.105641,12.14886 a 12.388955,12.100841 0 1 1 -24.77790987,0 12.388955,12.100841 0 1 1 24.77790987,0 z"
   transform="matrix(0.81248368,0,0,0.81248366,10.603353,9.8171249)" /><rect
   style="opacity:0.98999999;fill:none;stroke:#008ac3;stroke-width:1.65400004;stroke-linecap:square;stroke-linejoin:miter;stroke-miterlimit:4;stroke-opacity:1;stroke-dasharray:none"
   id="rect3791"
   width="4.6578631"
   height="1.0084034"
   x="3.4093637"
   y="18.919569" /><rect
   style="opacity:0.98999999;fill:none;stroke:#008ac3;stroke-width:1.65400004;stroke-linecap:square;stroke-linejoin:miter;stroke-miterlimit:4;stroke-opacity:1;stroke-dasharray:none"
   id="rect3791-7"
   width="4.6578631"
   height="1.0084034"
   x="3.1932776"
   y="-20.672268"
   transform="matrix(0,1,-1,0,0,0)" /><rect
   style="opacity:0.98999999;fill:none;stroke:#008ac3;stroke-width:1.65400004;stroke-linecap:square;stroke-linejoin:miter;stroke-miterlimit:4;stroke-opacity:1;stroke-dasharray:none"
   id="rect3791-4"
   width="4.6578631"
   height="1.0084034"
   x="32.052822"
   y="18.751499" /><rect
   style="opacity:0.98999999;fill:none;stroke:#008ac3;stroke-width:1.65400004;stroke-linecap:square;stroke-linejoin:miter;stroke-miterlimit:4;stroke-opacity:1;stroke-dasharray:none"
   id="rect3791-0"
   width="4.6578631"
   height="1.0084034"
   x="-36.182472"
   y="19.807924"
   transform="matrix(0,-1,1,0,0,0)" /><rect
   style="opacity:0.98999999;fill:none;stroke:#008ac3;stroke-width:1.65400004;stroke-linecap:square;stroke-linejoin:miter;stroke-miterlimit:4;stroke-opacity:1;stroke-dasharray:none"
   id="rect3791-9"
   width="4.6578631"
   height="1.0084034"
   x="12.237639"
   y="28.187527"
   transform="matrix(0.70710678,-0.70710678,0.70710678,0.70710678,0,0)" /><rect
   style="opacity:0.98999999;fill:none;stroke:#008ac3;stroke-width:1.65400004;stroke-linecap:square;stroke-linejoin:miter;stroke-miterlimit:4;stroke-opacity:1;stroke-dasharray:none"
   id="rect3791-9-4"
   width="4.6578631"
   height="1.0084034"
   x="-16.216408"
   y="27.644249"
   transform="matrix(0.70710678,-0.70710678,0.70710678,0.70710678,0,0)" /><rect
   style="opacity:0.98999999;fill:none;stroke:#008ac3;stroke-width:1.65400004;stroke-linecap:square;stroke-linejoin:miter;stroke-miterlimit:4;stroke-opacity:1;stroke-dasharray:none"
   id="rect3791-0-8"
   width="4.6578631"
   height="1.0084034"
   x="-44.398815"
   y="0.073027134"
   transform="matrix(-0.70710678,-0.70710678,0.70710678,-0.70710678,0,0)" /><rect
   style="opacity:0.98999999;fill:none;stroke:#008ac3;stroke-width:1.65400004;stroke-linecap:square;stroke-linejoin:miter;stroke-miterlimit:4;stroke-opacity:1;stroke-dasharray:none"
   id="rect3791-0-8-2"
   width="4.6578631"
   height="1.0084034"
   x="-16.250362"
   y="-0.30047348"
   transform="matrix(-0.70710678,-0.70710678,0.70710678,-0.70710678,0,0)" /><rect
   style="opacity:0.98999999;fill:none;stroke:#008ac3;stroke-width:1.47930646;stroke-linecap:square;stroke-linejoin:miter;stroke-miterlimit:4;stroke-opacity:1;stroke-dasharray:none"
   id="rect3791-8"
   width="3.7259068"
   height="1.0084034"
   x="16.946362"
   y="3.0972381" /><rect
   style="opacity:0.98999999;fill:none;stroke:#008ac3;stroke-width:1.47930646;stroke-linecap:square;stroke-linejoin:miter;stroke-miterlimit:4;stroke-opacity:1;stroke-dasharray:none"
   id="rect3791-8-0"
   width="3.7259068"
   height="1.0084034"
   x="19.841728"
   y="35.222088" /><rect
   style="opacity:0.98999999;fill:none;stroke:#008ac3;stroke-width:1.47930646;stroke-linecap:square;stroke-linejoin:miter;stroke-miterlimit:4;stroke-opacity:1;stroke-dasharray:none"
   id="rect3791-8-6"
   width="3.7259068"
   height="1.0084034"
   x="25.345985"
   y="-17.04365"
   transform="matrix(0.70613299,0.70807923,-0.70807923,0.70613299,0,0)" /><rect
   style="opacity:0.98999999;fill:none;stroke:#008ac3;stroke-width:1.47930646;stroke-linecap:square;stroke-linejoin:miter;stroke-miterlimit:4;stroke-opacity:1;stroke-dasharray:none"
   id="rect3791-8-8"
   width="3.7259068"
   height="1.0084034"
   x="-3.2143068"
   y="11.488881"
   transform="matrix(0.69134155,-0.72252811,0.72252811,0.69134155,0,0)" /><rect
   style="opacity:0.98999999;fill:none;stroke:#008ac3;stroke-width:1.47930646;stroke-linecap:square;stroke-linejoin:miter;stroke-miterlimit:4;stroke-opacity:1;stroke-dasharray:none"
   id="rect3791-8-8-1"
   width="3.7259068"
   height="1.0084034"
   x="-0.89767182"
   y="43.49913"
   transform="matrix(0.69134155,-0.72252811,0.72252811,0.69134155,0,0)" /><rect
   style="opacity:0.98999999;fill:none;stroke:#008ac3;stroke-width:1.47930646;stroke-linecap:square;stroke-linejoin:miter;stroke-miterlimit:4;stroke-opacity:1;stroke-dasharray:none"
   id="rect3791-8-6-9"
   width="3.7259068"
   height="1.0084034"
   x="27.631388"
   y="15.210207"
   transform="matrix(0.70613299,0.70807923,-0.70807923,0.70613299,0,0)" /><rect
   style="opacity:0.98999999;fill:none;stroke:#008ac3;stroke-width:1.47930646;stroke-linecap:square;stroke-linejoin:miter;stroke-miterlimit:4;stroke-opacity:1;stroke-dasharray:none"
   id="rect3791-8-6-8"
   width="3.7259068"
   height="1.0084034"
   x="16.094404"
   y="-36.735432"
   transform="matrix(-0.0013762,0.99999905,-0.99999905,-0.0013762,0,0)" /><rect
   style="opacity:0.98999999;fill:none;stroke:#008ac3;stroke-width:1.47930646;stroke-linecap:square;stroke-linejoin:miter;stroke-miterlimit:4;stroke-opacity:1;stroke-dasharray:none"
   id="rect3791-8-6-8-9"
   width="3.7259068"
   height="1.0084034"
   x="18.924057"
   y="-4.3743501"
   transform="matrix(-0.0013762,0.99999905,-0.99999905,-0.0013762,0,0)" /></svg>