<?xml version="1.0" encoding="utf-8"?>
<!-- Generator: Adobe Illustrator 15.0.0, SVG Export Plug-In . SVG Version: 6.00 Build 0)  -->
<!DOCTYPE svg PUBLIC "-//W3C//DTD SVG 1.1//EN" "http://www.w3.org/Graphics/SVG/1.1/DTD/svg11.dtd">
<svg version="1.1" xmlns="http://www.w3.org/2000/svg" xmlns:xlink="http://www.w3.org/1999/xlink" x="0px" y="0px" width="40px"
	 height="40px" viewBox="0 0 40 40" enable-background="new 0 0 40 40" xml:space="preserve">
<g id="Ebene_7">
	<path fill-rule="evenodd" clip-rule="evenodd" fill="#F4B06C" stroke="#DE7E0D" stroke-width="2" stroke-miterlimit="10" d="
		M37.162,38.234c0,0.38-0.392,0.703-0.782,0.703H5.313c-0.387,0-1.111-0.607-1.111-0.987L3.938,20C3.938,19.34,2,19.125,2,19.125
		S19.195,1.666,19.449,1.416c0.335-0.32,0.79-0.218,1.006-0.009C20.621,1.567,38.36,18.958,38.36,18.958s-1.296,0.499-1.254,1.117
		L37.162,38.234z"/>
</g>
<g id="Ebene_9">
	<polygon fill-rule="evenodd" clip-rule="evenodd" fill="#F9E7CD" points="20,2.369 3.958,18.583 5.486,20 21.575,3.933 	"/>
</g>
<g id="Ebene_8">
	<path fill-rule="evenodd" clip-rule="evenodd" fill="#EE8F36" d="M36.103,37.915c-0.774,0.007-1.194,0.035-1.566,0.035H5.625
		c-0.605,0.08-0.542-0.294-0.542-0.408l0.042-6.25c0-0.202,1.482-0.821,1.482-0.821s12.561-3.924,12.872-4.022
		c0.318-0.098,0.75-0.065,0.955-0.004c0.205,0.064,14.516,4.568,14.516,4.568s1.114,0.233,1.152,0.425V37.915z"/>
</g>
<g id="Ebene_4">
	<g>
		<path fill="#3B190E" d="M24.44,23.171l-2.105,0.77c-0.283-0.913-0.884-1.369-1.799-1.369c-0.979,0-1.467,0.347-1.467,1.039
			c0,0.276,0.091,0.511,0.274,0.702c0.183,0.191,0.596,0.358,1.24,0.499c1.077,0.237,1.866,0.478,2.366,0.72s0.92,0.632,1.264,1.17
			c0.342,0.538,0.514,1.14,0.514,1.805c0,1.042-0.367,1.944-1.102,2.704c-0.735,0.761-1.824,1.142-3.268,1.142
			c-1.083,0-2.004-0.27-2.765-0.808c-0.76-0.538-1.262-1.337-1.504-2.396l2.292-0.566c0.257,1.076,0.973,1.614,2.147,1.614
			c0.567,0,0.989-0.119,1.267-0.358c0.278-0.24,0.417-0.525,0.417-0.858c0-0.338-0.127-0.601-0.379-0.786s-0.739-0.36-1.461-0.524
			c-1.345-0.305-2.304-0.721-2.875-1.247c-0.572-0.527-0.858-1.298-0.858-2.312c0-1.025,0.342-1.891,1.025-2.595
			c0.683-0.705,1.61-1.057,2.78-1.057C22.515,20.458,23.848,21.362,24.44,23.171z"/>
	</g>
</g>
</svg>
