<?xml version="1.0" encoding="utf-8"?>
<!-- Generator: Adobe Illustrator 15.0.0, SVG Export Plug-In . SVG Version: 6.00 Build 0)  -->
<!DOCTYPE svg PUBLIC "-//W3C//DTD SVG 1.1//EN" "http://www.w3.org/Graphics/SVG/1.1/DTD/svg11.dtd">
<svg version="1.1" xmlns="http://www.w3.org/2000/svg" xmlns:xlink="http://www.w3.org/1999/xlink" x="0px" y="0px" width="40px"
	 height="40px" viewBox="0 0 40 40" enable-background="new 0 0 40 40" xml:space="preserve">
<g id="Ebene_1">
	<g id="XMLID_1_">
		<g>
			<path fill="#C3F2BB" d="M20,1c10.49,0,19,8.51,19,19s-8.51,19-19,19S1,30.49,1,20S9.51,1,20,1z"/>
		</g>
		<g>
			<path fill="none" stroke="#0E5B1B" stroke-width="2" stroke-miterlimit="10" d="M39,20c0,10.49-8.51,19-19,19S1,30.49,1,20
				S9.51,1,20,1S39,9.51,39,20z"/>
		</g>
	</g>
	<g id="Ebene_6">
		<path fill="#4D7A44" d="M37.721,20.469c-0.677,9.741-8.056,17.549-17.618,17.549S1.955,29.47,1.955,20.475
			c0-3.246,0.479-3.972,0.479-3.972s1.667,0.296,1.878-0.727c0.95-4.581,7.997-15.503,21.62-11.005
			c0.588,0.194,1.285-1.281,1.285-1.281s1.988,0.919,3.033,1.673C30.622,5.432,38.484,9.485,37.721,20.469z"/>
	</g>
	<g id="Ebene_2">
		<path fill="#16631F" d="M36.823,13.553c0,0,1.671,3.403,1.307,7.235c-1.228,12.915-11.927,17.413-17.364,17.365
			C5.31,38.019,2.435,24.181,2.435,24.181c0-0.886,3.266-2.364,7.903-2.812c4.645-0.448,7.399,1.898,9.888,0.279
			c0.438-0.285,3.713-4.138,5.81-5.419C28.916,14.47,33.307,13.553,36.823,13.553z"/>
	</g>
</g>
<g id="Ebene_5">
	<circle fill="#FFFFFF" cx="24.313" cy="9.104" r="3.354"/>
	<path fill="#FFFFFF" d="M13.958,29.792c0,0-1.46-2.668-0.958-4.292c0.708-2.292,1.333-2.417,2.792-2.5
		c1.514-0.086,3.577,0.79,4.072-0.75s-0.532-4.506-0.282-6.214s1.084-1.578,1.668-1.953s2.053-1.902,2.208-1.148
		s-0.167,2.606,0.042,3.815S25,18.458,25.25,20c0.25,1.541,0.542,3.625,0.167,5.208s-1.125,2.5-1,3.042s3.084,1.875,3.625,2.083
		s1.483,1.116,0.65,1.199s-3.419,0.739-4.734,0.218c-2.625-1.041-0.942-2.253-1.775-2.295s-0.974,0.587-2.224,0.837
		c-1.908,0.381-1.267-0.116-2.951,0.386c0,0,0.492,0.947,2.284,1.239s3.604,1.416,4.021,1.791s-0.021,0.583-0.729,0.5
		s-1.397,0.208-2.719,0.25c-1.322,0.042-1.822,0.001-3.28-0.541s-0.917-1.292-2.458-1.167s-1.667,0.5-2.958,0.125
		S6.75,30.916,7.25,30.333s2.083-0.584,3.75-0.5S13.958,29.792,13.958,29.792z"/>
</g>
</svg>
