<?xml version="1.0" encoding="UTF-8" standalone="no"?>
<!-- Generator: Adobe Illustrator 15.0.0, SVG Export Plug-In . SVG Version: 6.00 Build 0)  -->

<svg
   xmlns:dc="http://purl.org/dc/elements/1.1/"
   xmlns:cc="http://creativecommons.org/ns#"
   xmlns:rdf="http://www.w3.org/1999/02/22-rdf-syntax-ns#"
   xmlns:svg="http://www.w3.org/2000/svg"
   xmlns="http://www.w3.org/2000/svg"
   xmlns:sodipodi="http://sodipodi.sourceforge.net/DTD/sodipodi-0.dtd"
   xmlns:inkscape="http://www.inkscape.org/namespaces/inkscape"
   version="1.1"
   x="0px"
   y="0px"
   width="40px"
   height="40px"
   viewBox="0 0 40 40"
   enable-background="new 0 0 40 40"
   xml:space="preserve"
   id="svg2"
   inkscape:version="0.48.3.1 r9886"
   sodipodi:docname="seen.svg"
   inkscape:export-filename="R:\Themen\Icons\Icons_MRH\Grundkonzept\Icons_MRH_neues_Konzept\neues_konzept_draussenimgruenen\seen.png"
   inkscape:export-xdpi="90"
   inkscape:export-ydpi="90"><metadata
   id="metadata28"><rdf:RDF><cc:Work
       rdf:about=""><dc:format>image/svg+xml</dc:format><dc:type
         rdf:resource="http://purl.org/dc/dcmitype/StillImage" /><dc:title></dc:title></cc:Work></rdf:RDF></metadata><defs
   id="defs26" /><sodipodi:namedview
   pagecolor="#ffffff"
   bordercolor="#666666"
   borderopacity="1"
   objecttolerance="10"
   gridtolerance="10"
   guidetolerance="10"
   inkscape:pageopacity="0"
   inkscape:pageshadow="2"
   inkscape:window-width="1250"
   inkscape:window-height="938"
   id="namedview24"
   showgrid="false"
   inkscape:zoom="5.9"
   inkscape:cx="-10.084746"
   inkscape:cy="20"
   inkscape:window-x="17"
   inkscape:window-y="37"
   inkscape:window-maximized="0"
   inkscape:current-layer="layer5" />
<g
   id="Ebene_1"
   transform="translate(-0.16949153,0)">
	<g
   id="XMLID_1_"
   style="fill:#729ad8;fill-opacity:1;stroke:#2a2f87;stroke-opacity:1">
		<g
   id="g6"
   style="fill:#729ad8;fill-opacity:1;stroke:#2a2f87;stroke-opacity:1">
			<path
   d="M 20,1 C 30.49,1 39,9.51 39,20 39,30.49 30.49,39 20,39 9.51,39 1,30.49 1,20 1,9.51 9.51,1 20,1 z"
   id="path8"
   style="fill:#729ad8;fill-opacity:1;stroke:#2a2f87;stroke-opacity:1"
   inkscape:connector-curvature="0" />
		</g>
		<g
   id="g10"
   style="fill:#729ad8;fill-opacity:1;stroke:#2a2f87;stroke-opacity:1">
			<path
   stroke-miterlimit="10"
   d="M 39,20 C 39,30.49 30.49,39 20,39 9.51,39 1,30.49 1,20 1,9.51 9.51,1 20,1 30.49,1 39,9.51 39,20 z"
   id="path12"
   style="fill:#729ad8;fill-opacity:1;stroke:#2a2f87;stroke-width:2;stroke-miterlimit:10;stroke-opacity:1"
   inkscape:connector-curvature="0" />
		</g>
	</g>
	<g
   id="Ebene_6"
   style="fill:#2743d8;fill-opacity:1">
		<path
   d="m 37.721,20.469 c -0.677,9.741 -8.056,17.549 -17.618,17.549 -9.562,0 -18.148,-8.548 -18.148,-17.543 0,-3.246 0.479,-3.972 0.479,-3.972 0,0 1.667,0.296 1.878,-0.727 0.95,-4.581 7.997,-15.503 21.62,-11.005 0.588,0.194 1.285,-1.281 1.285,-1.281 0,0 1.988,0.919 3.033,1.673 0.372,0.269 8.234,4.322 7.471,15.306 z"
   id="path15"
   style="fill:#2743d8;fill-opacity:1"
   inkscape:connector-curvature="0" />
	</g>
	<g
   id="Ebene_2"
   style="fill:#1f39b8;fill-opacity:1">
		<path
   d="m 36.823,13.553 c 0,0 1.671,3.403 1.307,7.235 C 36.902,33.703 26.203,38.201 20.766,38.153 5.31,38.019 2.435,24.181 2.435,24.181 c 0,-0.886 3.266,-2.364 7.903,-2.812 4.645,-0.448 7.399,1.898 9.888,0.279 0.438,-0.285 3.713,-4.138 5.81,-5.419 2.88,-1.759 7.271,-2.676 10.787,-2.676 z"
   id="path18"
   style="fill:#1f39b8;fill-opacity:1"
   inkscape:connector-curvature="0" />
	</g>
</g><g
   inkscape:groupmode="layer"
   id="layer1"
   inkscape:label="Ebene"
   style="display:none"><path
     style="fill:none;stroke:#ffffff;stroke-width:1.37399995;stroke-linecap:butt;stroke-linejoin:miter;stroke-miterlimit:4;stroke-opacity:1;stroke-dasharray:none"
     d="m 4.7566013,21.912421 c 1.324289,0 3.583162,-4.317637 4.576378,-5.252383 0.9932177,-0.934747 3.2339577,-2.733373 4.8986347,-2.918391 8.2649,-0.918592 2.365413,5.142179 2.365413,5.142179 0,0 1.732404,-2.661751 -0.839953,-2.754341 -3.438563,-0.123768 -5.253069,5.395513 -5.253069,6.096572 0,1.157606 2.8623,-0.360544 4.628019,-0.204753 1.765718,0.15579 3.081276,1.304287 3.853778,0.369539 0.772502,-0.934747 2.780389,-5.924289 6.012934,-7.735988 2.98349,-2.231531 9.236067,-0.340223 4.695555,3.861031 -0.574352,-6.28461 -7.675388,1.177043 -4.846909,4.288204 0.551787,0.467374 3.061646,-0.243019 3.944505,-0.243019 0.88286,0 4.587106,-2.018462 4.587106,-2.018462"
     id="path3828"
     inkscape:connector-curvature="0"
     sodipodi:nodetypes="csscsssscccsc" /><path
     style="fill:none;stroke:#ffffff;stroke-width:1.39999998;stroke-linecap:butt;stroke-linejoin:miter;stroke-miterlimit:4;stroke-opacity:1;stroke-dasharray:none"
     d="m 6.9491525,28.135594 c 1.8644068,-1.016949 3.3898305,-2.033899 5.9322035,-1.864408 2.542373,0.169492 4.067797,2.033899 7.288136,2.203391 3.220339,0.169491 3.898304,-2.033899 7.288134,-2.033899 3.389832,0 5.254238,1.694915 5.254238,1.694915"
     id="path3848"
     inkscape:connector-curvature="0"
     sodipodi:nodetypes="csssc"
     inkscape:export-filename="R:\Themen\Icons\Icons_MRH\Grundkonzept\Icons_MRH_neues_Konzept\neues_konzept_draussenimgruenen\nordsee.png"
     inkscape:export-xdpi="90"
     inkscape:export-ydpi="90" /></g><g
   inkscape:groupmode="layer"
   id="layer3"
   inkscape:label="3"
   style="display:none"><path
     sodipodi:type="arc"
     style="fill:none;stroke:#ffffff;stroke-width:1.39999998;stroke-linecap:butt;stroke-linejoin:round;stroke-miterlimit:4;stroke-opacity:1;stroke-dasharray:none"
     id="path3874"
     sodipodi:cx="22.033897"
     sodipodi:cy="25.084745"
     sodipodi:rx="15.254237"
     sodipodi:ry="14.745763"
     d="m 37.288135,25.084745 a 15.254237,14.745763 0 1 1 -30.5084748,0 15.254237,14.745763 0 1 1 30.5084748,0 z"
     transform="translate(-2.0338983,-3.8983051)" /></g><g
   inkscape:groupmode="layer"
   id="layer4"
   inkscape:label="4"><path
     style="fill:none;stroke:#ffffff;stroke-width:1.75999999;stroke-linecap:butt;stroke-linejoin:miter;stroke-miterlimit:4;stroke-opacity:1;stroke-dasharray:none"
     d="m 22.748956,15.85257 c -4.28185,0.174699 -13.0771636,0.276963 -14.5308277,2.877925 -1.2838242,2.297076 2.4004227,5.497232 2.4004227,5.497232 0,0 -1.485446,7.440075 8.383767,7.131902 9.70363,-0.303002 13.471994,-2.623806 14.272517,-6.716222 0.480347,-2.455619 -4.42676,-6.892699 -6.803367,-7.932048 C 24.36813,15.791518 26.113158,12.437174 24.512111,11.369093 21.310018,9.2329325 14.638992,8.4574367 14.638992,8.4574367"
     id="path3877"
     inkscape:connector-curvature="0"
     sodipodi:nodetypes="cscssssc" /></g><g
   inkscape:groupmode="layer"
   id="layer5"
   inkscape:label="5"><path
     style="fill:none;stroke:#fffffe;stroke-width:1.70000005;stroke-linecap:butt;stroke-linejoin:miter;stroke-miterlimit:4;stroke-opacity:1;stroke-dasharray:none"
     d="m 16.610169,16.101695 c 0,0 -5.087555,0.75552 -7.4576266,1.186441 -1.8644068,0.338982 -3.0508475,0.677966 -2.0338983,4.57627 0.4989358,1.912587 2.7118647,3.050848 2.7118647,3.050848 0,0 -0.3389834,4.237289 2.0338972,5.762713 2.372882,1.525423 4.915255,2.542372 9.830509,1.864406 4.915254,-0.677966 9.491526,-1.525424 10.677966,-3.898305 1.186441,-2.372882 0.847458,-5.254237 0.847458,-5.254237"
     id="path3884"
     inkscape:connector-curvature="0"
     sodipodi:nodetypes="csscsssc" /><path
     style="fill:none;stroke:#ffffff;stroke-width:1.60000002;stroke-linecap:butt;stroke-linejoin:miter;stroke-miterlimit:4;stroke-opacity:1;stroke-dasharray:none"
     d="m 14.915254,7.6271186 c 0,0 8.644068,1.1864407 9.830509,2.8813564 1.18644,1.694915 0.338983,4.067796 1.525423,5.084745 1.186441,1.016949 3.050848,3.050848 3.050848,3.050848"
     id="path3886"
     inkscape:connector-curvature="0"
     sodipodi:nodetypes="cssc" /></g><g
   inkscape:groupmode="layer"
   id="layer2"
   inkscape:label="2"><g
     transform="matrix(0.43101306,0,0,-0.40658844,11.718507,31.194182)"
     id="Ebene_11"><path
       style="fill:#ffffff"
       inkscape:connector-curvature="0"
       d="M 6.177,19.84 6,16.484 c 0,0 3.125,-2.931 6.095,-2.927 3.241,0.005 4.72,2.696 7.905,2.777 3.184,0.083 4.779,-2.675 8.188,-2.804 3.408,-0.13 5.813,2.2 5.813,2.2 v 3.292 c 0,0 -1.969,-2.616 -5.813,-2.554 -2.77,0.045 -4.483,2.815 -8.188,2.833 -3.559,0.017 -5.181,-2.54 -8.031,-2.54 -2.593,0.001 -6.066,3.335 -5.792,3.079 z"
       id="path52" /><path
       style="fill:#ffffff"
       inkscape:connector-curvature="0"
       d="m 6,26.949 v -3.335 c 0,0 3.514,-2.524 6.023,-2.569 2.96,-0.053 4.4,2.444 7.853,2.469 3.549,0.023 5.57,-2.758 9.033,-2.758 3.286,0 5.091,2.257 5.091,2.257 v 3.272 c 0,0 -2.188,-2.056 -4.549,-2.06 -3.128,-0.005 -6.043,2.339 -9.451,2.339 -3.409,0 -5.006,-2.488 -7.799,-2.439 C 9.408,24.175 6,26.949 6,26.949 z"
       id="path54" /></g></g>
<g
   id="Ebene_5">
</g>
<g
   id="Ebene_3"
   display="none">
	<circle
   display="inline"
   fill="#FFD64D"
   stroke="#F9B02A"
   stroke-width="2"
   stroke-miterlimit="10"
   cx="20"
   cy="20"
   r="19"
   id="circle22" />
</g>
</svg>