<?xml version="1.0" encoding="utf-8"?>
<!-- Generator: Adobe Illustrator 15.0.0, SVG Export Plug-In . SVG Version: 6.00 Build 0)  -->
<!DOCTYPE svg PUBLIC "-//W3C//DTD SVG 1.1//EN" "http://www.w3.org/Graphics/SVG/1.1/DTD/svg11.dtd">
<svg version="1.1" xmlns="http://www.w3.org/2000/svg" xmlns:xlink="http://www.w3.org/1999/xlink" x="0px" y="0px" width="40px"
	 height="40px" viewBox="0 0 40 40" enable-background="new 0 0 40 40" xml:space="preserve">
<g id="Ebene_4">
	<path fill-rule="evenodd" clip-rule="evenodd" fill="#4389C8" stroke="#106FB7" stroke-width="2" stroke-miterlimit="10" d="
		M39,33.813C39,40.098,40.098,39,33.813,39H6.5C0.214,39,1,40.035,1,33.75V6.375C1,0.089,0.089,1,6.375,1h27.438
		C40.098,1,39,0.089,39,6.375V33.813z"/>
</g>
<g id="Ebene_8">
	<path fill-rule="evenodd" clip-rule="evenodd" fill="#0B619E" d="M37.978,37.887c-0.899,0.011-1.387,0.057-1.819,0.057H2.587
		c-0.703,0.129-0.629-0.473-0.629-0.656L2,22.875c0-0.325,3.807-2.317,6.063-2.25c2.401,0.072,9,2.75,11.125,2.75
		c2.5,0,6.943-3.437,8.063-4.5c2.5-2.375,5.938-2.688,10.75-1.75L37.978,37.887z"/>
</g>
<g id="Ebene_9">
	<polygon fill-rule="evenodd" clip-rule="evenodd" fill="#D0F1F7" points="22.5,2.156 2.063,2.016 1.875,19.164 4,18.313 
		4.188,4.125 21.188,4.188 	"/>
</g>
<g id="Ebene_5">
	<path fill="#FFFFFF" d="M5.109,24.125l30.266,0.188l-2.75,6.313c0,0-0.422-0.688-2.375-0.688c-2.297,0-5.018,1.837-6.625,1.938
		c-2,0.125-4.923-2.162-6.563-2.188c-1.419-0.022-4.578,1.563-4.578,1.563s-2.84-2.082-4.688-3.625
		C6.111,26.218,5.109,24.125,5.109,24.125z"/>
	<polygon fill="#FFFFFF" points="11.25,25.063 14.5,25 20.188,18.063 18.563,18 	"/>
	<path fill="#FFFFFF" d="M4.688,35.084c-0.221-0.413-0.417-2.625-0.417-2.625l1.938,2.063l2.396-7.959l1.083,0.5L7.5,34.896
		l2.521-0.479c0,0-0.948,1.338-1.604,1.75c-0.339,0.213-2.042,0.229-2.042,0.229S4.994,35.655,4.688,35.084z"/>
</g>
</svg>
