<?xml version="1.0" encoding="UTF-8" standalone="no"?>
<!-- Generator: Adobe Illustrator 15.0.0, SVG Export Plug-In . SVG Version: 6.00 Build 0)  -->

<svg
   xmlns:dc="http://purl.org/dc/elements/1.1/"
   xmlns:cc="http://creativecommons.org/ns#"
   xmlns:rdf="http://www.w3.org/1999/02/22-rdf-syntax-ns#"
   xmlns:svg="http://www.w3.org/2000/svg"
   xmlns="http://www.w3.org/2000/svg"
   xmlns:sodipodi="http://sodipodi.sourceforge.net/DTD/sodipodi-0.dtd"
   xmlns:inkscape="http://www.inkscape.org/namespaces/inkscape"
   version="1.1"
   x="0px"
   y="0px"
   width="40"
   height="72"
   viewBox="0 0 40 72"
   enable-background="new 0 0 40 40"
   xml:space="preserve"
   id="svg831"
   sodipodi:docname="umweltpartner.svg"
   inkscape:version="0.92.2 (5c3e80d, 2017-08-06)"
   inkscape:export-filename="G:\LGV_G3\Icons\umweltpartner\umweltpartner.png"
   inkscape:export-xdpi="90"
   inkscape:export-ydpi="90"><metadata
     id="metadata837"><rdf:RDF><cc:Work
         rdf:about=""><dc:format>image/svg+xml</dc:format><dc:type
           rdf:resource="http://purl.org/dc/dcmitype/StillImage" /><dc:title></dc:title></cc:Work></rdf:RDF></metadata><defs
     id="defs835" /><sodipodi:namedview
     pagecolor="#ffffff"
     bordercolor="#666666"
     borderopacity="1"
     objecttolerance="10"
     gridtolerance="10"
     guidetolerance="10"
     inkscape:pageopacity="0"
     inkscape:pageshadow="2"
     inkscape:window-width="1623"
     inkscape:window-height="958"
     id="namedview833"
     showgrid="false"
     inkscape:zoom="11.194444"
     inkscape:cx="4.8138952"
     inkscape:cy="36"
     inkscape:window-x="9"
     inkscape:window-y="3"
     inkscape:window-maximized="0"
     inkscape:current-layer="layer1"
     inkscape:snap-others="false"
     inkscape:object-nodes="false"
     inkscape:snap-nodes="false"
     inkscape:snap-global="false" /><g
     inkscape:groupmode="layer"
     id="layer1"
     inkscape:label="Layer 1"
     style="display:inline"><rect
       style="display:inline;opacity:0.98999999;fill:#fbfef7;fill-opacity:1;stroke:none;stroke-width:0.2428481;stroke-linecap:round;stroke-linejoin:miter;stroke-miterlimit:4;stroke-dasharray:none;stroke-opacity:1"
       id="rect846"
       width="39.751862"
       height="69.588097"
       x="0.16873384"
       y="1.1166228" /><path
       style="fill:#8fbf21;fill-opacity:1;fill-rule:evenodd;stroke:none;stroke-width:0.23181976;stroke-linecap:butt;stroke-linejoin:miter;stroke-miterlimit:4;stroke-dasharray:none;stroke-opacity:1"
       d="m 7.6273393,26.456753 v -1.68488 h 1.3745073 v -8.424395 h 5.4093494 v 8.335718 h 2.48298 V 14.263549 h -1.330168 v -1.640541 h 1.197151 c 0,0 0.354632,-3.2316023 3.059386,-3.1924029 3.059386,0.044339 3.192403,3.1037259 3.192403,3.1037259 h 1.197151 v 1.729218 h -1.374508 v 10.375308 h 2.52732 v -8.335718 h 5.276332 v 8.335718 h 1.507523 v 1.773557 z"
       id="path4557"
       inkscape:connector-curvature="0"
       sodipodi:nodetypes="cccccccccccscccccccccccc" /><path
       style="fill:#8fbf21;fill-opacity:1;fill-rule:evenodd;stroke:none;stroke-width:0.23181976;stroke-linecap:butt;stroke-linejoin:miter;stroke-miterlimit:4;stroke-dasharray:none;stroke-opacity:1"
       d="m 7.0509333,41.886699 c 0,0 0.3547115,-1.064134 0.7981007,-3.72447 C 8.2924233,35.501894 9.0905236,27.653904 9.0905236,27.653904 H 30.594903 c 0,0 0.886779,8.646091 1.330169,10.597003 0.443388,1.950913 0.842439,3.768809 0.842439,3.768809 H 23.32332 v -5.675383 c 0,0 -0.753761,-2.749013 -3.369759,-2.749013 -2.83769,0 -3.325419,2.704674 -3.325419,2.704674 v 5.631044 z"
       id="path4559"
       inkscape:connector-curvature="0"
       sodipodi:nodetypes="csccscccsccc" /><path
       style="fill:#8fbf21;fill-opacity:1;fill-rule:evenodd;stroke:none;stroke-width:0.23181976;stroke-linecap:butt;stroke-linejoin:miter;stroke-miterlimit:4;stroke-dasharray:none;stroke-opacity:1"
       d="M 6.031138,45.611169 H 16.539465 V 43.349884 H 6.607544 c 0,0 -0.044339,0.709422 -0.2216946,1.197151 -0.1773557,0.487728 -0.3547114,1.064134 -0.3547114,1.064134 z"
       id="path4561"
       inkscape:connector-curvature="0" /><path
       style="fill:#8fbf21;fill-opacity:1;fill-rule:evenodd;stroke:none;stroke-width:0.35664579;stroke-linecap:butt;stroke-linejoin:miter;stroke-miterlimit:4;stroke-dasharray:none;stroke-opacity:1"
       d="m 18.056779,5.6178934 1.146607,0.00436 -0.0096,-1.2366982 1.399675,-0.014377 0.01438,1.2546605 h 1.189945 v 1.2673252 l -1.160956,0.013942 0.01568,1.3315803 -1.441935,-0.00523 v -1.326586 l -1.149225,0.014377 z"
       id="path4563"
       inkscape:connector-curvature="0"
       sodipodi:nodetypes="ccccccccccccc" /><path
       style="fill:#8fbf21;fill-opacity:1;fill-rule:evenodd;stroke:none;stroke-width:0.23181976;stroke-linecap:butt;stroke-linejoin:miter;stroke-miterlimit:4;stroke-dasharray:none;stroke-opacity:1"
       d="M 33.751796,45.631455 H 23.243471 V 43.37017 h 9.931919 c 0,0 0.04434,0.709422 0.221695,1.197151 0.177356,0.487728 0.354711,1.064134 0.354711,1.064134 z"
       id="path4561-5"
       inkscape:connector-curvature="0" /><path
       sodipodi:type="star"
       style="opacity:0.98999999;fill:#8fbf21;fill-opacity:1;stroke:none;stroke-width:0.37795275;stroke-linecap:round;stroke-linejoin:miter;stroke-miterlimit:4;stroke-dasharray:none;stroke-opacity:1"
       id="path4582"
       sodipodi:sides="6"
       sodipodi:cx="7.1464019"
       sodipodi:cy="9.5583124"
       sodipodi:r1="2.3174212"
       sodipodi:r2="1.3519681"
       sodipodi:arg1="0.48088728"
       sodipodi:arg2="1.0044861"
       inkscape:flatsided="false"
       inkscape:rounded="0"
       inkscape:randomized="0"
       d="m 9.2009924,10.630273 -1.32923,0.06895 -0.6264101,1.1744 L 6.5210274,10.756947 5.1907618,10.80166 5.7956668,9.6160394 5.0918114,8.4863521 6.4210413,8.417405 7.0474514,7.2430047 7.7717764,8.3596781 9.102042,8.314965 8.4971369,9.5005855 Z"
       transform="matrix(0.92656331,0.03098189,-0.03098189,0.92656331,5.4474698,2.1345293)" /><path
       style="fill:#8fbf21;fill-opacity:1;fill-rule:evenodd;stroke:#8fbf21;stroke-width:1.3017571;stroke-linecap:butt;stroke-linejoin:miter;stroke-miterlimit:4;stroke-dasharray:none;stroke-opacity:1"
       d="M 9.0520246,14.871101 H 14.403503"
       id="path4584"
       inkscape:connector-curvature="0" /><path
       style="fill:#8fbf21;fill-opacity:1;fill-rule:evenodd;stroke:#8fbf21;stroke-width:1.3017571;stroke-linecap:butt;stroke-linejoin:miter;stroke-miterlimit:4;stroke-dasharray:none;stroke-opacity:1"
       d="m 25.309876,14.786474 h 5.351477"
       id="path4584-4"
       inkscape:connector-curvature="0" /><path
       sodipodi:type="star"
       style="opacity:0.98999999;fill:#8fbf21;fill-opacity:1;stroke:none;stroke-width:0.37795275;stroke-linecap:round;stroke-linejoin:miter;stroke-miterlimit:4;stroke-dasharray:none;stroke-opacity:1"
       id="path4582-4"
       sodipodi:sides="6"
       sodipodi:cx="7.1464019"
       sodipodi:cy="9.5583124"
       sodipodi:r1="2.3174212"
       sodipodi:r2="1.3519681"
       sodipodi:arg1="0.48088728"
       sodipodi:arg2="1.0044861"
       inkscape:flatsided="false"
       inkscape:rounded="0"
       inkscape:randomized="0"
       d="m 9.2009924,10.630273 -1.32923,0.06895 -0.6264101,1.1744 L 6.5210274,10.756947 5.1907618,10.80166 5.7956668,9.6160394 5.0918114,8.4863521 6.4210413,8.417405 7.0474514,7.2430047 7.7717764,8.3596781 9.102042,8.314965 8.4971369,9.5005855 Z"
       transform="matrix(0.92656331,0.03098189,-0.03098189,0.92656331,21.780582,1.9582745)" /><path
       style="fill:#8fbf21;fill-opacity:1;fill-rule:evenodd;stroke:none;stroke-width:0.35664579;stroke-linecap:butt;stroke-linejoin:miter;stroke-miterlimit:4;stroke-dasharray:none;stroke-opacity:1"
       d="m 5.3000451,47.809285 h 1.1026908 v 3.695505 c 0,0 0.2682221,0.536444 0.6854565,0.536444 0.4172344,0 0.655654,-0.417235 0.655654,-0.417235 V 47.74968 H 8.697525 v 4.023332 c 0,0 0.029802,1.281505 -1.639135,1.34111 -1.6689376,0.05961 -1.7583449,-1.430518 -1.7583449,-1.430518 z"
       id="path4625"
       inkscape:connector-curvature="0" /><path
       style="fill:#8fbf21;fill-opacity:1;fill-rule:evenodd;stroke:none;stroke-width:0.35664579;stroke-linecap:butt;stroke-linejoin:miter;stroke-miterlimit:4;stroke-dasharray:none;stroke-opacity:1"
       d="m 10.45587,53.024715 -0.05961,-5.21543 h 1.490128 l 0.685456,3.248468 0.774864,-3.308073 h 1.519925 v 5.245232 h -1.043085 v -3.963726 l -0.83447,3.933924 h -0.923875 l -0.83447,-3.904122 v 3.963727 z"
       id="path4627"
       inkscape:connector-curvature="0"
       sodipodi:nodetypes="cccccccccccccc" /><path
       style="fill:#8fbf21;fill-opacity:1;fill-rule:evenodd;stroke:none;stroke-width:0.23181976;stroke-linecap:butt;stroke-linejoin:miter;stroke-miterlimit:4;stroke-dasharray:none;stroke-opacity:1"
       d="m 16.356757,47.779483 h 1.2219 l 0.536445,3.814714 0.655654,-3.844517 h 0.953678 l 0.71526,3.814714 0.476839,-3.844516 h 1.043085 l -0.923876,5.304837 h -1.251703 l -0.625851,-3.27827 -0.625852,3.218665 h -1.281505 z"
       id="path4629"
       inkscape:connector-curvature="0" /><path
       style="fill:#8fbf21;fill-opacity:1;fill-rule:evenodd;stroke:none;stroke-width:0.23181976;stroke-linecap:butt;stroke-linejoin:miter;stroke-miterlimit:4;stroke-dasharray:none;stroke-opacity:1"
       d="m 23.479544,47.74968 h 2.831234 v 0.745061 h -1.698741 v 1.460321 h 1.519925 v 0.774864 h -1.519925 v 1.46032 h 1.847752 v 0.834469 h -2.980245 z"
       id="path4631"
       inkscape:connector-curvature="0" /><path
       style="fill:#8fbf21;fill-opacity:1;fill-rule:evenodd;stroke:none;stroke-width:0.23181976;stroke-linecap:butt;stroke-linejoin:miter;stroke-miterlimit:4;stroke-dasharray:none;stroke-opacity:1"
       d="m 28.03932,47.779483 h 1.072888 v 4.410763 h 1.758344 v 0.804666 h -2.80143 z"
       id="path4633"
       inkscape:connector-curvature="0" /><path
       style="fill:#8fbf21;fill-opacity:1;fill-rule:evenodd;stroke:none;stroke-width:0.23181976;stroke-linecap:butt;stroke-linejoin:miter;stroke-miterlimit:4;stroke-dasharray:none;stroke-opacity:1"
       d="m 31.406997,47.779483 h 3.427282 v 0.745061 h -1.192098 v 4.470368 h -1.072888 v -4.440565 h -1.162296 z"
       id="path4635"
       inkscape:connector-curvature="0" /><path
       style="fill:#8fbf21;fill-opacity:1;fill-rule:evenodd;stroke:none;stroke-width:0.23181976;stroke-linecap:butt;stroke-linejoin:miter;stroke-miterlimit:4;stroke-dasharray:none;stroke-opacity:1"
       d="m 3.6311076,55.110886 h 2.2351842 c 0,0 1.1077549,0.03001 1.0430859,1.519926 -0.060795,1.400665 -1.1920982,1.370913 -1.1920982,1.370913 H 4.7337984 v 2.324592 H 3.6311076 Z"
       id="path4637"
       inkscape:connector-curvature="0"
       sodipodi:nodetypes="ccsccccc" /><path
       style="fill:#fcfef7;fill-opacity:1;fill-rule:evenodd;stroke:none;stroke-width:0.23181976;stroke-linecap:butt;stroke-linejoin:miter;stroke-miterlimit:4;stroke-dasharray:none;stroke-opacity:1"
       d="m 4.7039959,55.826146 v 1.370913 h 0.7450615 c 0,0 0.4889973,-0.06198 0.5364442,-0.536444 0.089408,-0.894074 -0.5364442,-0.834469 -0.5364442,-0.834469 z"
       id="path4639"
       inkscape:connector-curvature="0"
       sodipodi:nodetypes="cccscc" /><path
       style="fill:#8fbf21;fill-opacity:1;fill-rule:evenodd;stroke:none;stroke-width:0.23181976;stroke-linecap:butt;stroke-linejoin:miter;stroke-miterlimit:4;stroke-dasharray:none;stroke-opacity:1"
       d="m 9.1147596,58.955404 -0.2980248,1.34111 H 7.8332539 L 9.1524426,55.091182 H 10.33666 l 1.418051,5.202827 h -1.090223 l -0.390407,-1.36761 z"
       id="path4643"
       inkscape:connector-curvature="0"
       sodipodi:nodetypes="ccccccccc" /><path
       style="fill:#8fbf21;fill-opacity:1;fill-rule:evenodd;stroke:none;stroke-width:0.23181976;stroke-linecap:butt;stroke-linejoin:miter;stroke-miterlimit:4;stroke-dasharray:none;stroke-opacity:1"
       d="m 13.376512,60.296514 -0.0298,-5.155824 2.294788,0.0298 c 0,0 1.013284,0.178814 0.983482,1.400714 -0.0298,1.221902 -0.943267,1.381535 -0.943267,1.381535 l 1.049534,2.298391 -1.059945,3e-6 -0.864272,-2.219605 -0.47684,-0.02981 -0.0298,2.29479 z"
       id="path4645"
       inkscape:connector-curvature="0"
       sodipodi:nodetypes="ccccccccccc" /><path
       style="fill:#ffffff;fill-opacity:1;fill-rule:evenodd;stroke:none;stroke-width:0.23181976;stroke-linecap:butt;stroke-linejoin:miter;stroke-miterlimit:4;stroke-dasharray:none;stroke-opacity:1"
       d="m 14.300388,55.796343 3e-6,1.490124 0.953678,-0.0298 c 0,0 0.476839,-0.11921 0.447036,-0.745062 -0.0298,-0.625852 -0.327826,-0.685456 -0.327826,-0.685456 z"
       id="path4647"
       inkscape:connector-curvature="0"
       sodipodi:nodetypes="cccccc" /><path
       style="fill:#8fbf21;fill-opacity:1;fill-rule:evenodd;stroke:none;stroke-width:0.23181976;stroke-linecap:butt;stroke-linejoin:miter;stroke-miterlimit:4;stroke-dasharray:none;stroke-opacity:1"
       d="m 18.100201,55.066183 h 3.427282 v 0.745061 h -1.192098 v 4.470369 h -1.072888 v -4.440566 h -1.162296 z"
       id="path4635-7"
       inkscape:connector-curvature="0" /><path
       style="fill:#8fbf21;fill-opacity:1;fill-rule:evenodd;stroke:none;stroke-width:0.23181976;stroke-linecap:butt;stroke-linejoin:miter;stroke-miterlimit:4;stroke-dasharray:none;stroke-opacity:1"
       d="m 30.736443,62.397588 h 3.427282 v 0.745061 h -1.192098 v 4.470368 h -1.072888 v -4.440566 h -1.162296 z"
       id="path4635-9"
       inkscape:connector-curvature="0" /><path
       style="fill:#ffffff;fill-opacity:1;fill-rule:evenodd;stroke:none;stroke-width:0.23181976;stroke-linecap:butt;stroke-linejoin:miter;stroke-miterlimit:4;stroke-dasharray:none;stroke-opacity:1"
       d="m 9.2935746,58.120935 0.387431,-1.728542 0.4640784,1.731962 z"
       id="path4641"
       inkscape:connector-curvature="0" /><path
       style="fill:#8fbf21;fill-opacity:1;fill-rule:evenodd;stroke:none;stroke-width:0.23181976;stroke-linecap:butt;stroke-linejoin:miter;stroke-miterlimit:4;stroke-dasharray:none;stroke-opacity:1"
       d="m 33.17181,60.281613 -0.0298,-5.155825 2.294788,0.0298 c 0,0 1.013284,0.178814 0.983481,1.400714 -0.0298,1.221902 -0.943267,1.381535 -0.943267,1.381535 l 1.049534,2.298391 -1.059945,3e-6 -0.864272,-2.219605 -0.476839,-0.02981 -0.0298,2.294789 z"
       id="path4645-0"
       inkscape:connector-curvature="0"
       sodipodi:nodetypes="ccccccccccc" /><path
       style="fill:#ffffff;fill-opacity:1;fill-rule:evenodd;stroke:none;stroke-width:0.23181976;stroke-linecap:butt;stroke-linejoin:miter;stroke-miterlimit:4;stroke-dasharray:none;stroke-opacity:1"
       d="m 34.095686,55.781442 3e-6,1.490123 0.953678,-0.0298 c 0,0 0.476839,-0.11921 0.447037,-0.745062 -0.0298,-0.625852 -0.327827,-0.685456 -0.327827,-0.685456 z"
       id="path4647-5"
       inkscape:connector-curvature="0"
       sodipodi:nodetypes="cccccc" /><path
       style="fill:#8fbf21;fill-opacity:1;fill-rule:evenodd;stroke:none;stroke-width:0.23181976;stroke-linecap:butt;stroke-linejoin:miter;stroke-miterlimit:4;stroke-dasharray:none;stroke-opacity:1"
       d="m 22.144667,66.237056 -0.298024,1.34111 h -0.983481 l 1.319188,-5.205332 h 1.184217 l 1.418051,5.202827 H 23.694395 L 23.303988,66.20805 Z"
       id="path4643-8"
       inkscape:connector-curvature="0"
       sodipodi:nodetypes="ccccccccc" /><path
       style="fill:#fdfffd;fill-opacity:1;fill-rule:evenodd;stroke:none;stroke-width:0.23181976;stroke-linecap:butt;stroke-linejoin:miter;stroke-miterlimit:4;stroke-dasharray:none;stroke-opacity:1"
       d="m 22.323481,65.402587 0.387432,-1.728542 0.464078,1.731962 z"
       id="path4641-8"
       inkscape:connector-curvature="0" /><path
       style="fill:#8fbf21;fill-opacity:1;fill-rule:evenodd;stroke:none;stroke-width:0.23181976;stroke-linecap:butt;stroke-linejoin:miter;stroke-miterlimit:4;stroke-dasharray:none;stroke-opacity:1"
       d="m 23.151717,60.326317 v -5.215431 h 1.549727 l 1.192099,3.576295 v -3.606096 h 0.894074 v 5.245232 h -1.490123 l -1.251703,-3.814715 v 3.814715 z"
       id="path4706"
       inkscape:connector-curvature="0" /><path
       style="fill:#8fbf21;fill-opacity:1;fill-rule:evenodd;stroke:none;stroke-width:0.23181976;stroke-linecap:butt;stroke-linejoin:miter;stroke-miterlimit:4;stroke-dasharray:none;stroke-opacity:1"
       d="m 9.0253526,62.710513 v 1.013283 c 0,0 -0.745062,-0.625851 -1.2517037,-0.536444 -0.5066418,0.08941 -0.8046663,0.387432 -0.7450614,0.655654 0.059605,0.268222 0.327827,0.625851 0.8046663,0.745062 0.4768393,0.11921 0.9238762,0.387431 1.0728888,0.655654 0.149012,0.268222 0.298024,0.745061 0.238419,1.2219 -0.0596,0.47684 -0.476839,1.043087 -0.7748636,1.162296 -0.2980246,0.11921 -0.7450614,0.149012 -0.9536786,0.149012 -0.2086172,0 -1.1622957,-0.238419 -1.4007154,-0.447036 -0.2384197,-0.208617 -0.1490123,-0.983482 -0.1490123,-0.983482 0,0 0.8344688,0.35763 1.1026909,0.447037 0.2682221,0.08941 1.0728884,0.08941 1.1026908,-0.447037 0.029802,-0.536444 -0.5662466,-0.774863 -0.9238761,-0.923876 -0.3576294,-0.149011 -1.370913,-0.327827 -1.2517031,-1.609332 0.1192098,-1.281506 1.1324933,-1.460321 1.4305179,-1.490123 0.2980245,-0.0298 0.8344687,0.08941 1.0430859,0.149012 0.2086172,0.05961 0.6556546,0.23842 0.6556546,0.23842 z"
       id="path4708"
       inkscape:connector-curvature="0" /><path
       style="fill:#8fbf21;fill-opacity:1;fill-rule:evenodd;stroke:none;stroke-width:0.23181976;stroke-linecap:butt;stroke-linejoin:miter;stroke-miterlimit:4;stroke-dasharray:none;stroke-opacity:1"
       d="m 14.002363,62.740315 v 0.953679 c 0,0 -0.685456,-0.476839 -1.192098,-0.447037 -0.506642,0.0298 -1.013284,0.71526 -1.043086,1.877555 -0.0298,1.162295 0.417234,1.609332 0.864271,1.639135 0.447037,0.0298 1.400715,-0.327827 1.400715,-0.327827 v 0.804666 c 0,0 -0.357629,0.476839 -1.34111,0.506642 -0.983481,0.0298 -2.17558,-0.536444 -2.086172,-2.563011 0.08941,-2.026567 1.013284,-2.801431 1.847753,-2.861036 0.834468,-0.05961 1.192098,0.208617 1.192098,0.208617 z"
       id="path4710"
       inkscape:connector-curvature="0" /><path
       style="fill:#8fbf21;fill-opacity:1;fill-rule:evenodd;stroke:none;stroke-width:0.23181976;stroke-linecap:butt;stroke-linejoin:miter;stroke-miterlimit:4;stroke-dasharray:none;stroke-opacity:1"
       d="m 15.641498,62.472093 v 5.185627 h 1.132493 v -2.264986 h 1.311308 v 2.205381 h 1.162296 v -5.185627 h -1.102691 v 2.145777 h -1.34111 v -2.086172 z"
       id="path4712"
       inkscape:connector-curvature="0" /><path
       style="fill:#8fbf21;fill-opacity:1;fill-rule:evenodd;stroke:none;stroke-width:0.23181976;stroke-linecap:butt;stroke-linejoin:miter;stroke-miterlimit:4;stroke-dasharray:none;stroke-opacity:1"
       d="m 26.373102,67.65361 -0.0068,-5.247892 2.865086,0.0068 v 0.834469 H 27.502846 V 64.6179 l 1.58225,0.01354 v 0.754552 l -1.568709,0.01354 0.01354,2.248725 z"
       id="path4714"
       inkscape:connector-curvature="0"
       sodipodi:nodetypes="ccccccccccc" /><path
       style="fill:#8fbf21;fill-opacity:1;fill-rule:evenodd;stroke:none;stroke-width:0.23181976;stroke-linecap:butt;stroke-linejoin:miter;stroke-miterlimit:4;stroke-dasharray:none;stroke-opacity:1"
       d="m 28.545962,55.095986 h 2.831233 v 0.745061 h -1.69874 v 1.46032 h 1.519925 v 0.774864 h -1.519925 v 1.460321 h 1.847752 v 0.834468 h -2.980245 z"
       id="path4631-2"
       inkscape:connector-curvature="0" /></g><g
     inkscape:groupmode="layer"
     id="layer2"
     inkscape:label="Layer 2"
     style="display:inline" /></svg>