<?xml version="1.0" encoding="utf-8"?>
<!-- Generator: Adobe Illustrator 15.0.0, SVG Export Plug-In . SVG Version: 6.00 Build 0)  -->
<!DOCTYPE svg PUBLIC "-//W3C//DTD SVG 1.1//EN" "http://www.w3.org/Graphics/SVG/1.1/DTD/svg11.dtd">
<svg version="1.1" xmlns="http://www.w3.org/2000/svg" xmlns:xlink="http://www.w3.org/1999/xlink" x="0px" y="0px" width="40px"
	 height="40px" viewBox="0 0 40 40" enable-background="new 0 0 40 40" xml:space="preserve">
<g id="Ebene_1">
	<g id="XMLID_1_">
		<g>
			<path fill="#C3F2BB" d="M20,1c10.49,0,19,8.51,19,19s-8.51,19-19,19S1,30.49,1,20S9.51,1,20,1z"/>
		</g>
		<g>
			<path fill="none" stroke="#0E5B1B" stroke-width="2" stroke-miterlimit="10" d="M39,20c0,10.49-8.51,19-19,19S1,30.49,1,20
				S9.51,1,20,1S39,9.51,39,20z"/>
		</g>
	</g>
	<g id="Ebene_6">
		<path fill="#4D7A44" d="M37.721,20.469c-0.677,9.741-8.056,17.549-17.618,17.549S1.955,29.47,1.955,20.475
			c0-3.246,0.479-3.972,0.479-3.972s1.667,0.296,1.878-0.727c0.95-4.581,7.997-15.503,21.62-11.005
			c0.588,0.194,1.285-1.281,1.285-1.281s1.988,0.919,3.033,1.673C30.622,5.432,38.484,9.485,37.721,20.469z"/>
	</g>
	<g id="Ebene_2">
		<path fill="#16631F" d="M36.823,13.553c0,0,1.671,3.403,1.307,7.235c-1.228,12.915-11.927,17.413-17.364,17.365
			C5.31,38.019,2.435,24.181,2.435,24.181c0-0.886,3.266-2.364,7.903-2.812c4.645-0.448,7.399,1.898,9.888,0.279
			c0.438-0.285,3.713-4.138,5.81-5.419C28.916,14.47,33.307,13.553,36.823,13.553z"/>
	</g>
</g>
<g id="Ebene_5">
	<path fill="#FFFFFF" d="M17.125,23.688c0,0-3.278-1.871-4.403-2.933C11.597,19.692,10.25,17,10.25,17H12c0,0-1-1.895-0.625-3.447
		s0.813-5.428,1.5-5.365s0.375,3.125,0.875,3.313s0.813-2.063,1.438-2.063s-0.063,1.5,0.375,1.813s0.844-1.313,1.563-0.938
		s-0.813,3-0.188,2.75s0.875-1.438,1.188-0.938s-0.875,2.438,0,2.438s1.082-0.935,1.27-0.248s-0.832,2.31-0.332,3.185
		s1.563,3.571,2.063,3.254s0.375-3.693,1.063-4.661s1.875-2.906,2.188-4.218s-0.188-3.626,0.813-3.688s0.375,2.501,0.875,2.563
		s0.688-1.5,1.313-1.813s-0.25,1.125,0.313,1.375s1.313-0.75,1.375-0.188s-1.813,2.125-0.938,2.063s1.625-1.5,1.813-0.875
		s-2.375,2.928-1.75,3.125s3.063-2.063,3.188-1.25s-1.125,1.999-1.688,2.906s-0.875,1.032-1.125,2.157s0.673,2.043-0.202,3.012
		s-3.923,2.613-3.86,3.051s0.5,1.25,1.75,0.875s1.25-0.563,3.375-1s4.563-0.813,4.625,0.125s-1,2.75-1.875,3.375
		c-1.085,0.774-1.7,1.959-3.766,2.316c-1.124,0.194-3.047-1.691-4.172-1.566s-2.563,1.688-3.188,2.438S19.625,31.938,19.313,32
		s-0.25,0.313,0.063,0.625s0.688,0.938,0.125,1s-0.438-0.5-1-0.938s-1-0.813-0.938-0.25s0.5,1.26,0,1.192s-0.188-1.005-1.063-1.13
		s-1.438,1.063-1.813,0.688s-0.5-0.813,0.5-1.375s1.375-0.813,2.188-1.75s0.688-2-0.25-2.25s-2-0.5-2.563,0s-1,1.688-1,1.688
		s-1.063-0.813-1.188-1.875s-1-2.313,0.25-3.125s1.313-0.688,2.563-0.625S17.125,23.688,17.125,23.688z"/>
</g>
</svg>
