<?xml version="1.0" encoding="UTF-8" standalone="no"?>
<!-- Generator: Adobe Illustrator 15.0.0, SVG Export Plug-In . SVG Version: 6.00 Build 0)  -->

<svg
   xmlns:dc="http://purl.org/dc/elements/1.1/"
   xmlns:cc="http://creativecommons.org/ns#"
   xmlns:rdf="http://www.w3.org/1999/02/22-rdf-syntax-ns#"
   xmlns:svg="http://www.w3.org/2000/svg"
   xmlns="http://www.w3.org/2000/svg"
   xmlns:sodipodi="http://sodipodi.sourceforge.net/DTD/sodipodi-0.dtd"
   xmlns:inkscape="http://www.inkscape.org/namespaces/inkscape"
   version="1.1"
   x="0px"
   y="0px"
   width="40px"
   height="40px"
   viewBox="0 0 40 40"
   enable-background="new 0 0 40 40"
   xml:space="preserve"
   id="svg2"
   inkscape:version="0.48.3.1 r9886"
   sodipodi:docname="wald_regionalpark.svg"
   inkscape:export-filename="R:\Themen\Icons\Icons_MRH\Grundkonzept\Icons_MRH_neues_Konzept\neues_konzept_draussenimgruenen\wald_regionalpark.png"
   inkscape:export-xdpi="90"
   inkscape:export-ydpi="90"><metadata
   id="metadata28"><rdf:RDF><cc:Work
       rdf:about=""><dc:format>image/svg+xml</dc:format><dc:type
         rdf:resource="http://purl.org/dc/dcmitype/StillImage" /><dc:title></dc:title></cc:Work></rdf:RDF></metadata><defs
   id="defs26" /><sodipodi:namedview
   pagecolor="#ffffff"
   bordercolor="#666666"
   borderopacity="1"
   objecttolerance="10"
   gridtolerance="10"
   guidetolerance="10"
   inkscape:pageopacity="0"
   inkscape:pageshadow="2"
   inkscape:window-width="1192"
   inkscape:window-height="920"
   id="namedview24"
   showgrid="false"
   inkscape:zoom="13.099153"
   inkscape:cx="18.137785"
   inkscape:cy="19.27331"
   inkscape:window-x="0"
   inkscape:window-y="0"
   inkscape:window-maximized="0"
   inkscape:current-layer="Ebene_4" />
<g
   id="Ebene_1">
	<g
   id="XMLID_1_">
		<g
   id="g6">
			<path
   fill="#C3F2BB"
   d="M20,1c10.49,0,19,8.51,19,19s-8.51,19-19,19S1,30.49,1,20S9.51,1,20,1z"
   id="path8" />
		</g>
		<g
   id="g10">
			<path
   fill="none"
   stroke="#0E5B1B"
   stroke-width="2"
   stroke-miterlimit="10"
   d="M39,20c0,10.49-8.51,19-19,19S1,30.49,1,20     S9.51,1,20,1S39,9.51,39,20z"
   id="path12" />
		</g>
	</g>
	<g
   id="Ebene_6">
		<path
   fill="#4D7A44"
   d="M37.721,20.469c-0.677,9.741-8.056,17.549-17.618,17.549S1.955,29.47,1.955,20.475    c0-3.246,0.479-3.972,0.479-3.972s1.667,0.296,1.878-0.727c0.95-4.581,7.997-15.503,21.62-11.005    c0.588,0.194,1.285-1.281,1.285-1.281s1.988,0.919,3.033,1.673C30.622,5.432,38.484,9.485,37.721,20.469z"
   id="path15" />
	</g>
	<g
   id="Ebene_2">
		<path
   fill="#16631F"
   d="M36.823,13.553c0,0,1.671,3.403,1.307,7.235c-1.228,12.915-11.927,17.413-17.364,17.365    C5.31,38.019,2.435,24.181,2.435,24.181c0-0.886,3.266-2.364,7.903-2.812c4.645-0.448,7.399,1.898,9.888,0.279    c0.438-0.285,3.713-4.138,5.81-5.419C28.916,14.47,33.307,13.553,36.823,13.553z"
   id="path18" />
	</g>
</g>
<g
   id="Ebene_5">
</g>
<g
   id="Ebene_3"
   display="none">
	<circle
   display="inline"
   fill="#FFD64D"
   stroke="#F9B02A"
   stroke-width="2"
   stroke-miterlimit="10"
   cx="20"
   cy="20"
   r="19"
   id="circle22" />
</g>
<g
   inkscape:groupmode="layer"
   id="layer1"
   inkscape:label="Ebene"><g
     transform="translate(-0.00421973,0.13876333)"
     id="Ebene_4"><path
       style="fill:#ffffff;fill-opacity:1"
       inkscape:connector-curvature="0"
       d="m 18.508229,26.60543 c 0.05144,-0.259798 0.148814,-4.317869 0.148814,-4.317869 -5.793641,-0.935833 -6.049931,-0.935833 -7.178897,-1.612799 -1.201535,-0.7198 -1.6240935,-2.479725 -0.466651,-4.213577 1.180407,-1.768306 3.209605,-5.040463 5.496013,-5.826376 2.723663,-0.936764 5.562153,-1.7738924 8.051572,-1.8204513 2.771431,-0.052146 5.705455,2.9779043 4.983431,5.3579933 -1.231849,4.05714 -8.524653,7.646828 -8.524653,7.646828 0,0 -0.610872,0.832473 0.158919,2.236688 0.76979,1.404215 2.514221,2.288834 2.514221,2.288834 0,0 1.664512,0.01676 5.234211,-0.988911 3.694629,-1.040125 4.721629,-1.299923 6.260292,-3.06916 1.453233,-1.669601 1.693908,-3.485397 1.693908,-3.485397 0,0 0.180965,1.406078 0.102883,2.652925 -0.05236,0.832472 -0.09737,1.288749 -0.308651,1.71709 -0.359175,0.72725 -0.409698,0.676035 -1.282372,1.35207 -0.383977,0.297045 -0.774384,1.040125 -3.340966,2.132396 -2.843082,1.209599 -5.707293,1.881909 -8.4677,2.497417 -2.565664,0.571743 -3.33821,0.254212 -5.95256,0.572674 -2.565663,0.311945 -4.819001,-0.05308 -5.896525,1.404216 -1.077523,1.457292 1.744431,5.202487 1.744431,5.202487 0,0 -0.901151,-0.027 -4.46442,-3.017014 -1.4881399,-1.248709 -2.6171053,-3.328959 -2.6171053,-3.328959 0,0 1.0270003,-1.873529 2.8228728,-2.601709 1.8390475,-0.745873 1.8987565,-0.676035 3.4383385,-0.883688 1.475279,-0.199272 5.850594,0.104292 5.850594,0.104292 z"
       id="path21"
       inkscape:export-filename="R:\Themen\Icons\Icons_MRH\Grundkonzept\Icons_MRH_neues_Konzept\neues_konzept_draussenimgruenen\wald_regionalpark.png"
       inkscape:export-xdpi="90"
       inkscape:export-ydpi="90" /></g></g></svg>