<?xml version="1.0" encoding="UTF-8" standalone="no"?>
<!-- Generator: Adobe Illustrator 15.0.0, SVG Export Plug-In . SVG Version: 6.00 Build 0)  -->

<svg
   xmlns:dc="http://purl.org/dc/elements/1.1/"
   xmlns:cc="http://creativecommons.org/ns#"
   xmlns:rdf="http://www.w3.org/1999/02/22-rdf-syntax-ns#"
   xmlns:svg="http://www.w3.org/2000/svg"
   xmlns="http://www.w3.org/2000/svg"
   xmlns:sodipodi="http://sodipodi.sourceforge.net/DTD/sodipodi-0.dtd"
   xmlns:inkscape="http://www.inkscape.org/namespaces/inkscape"
   version="1.1"
   x="0px"
   y="0px"
   width="40px"
   height="40px"
   viewBox="0 0 40 40"
   enable-background="new 0 0 40 40"
   xml:space="preserve"
   id="svg2"
   inkscape:version="0.48.3.1 r9886"
   sodipodi:docname="erlebnisbad.svg"
   inkscape:export-filename="G:\AG_GDI-HH\Icons\MRH_Tage_Industriekultur\wassermuehle.png"
   inkscape:export-xdpi="90"
   inkscape:export-ydpi="90"><metadata
   id="metadata26"><rdf:RDF><cc:Work
       rdf:about=""><dc:format>image/svg+xml</dc:format><dc:type
         rdf:resource="http://purl.org/dc/dcmitype/StillImage" /><dc:title></dc:title></cc:Work></rdf:RDF></metadata><defs
   id="defs24" /><sodipodi:namedview
   pagecolor="#ffffff"
   bordercolor="#666666"
   borderopacity="1"
   objecttolerance="10"
   gridtolerance="10"
   guidetolerance="10"
   inkscape:pageopacity="0"
   inkscape:pageshadow="2"
   inkscape:window-width="1643"
   inkscape:window-height="1012"
   id="namedview22"
   showgrid="false"
   inkscape:zoom="20.825"
   inkscape:cx="23.120787"
   inkscape:cy="20"
   inkscape:window-x="2140"
   inkscape:window-y="17"
   inkscape:window-maximized="0"
   inkscape:current-layer="Ebene_8" />
<g
   id="Ebene_4">
	<path
   fill-rule="evenodd"
   clip-rule="evenodd"
   fill="#4389C8"
   stroke="#106FB7"
   stroke-width="2"
   stroke-miterlimit="10"
   d="   M39,33.813C39,40.098,40.098,39,33.813,39H6.5C0.214,39,1,40.035,1,33.75V6.375C1,0.089,0.089,1,6.375,1h27.438   C40.098,1,39,0.089,39,6.375V33.813z"
   id="path5"
   style="fill:#ffffff;fill-opacity:1" />
</g>
<g
   id="Ebene_8"
   transform="matrix(1,0,0,0.67798989,-0.19207683,12.698544)">
	<path
   clip-rule="evenodd"
   d="m 38.218096,37.375749 c -0.899,0.01398 -1.387,0.07247 -1.819,0.07247 l -33.572,0 c -0.703,0.164011 -0.629,-0.601375 -0.629,-0.834042 l 0.042,-25.708745 36.001,0.07339 z"
   id="path8"
   style="fill:#5cc5ed;fill-opacity:1;fill-rule:evenodd"
   inkscape:connector-curvature="0"
   sodipodi:nodetypes="csccccc" />
<path
   sodipodi:type="arc"
   style="opacity:0.98999999000000005;fill:none;stroke:#008ac3;stroke-width:5.8556817;stroke-miterlimit:4;stroke-opacity:1;stroke-dasharray:none"
   id="path3771"
   sodipodi:cx="11.716686"
   sodipodi:cy="12.14886"
   sodipodi:rx="12.388955"
   sodipodi:ry="12.100841"
   d="m 24.105641,12.14886 a 12.388955,12.100841 0 1 1 -24.77790987,0 12.388955,12.100841 0 1 1 24.77790987,0 z"
   transform="matrix(0.38150981,0,0,0.56270722,15.938133,3.6468966)" /></g>


<path
   sodipodi:type="arc"
   style="opacity:0.98999999;fill:none;stroke:#008ac3;stroke-width:3.14344788;stroke-miterlimit:4;stroke-opacity:1;stroke-dasharray:none"
   id="path3771-1"
   sodipodi:cx="11.716686"
   sodipodi:cy="12.14886"
   sodipodi:rx="12.388955"
   sodipodi:ry="12.100841"
   d="m 24.105641,12.14886 a 12.388955,12.100841 0 1 1 -24.77790987,0 12.388955,12.100841 0 1 1 24.77790987,0 z"
   transform="matrix(0.81248368,0,0,0.81248366,10.603353,9.8171249)" /><rect
   style="opacity:0.98999999;fill:none;stroke:#008ac3;stroke-width:1.65400004;stroke-linecap:square;stroke-linejoin:miter;stroke-miterlimit:4;stroke-opacity:1;stroke-dasharray:none"
   id="rect3791"
   width="4.6578631"
   height="1.0084034"
   x="3.4093637"
   y="18.919569" /><rect
   style="opacity:0.98999999;fill:none;stroke:#008ac3;stroke-width:1.65400004;stroke-linecap:square;stroke-linejoin:miter;stroke-miterlimit:4;stroke-opacity:1;stroke-dasharray:none"
   id="rect3791-7"
   width="4.6578631"
   height="1.0084034"
   x="3.1932776"
   y="-20.672268"
   transform="matrix(0,1,-1,0,0,0)" /><rect
   style="opacity:0.98999999;fill:none;stroke:#008ac3;stroke-width:1.65400004;stroke-linecap:square;stroke-linejoin:miter;stroke-miterlimit:4;stroke-opacity:1;stroke-dasharray:none"
   id="rect3791-4"
   width="4.6578631"
   height="1.0084034"
   x="32.052822"
   y="18.751499" /><rect
   style="opacity:0.98999999;fill:none;stroke:#008ac3;stroke-width:1.65400004;stroke-linecap:square;stroke-linejoin:miter;stroke-miterlimit:4;stroke-opacity:1;stroke-dasharray:none"
   id="rect3791-0"
   width="4.6578631"
   height="1.0084034"
   x="-36.182472"
   y="19.807924"
   transform="matrix(0,-1,1,0,0,0)" /><rect
   style="opacity:0.98999999;fill:none;stroke:#008ac3;stroke-width:1.65400004;stroke-linecap:square;stroke-linejoin:miter;stroke-miterlimit:4;stroke-opacity:1;stroke-dasharray:none"
   id="rect3791-9"
   width="4.6578631"
   height="1.0084034"
   x="12.237639"
   y="28.187527"
   transform="matrix(0.70710678,-0.70710678,0.70710678,0.70710678,0,0)" /><rect
   style="opacity:0.98999999;fill:none;stroke:#008ac3;stroke-width:1.65400004;stroke-linecap:square;stroke-linejoin:miter;stroke-miterlimit:4;stroke-opacity:1;stroke-dasharray:none"
   id="rect3791-9-4"
   width="4.6578631"
   height="1.0084034"
   x="-16.216408"
   y="27.644249"
   transform="matrix(0.70710678,-0.70710678,0.70710678,0.70710678,0,0)" /><rect
   style="opacity:0.98999999;fill:none;stroke:#008ac3;stroke-width:1.65400004;stroke-linecap:square;stroke-linejoin:miter;stroke-miterlimit:4;stroke-opacity:1;stroke-dasharray:none"
   id="rect3791-0-8"
   width="4.6578631"
   height="1.0084034"
   x="-44.398815"
   y="0.073027134"
   transform="matrix(-0.70710678,-0.70710678,0.70710678,-0.70710678,0,0)" /><rect
   style="opacity:0.98999999;fill:none;stroke:#008ac3;stroke-width:1.65400004;stroke-linecap:square;stroke-linejoin:miter;stroke-miterlimit:4;stroke-opacity:1;stroke-dasharray:none"
   id="rect3791-0-8-2"
   width="4.6578631"
   height="1.0084034"
   x="-16.250362"
   y="-0.30047348"
   transform="matrix(-0.70710678,-0.70710678,0.70710678,-0.70710678,0,0)" /></svg>