<?xml version="1.0" encoding="UTF-8" standalone="no"?>
<!-- Generator: Adobe Illustrator 15.0.0, SVG Export Plug-In . SVG Version: 6.00 Build 0)  -->

<svg
   xmlns:dc="http://purl.org/dc/elements/1.1/"
   xmlns:cc="http://creativecommons.org/ns#"
   xmlns:rdf="http://www.w3.org/1999/02/22-rdf-syntax-ns#"
   xmlns:svg="http://www.w3.org/2000/svg"
   xmlns="http://www.w3.org/2000/svg"
   xmlns:sodipodi="http://sodipodi.sourceforge.net/DTD/sodipodi-0.dtd"
   xmlns:inkscape="http://www.inkscape.org/namespaces/inkscape"
   version="1.1"
   x="0px"
   y="0px"
   width="40px"
   height="40px"
   viewBox="0 0 40 40"
   enable-background="new 0 0 40 40"
   xml:space="preserve"
   id="svg2"
   inkscape:version="0.48.3.1 r9886"
   sodipodi:docname="wassermuehle.svg"
   inkscape:export-filename="G:\AG_GDI-HH\Icons\MRH_Tage_Industriekultur\wassertechnik.png"
   inkscape:export-xdpi="90"
   inkscape:export-ydpi="90"><metadata
   id="metadata26"><rdf:RDF><cc:Work
       rdf:about=""><dc:format>image/svg+xml</dc:format><dc:type
         rdf:resource="http://purl.org/dc/dcmitype/StillImage" /><dc:title></dc:title></cc:Work></rdf:RDF></metadata><defs
   id="defs24" /><sodipodi:namedview
   pagecolor="#ffffff"
   bordercolor="#666666"
   borderopacity="1"
   objecttolerance="10"
   gridtolerance="10"
   guidetolerance="10"
   inkscape:pageopacity="0"
   inkscape:pageshadow="2"
   inkscape:window-width="1643"
   inkscape:window-height="1012"
   id="namedview22"
   showgrid="false"
   inkscape:zoom="20.825"
   inkscape:cx="21.96494"
   inkscape:cy="20"
   inkscape:window-x="2140"
   inkscape:window-y="17"
   inkscape:window-maximized="0"
   inkscape:current-layer="layer1" />
<g
   id="Ebene_4">
	<path
   fill-rule="evenodd"
   clip-rule="evenodd"
   fill="#4389C8"
   stroke="#106FB7"
   stroke-width="2"
   stroke-miterlimit="10"
   d="   M39,33.813C39,40.098,40.098,39,33.813,39H6.5C0.214,39,1,40.035,1,33.75V6.375C1,0.089,0.089,1,6.375,1h27.438   C40.098,1,39,0.089,39,6.375V33.813z"
   id="path5"
   style="fill:#ffffff;fill-opacity:1" />
</g>



<path
   style="opacity:0.98999999;fill:#008ac3;fill-opacity:1;stroke:none"
   d="M 16.272272,31.967313 5.0074768,21.422808 10.042256,10.145533 25.868874,12.190639 z"
   id="rect3791-0-8-2"
   inkscape:connector-curvature="0"
   sodipodi:nodetypes="ccccc" /><g
   id="Ebene_8"
   transform="matrix(1.1075711,0,0,0.75993108,-0.90100301,8.2865655)">
	
<path
   sodipodi:type="arc"
   style="opacity:0.98999999;fill:#008ac3;fill-opacity:1;stroke:#008ac3;stroke-width:5.8556819;stroke-miterlimit:4;stroke-opacity:1;stroke-dasharray:none"
   id="path3771"
   sodipodi:cx="11.716686"
   sodipodi:cy="12.14886"
   sodipodi:rx="12.388955"
   sodipodi:ry="12.100841"
   d="m 24.105641,12.14886 a 12.388955,12.100841 0 1 1 -24.77790987,0 12.388955,12.100841 0 1 1 24.77790987,0 z"
   transform="matrix(0.39494949,0,0,0.58253006,4.8943158,4.0452561)" /></g><g
   inkscape:groupmode="layer"
   id="layer2"
   inkscape:label="Ebene#1"><path
     sodipodi:type="arc"
     style="opacity:0.98999999000000005;fill:#ffffff;fill-opacity:1;stroke:#008ac3;stroke-width:2.69220485;stroke-miterlimit:4;stroke-opacity:1;stroke-dasharray:none"
     id="path3771-1"
     sodipodi:cx="11.716686"
     sodipodi:cy="12.14886"
     sodipodi:rx="12.388955"
     sodipodi:ry="12.100841"
     d="m 24.105641,12.14886 a 12.388955,12.100841 0 1 1 -24.77790987,0 12.388955,12.100841 0 1 1 24.77790987,0 z"
     transform="matrix(0.83126248,0,0,0.854505,14.125905,13.013405)" /></g><g
   inkscape:groupmode="layer"
   id="layer1"
   inkscape:label="Ebene"><path
     clip-rule="evenodd"
     d="m 37.803625,36.296636 c -0.902757,0.0025 -11.491331,1.332091 -11.911387,1.221536 l -8.610945,-7.63351 -1.913394,-2.550955 -0.73455,-4.172584 z"
     id="path8"
     style="fill:#5cc5ed;fill-opacity:1;fill-rule:evenodd"
     inkscape:connector-curvature="0"
     sodipodi:nodetypes="cccccc" /></g></svg>