<?xml version="1.0" encoding="UTF-8" standalone="no"?>
<!-- Generator: Adobe Illustrator 15.0.0, SVG Export Plug-In . SVG Version: 6.00 Build 0)  -->

<svg
   xmlns:dc="http://purl.org/dc/elements/1.1/"
   xmlns:cc="http://creativecommons.org/ns#"
   xmlns:rdf="http://www.w3.org/1999/02/22-rdf-syntax-ns#"
   xmlns:svg="http://www.w3.org/2000/svg"
   xmlns="http://www.w3.org/2000/svg"
   xmlns:sodipodi="http://sodipodi.sourceforge.net/DTD/sodipodi-0.dtd"
   xmlns:inkscape="http://www.inkscape.org/namespaces/inkscape"
   version="1.1"
   x="0px"
   y="0px"
   width="40px"
   height="40px"
   viewBox="0 0 40 40"
   enable-background="new 0 0 40 40"
   xml:space="preserve"
   id="svg2"
   inkscape:version="0.48.3.1 r9886"
   sodipodi:docname="kanal.svg"
   inkscape:export-filename="G:\AG_GDI-HH\Icons\MRH_Tage_Industriekultur\werften.png"
   inkscape:export-xdpi="90"
   inkscape:export-ydpi="90"><metadata
   id="metadata26"><rdf:RDF><cc:Work
       rdf:about=""><dc:format>image/svg+xml</dc:format><dc:type
         rdf:resource="http://purl.org/dc/dcmitype/StillImage" /><dc:title></dc:title></cc:Work></rdf:RDF></metadata><defs
   id="defs24" /><sodipodi:namedview
   pagecolor="#ffffff"
   bordercolor="#666666"
   borderopacity="1"
   objecttolerance="10"
   gridtolerance="10"
   guidetolerance="10"
   inkscape:pageopacity="0"
   inkscape:pageshadow="2"
   inkscape:window-width="1643"
   inkscape:window-height="1012"
   id="namedview22"
   showgrid="false"
   inkscape:zoom="20.825"
   inkscape:cx="13.925109"
   inkscape:cy="20"
   inkscape:window-x="2060"
   inkscape:window-y="34"
   inkscape:window-maximized="0"
   inkscape:current-layer="svg2" />
<g
   id="Ebene_4">
	<path
   fill-rule="evenodd"
   clip-rule="evenodd"
   fill="#4389C8"
   stroke="#106FB7"
   stroke-width="2"
   stroke-miterlimit="10"
   d="   M39,33.813C39,40.098,40.098,39,33.813,39H6.5C0.214,39,1,40.035,1,33.75V6.375C1,0.089,0.089,1,6.375,1h27.438   C40.098,1,39,0.089,39,6.375V33.813z"
   id="path5"
   style="fill:#ffffff;fill-opacity:1" />
</g>
<g
   id="Ebene_8"
   transform="matrix(1,0,0,0.67798989,-0.19207683,12.698544)">
	
</g>


<rect
   style="opacity:0.98999999;fill:#008ac3;fill-opacity:1;stroke:none"
   id="rect3791-0"
   width="17.430973"
   height="3.0991857"
   x="-37.046818"
   y="3.4333744"
   transform="matrix(0,-1,1,0,0,0)" /><rect
   style="opacity:0.98999999;fill:#008ac3;fill-opacity:1;stroke:none"
   id="rect4022"
   width="32.013752"
   height="3.0233192"
   x="4.1935105"
   y="33.997932" /><rect
   style="opacity:0.98999999;fill:#008ac3;fill-opacity:1;stroke:none"
   id="rect3791-0-5"
   width="17.430973"
   height="3.0991857"
   x="-37.046818"
   y="33.779568"
   transform="matrix(0,-1,1,0,0,0)" /><path
   sodipodi:type="star"
   style="opacity:0.98999999;fill:none;stroke:none"
   id="path2988"
   sodipodi:sides="4"
   sodipodi:cx="10.948379"
   sodipodi:cy="10.036014"
   sodipodi:r1="19.059513"
   sodipodi:r2="13.477111"
   sodipodi:arg1="0.87638063"
   sodipodi:arg2="1.6617788"
   inkscape:flatsided="true"
   inkscape:rounded="0"
   inkscape:randomized="0"
   d="M 23.145258,24.681872 -3.6974802,22.232893 -1.2485006,-4.6098452 25.594237,-2.1608655 z" /><path
   style="fill:#008ac3;fill-opacity:1;stroke:none"
   d="M 20.408163,12.436975 8.4993998,17.094838 20.120048,33.757503 32.028812,17.430972 z"
   id="path3762"
   inkscape:connector-curvature="0"
   sodipodi:nodetypes="ccccc" /><path
   style="fill:#008ac3;fill-opacity:1;stroke:none"
   d="m 10.420168,15.118878 10.036014,-4.234458 9.69988,4.385688 -1.488595,-6.7045573 3.073229,0.05041 0,-1.965998 -9.747899,-0.2016408 -0.04802,-3.3270736 -3.457383,0 -0.04802,3.3774838 -9.7959186,0.1512306 0.048019,1.965998 2.5450176,0.05041 z"
   id="path3764"
   inkscape:connector-curvature="0"
   sodipodi:nodetypes="cccccccccccccc" /></svg>