<?xml version="1.0" encoding="UTF-8" standalone="no"?>
<!-- Generator: Adobe Illustrator 15.0.0, SVG Export Plug-In . SVG Version: 6.00 Build 0)  -->

<svg
   xmlns:dc="http://purl.org/dc/elements/1.1/"
   xmlns:cc="http://creativecommons.org/ns#"
   xmlns:rdf="http://www.w3.org/1999/02/22-rdf-syntax-ns#"
   xmlns:svg="http://www.w3.org/2000/svg"
   xmlns="http://www.w3.org/2000/svg"
   xmlns:sodipodi="http://sodipodi.sourceforge.net/DTD/sodipodi-0.dtd"
   xmlns:inkscape="http://www.inkscape.org/namespaces/inkscape"
   version="1.1"
   id="Ebene_1"
   x="0px"
   y="0px"
   width="40px"
   height="40px"
   viewBox="0 0 40 40"
   enable-background="new 0 0 40 40"
   xml:space="preserve"
   inkscape:version="0.48.3.1 r9886"
   sodipodi:docname="sport_natur.svg"><metadata
   id="metadata22"><rdf:RDF><cc:Work
       rdf:about=""><dc:format>image/svg+xml</dc:format><dc:type
         rdf:resource="http://purl.org/dc/dcmitype/StillImage" /><dc:title></dc:title></cc:Work></rdf:RDF></metadata><defs
   id="defs20" /><sodipodi:namedview
   pagecolor="#ffffff"
   bordercolor="#666666"
   borderopacity="1"
   objecttolerance="10"
   gridtolerance="10"
   guidetolerance="10"
   inkscape:pageopacity="0"
   inkscape:pageshadow="2"
   inkscape:window-width="1261"
   inkscape:window-height="946"
   id="namedview18"
   showgrid="false"
   inkscape:zoom="11.313709"
   inkscape:cx="17.149148"
   inkscape:cy="18.356737"
   inkscape:window-x="0"
   inkscape:window-y="0"
   inkscape:window-maximized="0"
   inkscape:current-layer="Ebene_1" />
<g
   id="XMLID_1_">
	<g
   id="g4">
		<path
   fill="#F2F9D7"
   d="M20,1c10.49,0,19,8.51,19,19s-8.51,19-19,19S1,30.49,1,20S9.51,1,20,1z"
   id="path6" />
	</g>
	<g
   id="g8">
		<path
   fill="none"
   stroke="#4D6523"
   stroke-width="2"
   stroke-miterlimit="10"
   d="M39,20c0,10.49-8.51,19-19,19S1,30.49,1,20    S9.51,1,20,1S39,9.51,39,20z"
   id="path10" />
	</g>
</g>
<g
   id="Ebene_6">
	<path
   d="M37.721,20.469c-0.677,9.741-8.056,17.549-17.618,17.549S1.955,29.47,1.955,20.475   c0-3.246,0.479-3.972,0.479-3.972s1.667,0.296,1.878-0.727c0.95-4.581,7.997-15.503,21.62-11.005   c0.588,0.194,1.285-1.281,1.285-1.281s1.988,0.919,3.033,1.673C30.622,5.432,38.484,9.485,37.721,20.469z"
   id="path13"
   fill="#85A044" />
</g>
<g
   id="Ebene_2">
	<path
   fill="#6E8630"
   d="M36.823,13.553c0,0,1.671,3.403,1.307,7.235c-1.228,12.915-11.927,17.413-17.364,17.365   C5.31,38.019,2.435,24.181,2.435,24.181c0-0.886,3.266-2.364,7.903-2.812c4.645-0.448,7.399,1.898,9.888,0.279   c0.438-0.285,3.713-4.138,5.81-5.419C28.916,14.47,33.307,13.553,36.823,13.553z"
   id="path16" />
</g>
<g
   inkscape:groupmode="layer"
   id="layer1"
   inkscape:label="Ebene"><path
     style="fill:none;stroke:#ffffff;stroke-width:1.68883383;stroke-linecap:round;stroke-linejoin:miter;stroke-miterlimit:4;stroke-opacity:1;stroke-dasharray:none"
     d="m 8.4613669,20.579495 c 1.2617314,1.122397 1.8925971,0.801712 2.2080291,2.886162 0.315434,2.084448 1.320608,4.640774 1.320608,4.640774"
     id="path2999"
     inkscape:connector-curvature="0"
     sodipodi:nodetypes="csc" /><path
     style="fill:none;stroke:#ffffff;stroke-width:1.68883383;stroke-linecap:round;stroke-linejoin:miter;stroke-miterlimit:4;stroke-opacity:1;stroke-dasharray:none"
     d="m 13.409452,16.749581 c 0,0 1.734881,1.122396 2.050314,2.88616 0.315432,1.763764 0.788582,8.177454 0.788582,8.177454 l 0,0"
     id="path3001"
     inkscape:connector-curvature="0" /><path
     style="fill:none;stroke:#ffffff;stroke-width:1.68883383;stroke-linecap:round;stroke-linejoin:miter;stroke-miterlimit:4;stroke-opacity:1;stroke-dasharray:none"
     d="m 20.530242,12.741026 c 0,14.911825 0,14.911825 0,14.911825"
     id="path3003"
     inkscape:connector-curvature="0" /><path
     style="fill:none;stroke:#ffffff;stroke-width:1.68883383;stroke-linecap:round;stroke-linejoin:miter;stroke-miterlimit:4;stroke-opacity:1;stroke-dasharray:none"
     d="m 27.662807,16.669409 c 0,0 -1.734881,1.122395 -2.050314,2.88616 -0.315432,1.763764 -0.788582,8.177453 -0.788582,8.177453 l 0,0"
     id="path3001-1"
     inkscape:connector-curvature="0" /><path
     style="fill:none;stroke:#ffffff;stroke-width:1.68883383;stroke-linecap:round;stroke-linejoin:miter;stroke-miterlimit:4;stroke-opacity:1;stroke-dasharray:none"
     d="m 32.555583,20.767286 c -1.261731,1.122395 -1.892597,0.801711 -2.20803,2.88616 -0.315433,2.084449 -1.320607,4.640775 -1.320607,4.640775"
     id="path2999-7"
     inkscape:connector-curvature="0"
     sodipodi:nodetypes="csc" /><path
     style="fill:none;stroke:#ffffff;stroke-width:1.29999995;stroke-linecap:round;stroke-linejoin:miter;stroke-miterlimit:4;stroke-opacity:1;stroke-dasharray:none"
     d="m 10.338984,22.711864 c 0,0 -0.03535,2.479834 0.303633,3.496783 0.338983,1.016949 1.034171,2.239645 1.034171,2.239645"
     id="path3840"
     inkscape:connector-curvature="0"
     sodipodi:nodetypes="csc" /><path
     style="fill:none;stroke:#ffffff;stroke-width:1.60000002;stroke-linecap:round;stroke-linejoin:miter;stroke-miterlimit:4;stroke-opacity:1;stroke-dasharray:none"
     d="m 15.584157,20.169492 1.053204,7.645246"
     id="path3842"
     inkscape:connector-curvature="0"
     sodipodi:nodetypes="cc" /><path
     style="fill:none;stroke:#ffffff;stroke-width:1px;stroke-linecap:butt;stroke-linejoin:miter;stroke-opacity:1"
     d="M 21.016949,28.465513 20.508475,14.576271 19.661017,28.402973"
     id="path3844"
     inkscape:connector-curvature="0"
     sodipodi:nodetypes="ccc" /><path
     style="fill:none;stroke:#ffffff;stroke-width:1.39999998;stroke-linecap:round;stroke-linejoin:miter;stroke-miterlimit:4;stroke-opacity:1;stroke-dasharray:none"
     d="m 25.521617,20.338983 -1.195505,7.627119"
     id="path3846"
     inkscape:connector-curvature="0"
     sodipodi:nodetypes="cc" /><path
     style="fill:none;stroke:#ffffff;stroke-width:1.29999995;stroke-linecap:round;stroke-linejoin:miter;stroke-miterlimit:4;stroke-opacity:1;stroke-dasharray:none"
     d="m 30.338983,22.881356 c 0,0 -0.08067,2.096438 -0.08067,2.943895 0,0.847458 -0.90909,2.729993 -0.90909,2.729993"
     id="path3848"
     inkscape:connector-curvature="0"
     sodipodi:nodetypes="csc" /></g></svg>