<?xml version="1.0" encoding="utf-8"?>
<!-- Generator: Adobe Illustrator 15.0.0, SVG Export Plug-In . SVG Version: 6.00 Build 0)  -->
<!DOCTYPE svg PUBLIC "-//W3C//DTD SVG 1.1//EN" "http://www.w3.org/Graphics/SVG/1.1/DTD/svg11.dtd">
<svg version="1.1" xmlns="http://www.w3.org/2000/svg" xmlns:xlink="http://www.w3.org/1999/xlink" x="0px" y="0px" width="40px"
	 height="40px" viewBox="0 0 40 40" enable-background="new 0 0 40 40" xml:space="preserve">
<g id="Ebene_1">
	<g id="XMLID_1_">
		<g>
			<path fill="#D0F1F7" d="M20,1c10.49,0,19,8.51,19,19s-8.51,19-19,19S1,30.49,1,20S9.51,1,20,1z"/>
		</g>
		<g>
			<path fill="none" stroke="#106FB7" stroke-width="2" stroke-miterlimit="10" d="M39,20c0,10.49-8.51,19-19,19S1,30.49,1,20
				S9.51,1,20,1S39,9.51,39,20z"/>
		</g>
	</g>
	<g id="Ebene_6">
		<path fill="#4389C8" d="M37.721,20.469c-0.677,9.741-8.056,17.549-17.618,17.549S1.955,29.47,1.955,20.475
			c0-3.246,0.479-3.972,0.479-3.972s1.667,0.296,1.878-0.727c0.95-4.581,7.997-15.503,21.62-11.005
			c0.588,0.194,1.285-1.281,1.285-1.281s1.988,0.919,3.033,1.673C30.622,5.432,38.484,9.485,37.721,20.469z"/>
	</g>
	<g id="Ebene_2">
		<path fill="#0B619E" d="M36.823,13.553c0,0,1.671,3.403,1.307,7.235c-1.228,12.915-11.927,17.413-17.364,17.365
			C5.31,38.019,2.435,24.181,2.435,24.181c0-0.886,3.266-2.364,7.903-2.812c4.645-0.448,7.399,1.898,9.888,0.279
			c0.438-0.285,3.713-4.138,5.81-5.419C28.916,14.47,33.307,13.553,36.823,13.553z"/>
	</g>
</g>
<g id="Ebene_5">
	<ellipse fill="#FFFFFF" cx="11.719" cy="28.438" rx="2.156" ry="2.125"/>
	<ellipse fill="#FFFFFF" cx="27.813" cy="28.438" rx="2.188" ry="2.125"/>
	<path fill="#FFFFFF" d="M7,28V13h22l3.5,2.125c0,0-0.021,2.438-0.271,2.5C31.69,17.76,31.332,17.488,28,18.063l2,3.447l3,1.053V28
		h-2c0,0,0-3.146-3.188-3.146c-3.188,0-3.438,2.834-3.438,2.834l-9.313-0.063c0,0-0.641-2.521-3.344-2.5C8.375,25.151,8.5,28,8.5,28
		H7z"/>
	<polygon fill="#0B619E" points="22,22 22,17.938 25.784,17.919 28,22 	"/>
	<rect x="11" y="17" fill="#0B619E" width="8" height="5"/>
</g>
</svg>
