<?xml version="1.0" encoding="UTF-8" standalone="no"?>
<!-- Generator: Adobe Illustrator 15.0.0, SVG Export Plug-In . SVG Version: 6.00 Build 0)  -->

<svg
   xmlns:dc="http://purl.org/dc/elements/1.1/"
   xmlns:cc="http://creativecommons.org/ns#"
   xmlns:rdf="http://www.w3.org/1999/02/22-rdf-syntax-ns#"
   xmlns:svg="http://www.w3.org/2000/svg"
   xmlns="http://www.w3.org/2000/svg"
   xmlns:sodipodi="http://sodipodi.sourceforge.net/DTD/sodipodi-0.dtd"
   xmlns:inkscape="http://www.inkscape.org/namespaces/inkscape"
   version="1.1"
   x="0px"
   y="0px"
   width="40px"
   height="40px"
   viewBox="0 0 40 40"
   enable-background="new 0 0 40 40"
   xml:space="preserve"
   id="svg2"
   inkscape:version="0.92.2 (5c3e80d, 2017-08-06)"
   sodipodi:docname="best_zea_bl.svg"
   inkscape:export-filename="G:\AG_GDI-HH\Icons\fluechtlinge\best_zea_bl.png"
   inkscape:export-xdpi="90"
   inkscape:export-ydpi="90"><metadata
     id="metadata24"><rdf:RDF><cc:Work
         rdf:about=""><dc:format>image/svg+xml</dc:format><dc:type
           rdf:resource="http://purl.org/dc/dcmitype/StillImage" /><dc:title></dc:title></cc:Work></rdf:RDF></metadata><defs
     id="defs22" /><sodipodi:namedview
     pagecolor="#ffffff"
     bordercolor="#666666"
     borderopacity="1"
     objecttolerance="10"
     gridtolerance="10"
     guidetolerance="10"
     inkscape:pageopacity="0"
     inkscape:pageshadow="2"
     inkscape:window-width="1509"
     inkscape:window-height="965"
     id="namedview20"
     showgrid="false"
     inkscape:zoom="17.797186"
     inkscape:cx="7.9528711"
     inkscape:cy="19.925691"
     inkscape:window-x="2232"
     inkscape:window-y="45"
     inkscape:window-maximized="0"
     inkscape:current-layer="svg2" /><g
     id="Ebene_7"><path
       fill-rule="evenodd"
       clip-rule="evenodd"
       fill="#F4B06C"
       stroke="#DE7E0D"
       stroke-width="2"
       stroke-miterlimit="10"
       d="   M37.162,38.234c0,0.38-0.392,0.703-0.782,0.703H5.313c-0.387,0-1.111-0.607-1.111-0.987L3.938,20C3.938,19.34,2,19.125,2,19.125   S19.195,1.666,19.449,1.416c0.335-0.32,0.79-0.218,1.006-0.009C20.621,1.567,38.36,18.958,38.36,18.958s-1.296,0.499-1.254,1.117   L37.162,38.234z"
       id="path5"
       style="stroke:#10005d;stroke-opacity:1;fill:#003898;fill-opacity:1" /></g><g
     id="Ebene_9"><polygon
       fill-rule="evenodd"
       clip-rule="evenodd"
       fill="#F9E7CD"
       points="20,2.369 3.958,18.583 5.486,20 21.575,3.933  "
       id="polygon8"
       style="fill:#7a98ef;fill-opacity:1" /></g><g
     id="Ebene_8"
     transform="matrix(1.0018114,0,0,1,-0.00920719,0)"><path
       clip-rule="evenodd"
       d="m 36.103,37.915 c -0.774,0.007 -1.194,0.035 -1.566,0.035 H 5.625 C 5.02,38.03 5.083,37.656 5.083,37.542 l 0.042,-6.25 c 0,-0.202 1.482,-0.821 1.482,-0.821 0,0 12.561,-3.924 12.872,-4.022 0.318,-0.098 0.75,-0.065 0.955,-0.004 0.205,0.064 14.516,4.568 14.516,4.568 0,0 1.114,0.233 1.152,0.425 v 6.477 z"
       id="path11"
       style="fill:#001d73;fill-opacity:1;fill-rule:evenodd"
       inkscape:connector-curvature="0" /></g><g
     inkscape:groupmode="layer"
     id="layer1"
     inkscape:label="Ebene" /><g
     aria-label="Z"
     style="font-style:normal;font-weight:bold;font-size:6px;line-height:125%;font-family:Sans;-inkscape-font-specification:'Sans Bold';letter-spacing:0px;word-spacing:0px;fill:#000000;fill-opacity:1;stroke:none;stroke-width:1px;stroke-linecap:butt;stroke-linejoin:miter;stroke-opacity:1"
     id="text827"
     transform="matrix(0.92320023,0,0,1.2092364,1.1853137,-9.5271523)"><path
       d="M 14.798844,35.842037 H 6.6543126 V 34.025631 L 11.485042,28.023027 H 6.8886876 v -1.875 h 7.6497394 v 1.848958 l -4.8242186,5.970052 h 5.0846356 z"
       style="font-size:13.33333302px;fill:#ffffff;fill-opacity:1"
       id="path829"
       inkscape:connector-curvature="0" /></g><g
     aria-label="EA"
     style="font-style:normal;font-weight:bold;font-size:6px;line-height:125%;font-family:Sans;-inkscape-font-specification:'Sans Bold';letter-spacing:0px;word-spacing:0px;fill:#ffffff;fill-opacity:1;stroke:none;stroke-width:1px;stroke-linecap:butt;stroke-linejoin:miter;stroke-opacity:1"
     id="text834"
     transform="matrix(2.2021459,0,0,2.725987,-21.101215,-57.605733)"><path
       d="m 20.287567,33.538303 h -3.155273 v -4.362304 h 3.155273 v 0.84375 h -2.036133 v 0.752929 h 1.889649 v 0.84375 h -1.889649 v 1.078125 h 2.036133 z"
       style="fill:#ffffff;fill-opacity:1"
       id="path836"
       inkscape:connector-curvature="0" /><path
       d="M 25.265106,33.538303 H 24.10202 l -0.301758,-0.881836 h -1.617187 l -0.301758,0.881836 h -1.133789 l 1.611328,-4.362304 h 1.294922 z m -1.737304,-1.68164 -0.536133,-1.564453 -0.536133,1.564453 z"
       style="fill:#ffffff;fill-opacity:1"
       id="path838"
       inkscape:connector-curvature="0" /></g></svg>