<?xml version="1.0" encoding="utf-8"?>
<!-- Generator: Adobe Illustrator 15.0.0, SVG Export Plug-In . SVG Version: 6.00 Build 0)  -->
<!DOCTYPE svg PUBLIC "-//W3C//DTD SVG 1.1//EN" "http://www.w3.org/Graphics/SVG/1.1/DTD/svg11.dtd">
<svg version="1.1" xmlns="http://www.w3.org/2000/svg" xmlns:xlink="http://www.w3.org/1999/xlink" x="0px" y="0px" width="40px"
	 height="40px" viewBox="0 0 40 40" enable-background="new 0 0 40 40" xml:space="preserve">
<g id="Ebene_1">
	<g id="XMLID_1_">
		<g>
			<path fill="#C3F2BB" d="M20,1c10.49,0,19,8.51,19,19s-8.51,19-19,19S1,30.49,1,20S9.51,1,20,1z"/>
		</g>
		<g>
			<path fill="none" stroke="#0E5B1B" stroke-width="2" stroke-miterlimit="10" d="M39,20c0,10.49-8.51,19-19,19S1,30.49,1,20
				S9.51,1,20,1S39,9.51,39,20z"/>
		</g>
	</g>
	<g id="Ebene_6">
		<path fill="#4D7A44" d="M37.721,20.469c-0.677,9.741-8.056,17.549-17.618,17.549S1.955,29.47,1.955,20.475
			c0-3.246,0.479-3.972,0.479-3.972s1.667,0.296,1.878-0.727c0.95-4.581,7.997-15.503,21.62-11.005
			c0.588,0.194,1.285-1.281,1.285-1.281s1.988,0.919,3.033,1.673C30.622,5.432,38.484,9.485,37.721,20.469z"/>
	</g>
	<g id="Ebene_2">
		<path fill="#16631F" d="M36.823,13.553c0,0,1.671,3.403,1.307,7.235c-1.228,12.915-11.927,17.413-17.364,17.365
			C5.31,38.019,2.435,24.181,2.435,24.181c0-0.886,3.266-2.364,7.903-2.812c4.645-0.448,7.399,1.898,9.888,0.279
			c0.438-0.285,3.713-4.138,5.81-5.419C28.916,14.47,33.307,13.553,36.823,13.553z"/>
	</g>
</g>
<g id="Ebene_8">
	<path fill="#FFFFFF" d="M10.242,22.338l-3.179,1.35c0,0,2.813-4.375,2.467-8.027c-0.225-2.38,1.293-3.871,3.597-4.893
		c3.989-1.77,8.234-1.679,12.478-0.633c1.799,0.444,3.357,1.135,3.146,4.16c-0.203,2.902,1.063,7.205,2.626,9.643
		c1.422,2.218,3.388,3.795,2.336,4.813c-0.766,0.741-1.803,0.152-3.211-1.75c-1.396-1.884-2.735-4.468-3.063-5.375
		c-0.326-0.907-1.301-1.495-1.766-1.236c-0.777,0.434,0.03,2.525,0.15,3.377C25.964,24.771,26.375,32,26.375,32h-4.688L21,24.563
		c0,0-1.225,0.593-2.792,0.593c-1.567,0-3.144-1.159-3.144-1.159L15,32h-4.548L10.242,22.338z"/>
</g>
<g id="Ebene_9">
	<path fill="#407047" d="M18.188,16c-0.063-1.438-0.027-4.375,1.125-4.375c2,0,0.688,2.563,1.325,5.604
		c0.405,1.932,2.916,4.896,2.416,5.521s-3.565-2.437-4.128-3.875S18.188,16,18.188,16z"/>
	<circle fill="#3D7546" cx="23.941" cy="15.243" r="1.69"/>
</g>
</svg>
