<?xml version="1.0" encoding="utf-8"?>
<!-- Generator: Adobe Illustrator 15.1.0, SVG Export Plug-In . SVG Version: 6.00 Build 0)  -->
<!DOCTYPE svg PUBLIC "-//W3C//DTD SVG 1.1//EN" "http://www.w3.org/Graphics/SVG/1.1/DTD/svg11.dtd">
<svg version="1.1" id="Ebene_1" xmlns="http://www.w3.org/2000/svg" xmlns:xlink="http://www.w3.org/1999/xlink" x="0px" y="0px"
	 width="113.39px" height="113.39px" viewBox="0 0 113.39 113.39" enable-background="new 0 0 113.39 113.39" xml:space="preserve">
<g>
	<defs>
		<rect id="SVGID_1_" x="0.314" y="0.313" width="113.074" height="113.077"/>
	</defs>
	<clipPath id="SVGID_2_">
		<use xlink:href="#SVGID_1_"  overflow="visible"/>
	</clipPath>
	<path clip-path="url(#SVGID_2_)" fill="#E3000B" d="M56.853,113.39c31.228,0,56.536-25.313,56.536-56.536
		c0-31.226-25.308-56.537-56.536-56.537c-31.228,0-56.537,25.311-56.537,56.537C0.316,88.076,25.625,113.39,56.853,113.39"/>
	<path clip-path="url(#SVGID_2_)" fill="#FFFFFF" d="M56.853,101.485c24.653,0,44.637-19.984,44.637-44.636
		c0-24.651-19.984-44.635-44.637-44.635S12.216,32.199,12.216,56.85C12.216,81.501,32.2,101.485,56.853,101.485"/>
	<path clip-path="url(#SVGID_2_)" fill="#E3000B" d="M93.727,69.288c0,0-3.77-22.861-35.329-22.861
		c-32.863,0-37.867,20.045-38.371,22.594l0.027,0.246c0,0,3.081,14.134,38.17,14.134c29.123,0,34.818-11.974,35.485-13.864
		L93.727,69.288z"/>
	<path clip-path="url(#SVGID_2_)" fill="#FFFFFF" d="M66.651,46.752c0,0-7.943,3.161-8.136,5.17c-0.193,2.009,1.626,4.5,4.306,6.506
		c2.683,2.013,11.584,12.54-11.2,18.951c-22.779,6.415-22.107,6.322-22.107,6.322l22.395,4.21l13.975-1.723l8.234-3.257
		c0,0,16.081-12.633-1.817-23.544c-17.899-10.914-2.683-12.254-2.683-12.254L66.651,46.752z"/>
	<path clip-path="url(#SVGID_2_)" fill="#E3000B" d="M57.576,30.172c0.067-0.414,0.281-0.783,0.281-1.21
		c0-3.704-2.572-6.879-6.235-8.249c-0.848-2.331-3.035-4.016-5.659-4.016c-2.988,0-5.357,2.197-5.864,5.043
		c-0.186-0.031-0.302-0.208-0.494-0.208c-1.849,0-3.342,1.497-3.342,3.342c0,0.516,0.34,0.882,0.545,1.316
		c-2.127,0.803-3.656,2.815-3.656,5.221c0,3.103,2.517,5.614,5.616,5.614c1.082,0,2.033-0.386,2.891-0.919
		c1.693,1.077,3.667,1.839,5.917,1.839c2.667,0,5.039-0.94,6.865-2.393c0.364,0.137,0.644,0.438,1.054,0.438
		c1.847,0,3.342-1.497,3.342-3.342C58.837,31.618,58.311,30.784,57.576,30.172"/>
</g>
<rect x="45.765" y="35.534" fill="#E3000B" width="2.937" height="14.854"/>
</svg>
