<?xml version="1.0" encoding="utf-8"?>
<!-- Generator: Adobe Illustrator 15.1.0, SVG Export Plug-In . SVG Version: 6.00 Build 0)  -->
<!DOCTYPE svg PUBLIC "-//W3C//DTD SVG 1.1//EN" "http://www.w3.org/Graphics/SVG/1.1/DTD/svg11.dtd">
<svg version="1.1" id="Ebene_1" xmlns="http://www.w3.org/2000/svg" xmlns:xlink="http://www.w3.org/1999/xlink" x="0px" y="0px"
	 width="113.39px" height="113.39px" viewBox="0 0 113.39 113.39" enable-background="new 0 0 113.39 113.39" xml:space="preserve">
<g>
	<defs>
		<rect id="SVGID_1_" x="1.095" y="0.778" width="112.125" height="112.128"/>
	</defs>
	<clipPath id="SVGID_2_">
		<use xlink:href="#SVGID_1_"  overflow="visible"/>
	</clipPath>
	<path clip-path="url(#SVGID_2_)" fill="#002D62" d="M56.424,77.267c-1.528,0.244-2.919,0.328-4.21,0.295
		c-14.576-0.339-14.976-16.726-14.976-16.726c3.748,8.227,12.956,11.608,19.144,13.275C62.785,75.843,65.947,75.738,56.424,77.267
		 M79.379,51.104c-8.014-8.19-29.778-9.81-23.094-19.487c10.347-14.998-25.947,11.616-25.947,25.946
		c0,11.009,6.863,20.408,16.536,24.177c2.919,1.139,6.091,1.766,9.412,1.766c14.329,0,25.944-11.612,25.944-25.942
		C82.229,54.994,81.131,52.896,79.379,51.104"/>
	<path clip-path="url(#SVGID_2_)" fill="#002D62" d="M57.159,112.906c30.966,0,56.061-25.102,56.061-56.062
		c0-30.964-25.095-56.062-56.061-56.062c-30.965,0-56.062,25.099-56.062,56.062C1.096,87.805,26.193,112.906,57.159,112.906"/>
	<path clip-path="url(#SVGID_2_)" fill="#FFFFFF" d="M57.159,101.104c24.447,0,44.262-19.816,44.262-44.261
		s-19.815-44.26-44.262-44.26c-24.446,0-44.262,19.816-44.262,44.26S32.713,101.104,57.159,101.104"/>
	<path clip-path="url(#SVGID_2_)" fill="#002D62" d="M57.159,96.679c22,0,39.833-17.833,39.833-39.835
		c0-11.134-23.31-5.574-40.577,3.175c-19.717,9.996-39.089-14.038-39.089-3.175C17.326,78.846,35.159,96.679,57.159,96.679"/>
	<path clip-path="url(#SVGID_2_)" fill="#FFFFFF" d="M65.422,60.317c0,0,19.277-9.444,28.128-5.707
		C90.009,55.201,65.422,60.317,65.422,60.317"/>
</g>
</svg>
